<svg width="19" height="17" viewBox="0 0 19 17" fill="none" xmlns="http://www.w3.org/2000/svg">
<path fill-rule="evenodd" clip-rule="evenodd" d="M2.62706 0.556906C3.77806 -0.299094 5.30103 -0.108193 6.32603 0.720407L7.00105 1.26571C8.43505 2.42451 8.61604 4.5402 7.40004 5.926L7.30705 6.0328C6.79805 6.6126 6.78406 7.30721 7.12706 7.69851C7.69006 8.34011 8.46905 8.93321 9.67805 9.61091C10.3271 9.97501 11.175 9.81721 11.706 9.21271L11.771 9.13841C12.923 7.82551 14.909 7.6551 16.267 8.7529L16.8941 9.259C18.0331 10.1799 18.5141 11.8704 17.6091 13.2118C16.9541 14.1829 16.2141 14.9555 15.3341 15.5887C14.6131 16.1081 13.714 16.2041 12.921 15.9912C9.86803 15.1714 7.37504 14.0048 5.30504 12.3231C3.23404 10.6401 1.62304 8.47181 0.293043 5.70221C0.00404322 5.09961 -0.120955 4.3446 0.151045 3.6196C0.601045 2.4182 1.43406 1.44421 2.62706 0.556906ZM5.38405 1.88711C4.79805 1.41421 4.03405 1.37971 3.52205 1.76051C2.48605 2.53111 1.87604 3.29001 1.55504 4.14601C1.46204 4.39511 1.48503 4.71801 1.64503 5.0528C2.90103 7.6664 4.38505 9.64291 6.25105 11.1589C8.11805 12.676 10.406 13.7626 13.31 14.5425C13.736 14.6568 14.1561 14.5889 14.4581 14.3714C15.1831 13.8493 15.802 13.2083 16.366 12.3728C16.752 11.7998 16.608 10.9565 15.951 10.4257L15.3251 9.91961C14.5921 9.32771 13.5201 9.41961 12.8981 10.1278L12.8331 10.202C11.8761 11.293 10.263 11.6589 8.94404 10.9193C7.65704 10.1975 6.71704 9.50601 6.00004 8.68741C5.00404 7.55191 5.34803 5.9909 6.17903 5.0435L6.27305 4.9367C6.92705 4.1914 6.83003 3.0554 6.05903 2.4325L5.38405 1.88711Z" fill="#F7F7FC"/>
</svg>
