<svg width="223" height="223" viewBox="0 0 223 223" fill="none" xmlns="http://www.w3.org/2000/svg">
<path d="M110.966 220.529C171.244 220.529 220.11 171.664 220.11 111.385C220.11 51.107 171.244 2.2417 110.966 2.2417C50.6876 2.2417 1.82227 51.107 1.82227 111.385C1.82227 171.664 50.6876 220.529 110.966 220.529Z" fill="#030C54"/>
<mask id="mask0_334_2193" style="mask-type:luminance" maskUnits="userSpaceOnUse" x="1" y="2" width="220" height="219">
<path d="M110.966 220.529C171.244 220.529 220.11 171.664 220.11 111.385C220.11 51.107 171.244 2.2417 110.966 2.2417C50.6876 2.2417 1.82227 51.107 1.82227 111.385C1.82227 171.664 50.6876 220.529 110.966 220.529Z" fill="white"/>
</mask>
<g mask="url(#mask0_334_2193)">
<path d="M135.947 137.959L77.938 139.216L26.6353 169.311C21.941 172.664 19.1747 178.196 19.2585 183.98L28.5634 264.036L198.398 253.306L196.47 180.124C196.387 174.34 193.369 168.975 188.507 165.79L135.947 137.959Z" fill="#12C2FF"/>
</g>
<mask id="mask1_334_2193" style="mask-type:luminance" maskUnits="userSpaceOnUse" x="1" y="2" width="220" height="219">
<path d="M110.966 220.529C171.244 220.529 220.11 171.664 220.11 111.385C220.11 51.107 171.244 2.2417 110.966 2.2417C50.6876 2.2417 1.82227 51.107 1.82227 111.385C1.82227 171.664 50.6876 220.529 110.966 220.529Z" fill="white"/>
</mask>
<g mask="url(#mask1_334_2193)">
<path d="M107.446 165.035C91.3507 165.371 78.0221 152.629 77.6867 136.534L75.9264 54.8856L134.27 53.6282L136.031 135.276C136.282 151.371 123.541 164.7 107.446 165.035Z" fill="white"/>
</g>
<mask id="mask2_334_2193" style="mask-type:luminance" maskUnits="userSpaceOnUse" x="1" y="2" width="220" height="219">
<path d="M110.966 220.529C171.244 220.529 220.11 171.664 220.11 111.385C220.11 51.107 171.244 2.2417 110.966 2.2417C50.6876 2.2417 1.82227 51.107 1.82227 111.385C1.82227 171.664 50.6876 220.529 110.966 220.529Z" fill="white"/>
</mask>
<g mask="url(#mask2_334_2193)">
<path d="M73.6631 106.523C69.807 106.607 66.5377 103.506 66.4539 99.6496L66.2862 93.111C66.2024 89.2549 69.304 85.9856 73.1601 85.9018C77.0162 85.818 80.2854 88.9196 80.3693 92.7757L80.5369 99.3143C80.6208 103.254 77.5191 106.44 73.6631 106.523Z" fill="white"/>
</g>
<mask id="mask3_334_2193" style="mask-type:luminance" maskUnits="userSpaceOnUse" x="2" y="2" width="219" height="219">
<path d="M113.766 220.566C174.033 219.284 221.849 169.388 220.566 109.122C219.284 48.8556 169.388 1.03967 109.122 2.32215C48.8556 3.60463 1.03966 53.4998 2.32214 113.766C3.60462 174.033 53.4998 221.849 113.766 220.566Z" fill="white"/>
</mask>
<g mask="url(#mask3_334_2193)">
<path d="M141.323 53.7071L84.5834 54.9146L86.0673 124.645L142.807 123.438L141.323 53.7071Z" fill="white"/>
</g>
<mask id="mask4_334_2193" style="mask-type:luminance" maskUnits="userSpaceOnUse" x="1" y="2" width="220" height="219">
<path d="M110.966 220.529C171.244 220.529 220.11 171.664 220.11 111.385C220.11 51.107 171.244 2.2417 110.966 2.2417C50.6876 2.2417 1.82227 51.107 1.82227 111.385C1.82227 171.664 50.6876 220.529 110.966 220.529Z" fill="white"/>
</mask>
<g mask="url(#mask4_334_2193)">
<path d="M76.5128 86.6563L82.3807 90.4285L88.7516 58.3225C116.666 63.2683 144.162 70.226 151.958 55.137C159.754 40.048 144.413 9.19939 136.282 25.1267C131.336 34.683 118.259 32.8388 118.259 32.8388C118.259 32.8388 74.92 26.4679 70.4772 42.3114C70.3933 42.2275 50.4423 44.4909 76.5128 86.6563Z" fill="#611DDD"/>
</g>
<mask id="mask5_334_2193" style="mask-type:luminance" maskUnits="userSpaceOnUse" x="1" y="2" width="220" height="219">
<path d="M110.966 220.529C171.244 220.529 220.11 171.664 220.11 111.385C220.11 51.107 171.244 2.2417 110.966 2.2417C50.6876 2.2417 1.82227 51.107 1.82227 111.385C1.82227 171.664 50.6876 220.529 110.966 220.529Z" fill="white"/>
</mask>
<g mask="url(#mask5_334_2193)">
<path d="M135.695 123.624L99.5652 124.714L132.761 148.94C132.761 148.94 135.695 143.491 135.946 137.875L135.695 123.624Z" fill="#EEEEEE"/>
</g>
<mask id="mask6_334_2193" style="mask-type:luminance" maskUnits="userSpaceOnUse" x="1" y="2" width="220" height="219">
<path d="M110.966 220.529C171.244 220.529 220.11 171.664 220.11 111.385C220.11 51.107 171.244 2.2417 110.966 2.2417C50.6876 2.2417 1.82227 51.107 1.82227 111.385C1.82227 171.664 50.6876 220.529 110.966 220.529Z" fill="white"/>
</mask>
<g mask="url(#mask6_334_2193)">
<path opacity="0.35" d="M120.523 85.0636C120.69 91.0153 115.912 95.8774 110.044 96.045C104.092 96.2127 99.2303 91.4345 99.0627 85.5665C98.895 79.6148 103.673 74.7527 109.541 74.5851C115.493 74.5013 120.439 79.1956 120.523 85.0636Z" fill="white"/>
</g>
<mask id="mask7_334_2193" style="mask-type:luminance" maskUnits="userSpaceOnUse" x="1" y="2" width="220" height="219">
<path d="M110.966 220.529C171.244 220.529 220.11 171.664 220.11 111.385C220.11 51.107 171.244 2.2417 110.966 2.2417C50.6876 2.2417 1.82227 51.107 1.82227 111.385C1.82227 171.664 50.6876 220.529 110.966 220.529Z" fill="white"/>
</mask>
<g mask="url(#mask7_334_2193)">
<path opacity="0.73" d="M151.203 84.4767C151.371 90.4285 146.593 95.2905 140.725 95.4582C134.773 95.6258 129.911 90.8476 129.743 84.9797C129.576 79.0279 134.354 74.1659 140.222 73.9983C146.174 73.8306 151.036 78.525 151.203 84.4767Z" fill="white"/>
</g>
<mask id="mask8_334_2193" style="mask-type:luminance" maskUnits="userSpaceOnUse" x="1" y="2" width="220" height="219">
<path d="M110.966 220.529C171.244 220.529 220.11 171.664 220.11 111.385C220.11 51.107 171.244 2.2417 110.966 2.2417C50.6876 2.2417 1.82227 51.107 1.82227 111.385C1.82227 171.664 50.6876 220.529 110.966 220.529Z" fill="white"/>
</mask>
<g mask="url(#mask8_334_2193)">
<path d="M120.523 85.0636C120.69 91.0153 115.912 95.8774 110.044 96.045C104.092 96.2127 99.2303 91.4345 99.0627 85.5665C98.895 79.6148 103.673 74.7527 109.541 74.5851C115.493 74.5013 120.439 79.1956 120.523 85.0636Z" stroke="#611DDD" stroke-width="4" stroke-miterlimit="10"/>
</g>
<mask id="mask9_334_2193" style="mask-type:luminance" maskUnits="userSpaceOnUse" x="1" y="2" width="220" height="219">
<path d="M110.966 220.529C171.244 220.529 220.11 171.664 220.11 111.385C220.11 51.107 171.244 2.2417 110.966 2.2417C50.6876 2.2417 1.82227 51.107 1.82227 111.385C1.82227 171.664 50.6876 220.529 110.966 220.529Z" fill="white"/>
</mask>
<g mask="url(#mask9_334_2193)">
<path d="M151.203 84.4767C151.371 90.4285 146.593 95.2905 140.725 95.4582C134.773 95.6258 129.911 90.8476 129.743 84.9797C129.576 79.0279 134.354 74.1659 140.222 73.9983C146.174 73.8306 151.036 78.525 151.203 84.4767Z" stroke="#611DDD" stroke-width="4" stroke-miterlimit="10"/>
</g>
<mask id="mask10_334_2193" style="mask-type:luminance" maskUnits="userSpaceOnUse" x="1" y="2" width="220" height="219">
<path d="M110.966 220.529C171.244 220.529 220.11 171.664 220.11 111.385C220.11 51.107 171.244 2.2417 110.966 2.2417C50.6876 2.2417 1.82227 51.107 1.82227 111.385C1.82227 171.664 50.6876 220.529 110.966 220.529Z" fill="white"/>
</mask>
<g mask="url(#mask10_334_2193)">
<path d="M79.8657 88.4167C79.8657 88.4167 63.184 31.4138 119.768 31.4138" stroke="white" stroke-width="4" stroke-miterlimit="10" stroke-linecap="round"/>
<path d="M80.5363 103.925C85.7215 103.925 89.925 99.7214 89.925 94.5362C89.925 89.3509 85.7215 85.1475 80.5363 85.1475C75.3511 85.1475 71.1476 89.3509 71.1476 94.5362C71.1476 99.7214 75.3511 103.925 80.5363 103.925Z" fill="#611DDD"/>
<path d="M82.0452 100.069L91.7692 113.817H113.229" stroke="#D1D1D1" stroke-width="4" stroke-miterlimit="10" stroke-linecap="round"/>
<path d="M117.672 116.918H113.984C112.559 116.918 111.385 115.745 111.385 114.319V113.733C111.385 112.308 112.559 111.134 113.984 111.134H117.672C119.097 111.134 120.271 112.308 120.271 113.733V114.319C120.355 115.745 119.181 116.918 117.672 116.918Z" fill="#611DDD"/>
</g>
</svg>
