<svg width="127" height="159" viewBox="0 0 127 159" fill="none" xmlns="http://www.w3.org/2000/svg">
<path d="M71.0459 52.0202C35.272 51.1888 3.76245 76.0785 3.76245 107.004C3.76245 123.926 13.2567 137.867 27.6633 146.201C27.0763 147.286 24.1183 152.66 20.2765 158.038L39.9849 151.569C48.6748 154.278 58.3694 155.279 68.4243 154.196C100.066 150.785 124.875 127.583 126.107 101.66C127.366 75.203 103.806 52.7815 71.0459 52.0202Z" fill="#76D5FF"/>
<mask id="mask0_333_1678" style="mask-type:luminance" maskUnits="userSpaceOnUse" x="3" y="0" width="124" height="159">
<path d="M3.6828 0.000227756V108.742L3.80012 108.735C4.42469 124.876 13.7552 138.15 27.6653 146.199C27.0811 147.278 24.1217 152.656 20.2771 158.038L39.982 151.57C48.6719 154.28 58.3688 155.279 68.4249 154.195C100.065 150.785 124.873 127.584 126.108 101.662L126.156 101.659V0H3.6828V0.000227756Z" fill="white"/>
</mask>
<g mask="url(#mask0_333_1678)">
<path d="M111.407 115.057C112.287 120.096 103.454 128.16 93.4081 132.366L91.5769 123.16L98.0075 115.057H111.407Z" fill="#03007C"/>
<path d="M91.5767 123.16C99.8925 116.337 111.407 115.057 111.407 115.057C111.407 115.057 100.959 93.7349 94.9883 87.3381C89.018 80.9412 80.0758 81.0516 74.1573 80.8769H46.6853C46.6853 80.8769 36.1232 80.6224 31.0219 83.5654C25.9204 86.5085 20.4266 96.2331 17.0911 104.124C13.7555 112.016 11.7934 117.706 11.7934 117.706L24.9448 121.336C23.5273 128.308 22.4944 135.358 21.8518 142.453L18.4251 159.441L98.5148 158.038L91.5767 123.16Z" fill="#FF004F"/>
<path d="M50.2878 80.8769C44.8109 80.8769 37.2141 82.1403 35.4635 73.9248C33.713 65.7093 39.6459 55.9333 47.4171 47.1289H56.4977V80.8771L50.2878 80.8769Z" fill="#03007C"/>
<path d="M67.3673 57.915C67.3673 57.915 67.6849 67.6999 69.3627 72.6638C71.492 78.9631 74.1566 80.8765 74.1566 80.8765C65.262 100.444 55.0445 105.921 55.0445 105.921C42.3679 91.1271 46.6849 80.8765 46.6849 80.8765C48.2778 80.8765 49.4234 79.5455 48.7916 74.1529" fill="#FFE697"/>
<path d="M65.464 66.2602L60.8593 63.6052L48.7926 74.1534C49.4244 79.546 48.2788 80.877 46.6859 80.877C61.0233 84.7832 64.9202 73.5599 65.464 66.2602Z" fill="#FFAB5F"/>
<path d="M36.7894 46.0801C36.7894 49.8684 37.0942 53.6529 37.7557 57.3828C38.7979 63.2605 40.1863 65.9204 42.9875 69.2216C45.2645 71.9051 47.1597 73.0903 48.7908 74.1547C50.6995 75.4001 53.7892 75.2754 56.4216 73.4413C59.9545 70.9797 64.9622 67.8694 68.6812 62.2347C72.3999 56.6001 86.6134 32.8863 62.3704 26.3987C46.3681 22.1165 36.7894 32.9348 36.7894 41.612V46.0801Z" fill="#FFE697"/>
<path d="M52.2191 52.9033C52.2191 53.5312 51.8797 54.0403 51.4611 54.0403C51.0425 54.0403 50.7031 53.5314 50.7031 52.9033C50.7031 52.2755 51.0425 51.7664 51.4611 51.7664C51.8797 51.7666 52.2191 52.2755 52.2191 52.9033Z" fill="#03007C"/>
<path d="M43.5622 53.74C43.5622 54.3678 43.2229 54.8769 42.8042 54.8769C42.3856 54.8769 42.0463 54.3681 42.0463 53.74C42.0463 53.1122 42.3856 52.603 42.8042 52.603C43.2229 52.603 43.5622 53.1119 43.5622 53.74Z" fill="#03007C"/>
<path d="M44.437 49.4822C41.8835 48.2429 40.0865 48.7313 37.9457 49.7075C37.9457 49.7075 38.2417 47.8798 40.5599 47.3718C42.7165 46.8993 44.4403 47.6421 44.437 49.4822Z" fill="#03007C"/>
<path d="M47.9478 49.0002C50.3698 47.1739 54.9813 47.8206 58.6383 48.274C58.1151 45.7876 48.481 43.8199 47.9478 49.0002Z" fill="#03007C"/>
<path d="M44.4365 58.6702C44.8402 59.3988 45.4084 60.0358 46.0863 60.5195L48.907 60.3173C47.6452 59.007 45.9368 58.3834 44.4365 58.6702Z" fill="#FFAB5F"/>
<path d="M45.2203 63.8969C46.8669 63.8221 49.4398 63.5791 51.3951 63.0984C51.3951 63.0984 52.0097 66.6452 49.3556 67.0652C46.5082 67.5158 45.2203 63.8969 45.2203 63.8969Z" fill="#FF6136"/>
<path d="M66.114 49.3833C66.114 49.3833 66.4904 45.4937 70.5055 45.4937C74.5207 45.4937 76.5283 56.7863 67.3685 57.9155" fill="#FFE697"/>
<path d="M87.4768 70.0297C86.2424 66.3042 84.85 61.2428 83.8052 55.0295C81.4212 40.851 77.406 23.2847 55.0717 23.2847C32.7377 23.2847 34.5346 40.4396 36.9186 50.2051C38.4353 49.5084 39.3351 48.9345 40.2976 48.4571C41.3513 47.9346 42.1969 47.0615 42.6801 45.9891C44.3843 42.2091 45.3979 35.7087 45.3979 35.7087L46.5556 47.1221C51.7014 47.0428 66.1134 49.383 66.1134 49.383C66.1134 49.383 66.4898 45.4933 70.505 45.4933C74.5201 45.4933 76.5277 56.7859 67.3679 57.9152C67.3679 57.9152 67.6856 67.7 69.3634 72.6639C71.4927 78.9633 74.1573 80.8766 74.1573 80.8766C74.1573 80.8766 79.7693 81.2449 81.3482 80.9466C86.0908 80.0505 88.9951 74.6106 87.4768 70.0297Z" fill="#03007C"/>
<path d="M20.0241 119.977L24.9456 121.336C26.0914 115.699 26.5441 114.164 29.2504 104.125C29.2504 104.125 25.2091 107.501 20.0241 119.977Z" fill="#CE004A"/>
<path d="M107.624 115.753C103.54 116.695 96.9044 118.789 91.5769 123.16L98.515 158.038H111.467C110.635 140.496 109.94 128.933 107.624 115.753Z" fill="#FFE697"/>
<path d="M95.4149 142.453L91.5768 123.16C89.688 114.763 85.3715 104.124 85.3715 104.124L88.9022 158.037H98.515L95.4149 142.453Z" fill="#CE004A"/>
<path d="M68.3811 53.2723C67.101 51.0077 68.3737 46.809 71.2454 48.0507C69.6632 49.5958 68.6288 51.3114 68.3811 53.2723Z" fill="#03007C"/>
</g>
<path d="M1.22401 78.1767C0.278059 73.8229 1.72802 68.8042 3.84708 66.7968C5.96614 64.7895 9.3805 69.0609 9.3805 69.0609V78.1769L1.22401 78.1767Z" fill="#FFAB5F"/>
<path d="M16.8385 84.3063H9.51511C8.03321 84.3063 6.76658 83.24 6.51376 81.78L2.91561 61.001C2.70338 59.7759 3.64676 58.6555 4.88983 58.6555H12.2132C13.6951 58.6555 14.9618 59.7218 15.2146 61.1818L18.8127 81.9607C19.025 83.1859 18.0818 84.3063 16.8385 84.3063Z" fill="#03007C"/>
<path d="M13.398 93.0503C16.0971 87.1733 16.0964 85.9732 18.9753 85.9732C21.854 85.9732 21.4944 83.5742 21.2544 81.9183C21.0144 80.2625 20.5349 77.5769 20.0227 74.2185C19.5106 70.8601 17.656 69.0608 15.9768 69.0608C14.2976 69.0608 12.1384 69.0608 9.37984 69.0608C6.62105 69.0608 5.05683 70.98 3.73749 72.6949C2.41792 74.4098 1.22357 75.8977 1.22357 78.1768C1.22357 80.4558 2.90279 86.4529 3.68246 93.0503C3.68246 93.0503 3.86227 98.7048 3.68246 108.742C3.50264 118.779 5.15432 129.682 21.8642 142.308C22.5077 135.262 23.5362 128.261 24.9442 121.335L26.1683 115.762C26.1683 115.762 16.1811 101.596 13.398 93.0503Z" fill="#FFE697"/>
<path d="M12.6719 62.6152C12.7255 63.1337 12.4678 63.566 12.096 63.5812C11.7243 63.5964 11.3793 63.1882 11.3255 62.6698C11.2716 62.1513 11.5295 61.7189 11.9013 61.7038C12.2733 61.6886 12.6182 62.0967 12.6719 62.6152Z" fill="white"/>
</svg>
