<svg width="241" height="191" viewBox="0 0 241 191" fill="none" xmlns="http://www.w3.org/2000/svg">
<path d="M120.499 9.72601C109.844 9.72601 99.4274 12.8857 90.5677 18.8056C81.708 24.7255 74.8027 33.1396 70.725 42.9839C66.6473 52.8283 65.5804 63.6608 67.6592 74.1115C69.738 84.5622 74.8691 94.1619 82.4037 101.696C89.9382 109.231 99.5378 114.362 109.989 116.441C120.439 118.52 131.272 117.453 141.116 113.375C150.96 109.297 159.375 102.392 165.294 93.5324C171.214 84.6727 174.374 74.2565 174.374 63.601C174.359 49.3169 168.679 35.6221 158.578 25.5217C148.478 15.4214 134.783 9.74057 120.499 9.72601ZM133.499 105.671L131.972 106.394L130.135 106.577L127.528 106.84C120.083 107.62 112.559 106.626 105.572 103.94L105.455 103.893L105.394 103.865C105.333 103.842 105.257 103.808 105.168 103.765L103.031 102.84L102.853 102.74C102.172 102.44 101.491 102.11 100.791 101.74C98.8238 100.744 96.9306 99.6074 95.126 98.34L95.037 98.279C94.901 98.185 94.765 98.091 94.628 97.992C94.528 97.917 94.417 97.842 94.313 97.771L94.238 97.719C93.754 97.367 93.228 96.986 92.711 96.563C92.425 96.338 92.171 96.126 91.911 95.905C91.596 95.651 91.272 95.374 90.939 95.088L90.911 95.065C90.411 94.623 89.92 94.177 89.436 93.717C87.4793 91.8342 85.6803 89.794 84.057 87.617C83.334 86.654 82.638 85.617 81.929 84.47C80.9755 82.9506 80.1075 81.3792 79.329 79.763C78.3475 77.7731 77.5229 75.7095 76.863 73.591C76.807 73.431 76.75 73.258 76.694 73.091L76.619 72.847L76.06 70.94L75.849 70.278L75.821 70.184L75.798 70.09C74.0738 62.8517 74.0369 55.3139 75.69 48.059C75.69 48.04 75.699 48.017 75.704 47.998L77.151 41.868L78.494 42.468L82.905 44.422C90.8429 47.9614 97.6703 53.5905 102.658 60.708C102.705 60.769 102.752 60.835 102.799 60.901C102.813 60.919 102.825 60.9376 102.837 60.957C104.141 62.8388 105.311 64.8104 106.337 66.857C106.439 67.0325 106.525 67.2165 106.595 67.407C107.243 68.741 107.826 70.099 108.333 71.447C109.792 72.2195 111.211 73.0663 112.584 73.984C113.702 74.7307 114.782 75.5214 115.825 76.356C122.265 81.4905 127.29 88.1823 130.425 95.799C131.012 97.2223 131.531 98.6754 131.98 100.158L133.634 105.616C133.587 105.631 133.541 105.649 133.497 105.671H133.499ZM137.962 102.871L136.308 97.413C135.862 95.933 135.344 94.48 134.753 93.054C140.998 89.6437 146.321 84.7672 150.264 78.844C153.636 73.519 155.619 67.4334 156.032 61.144C151.012 63.9412 146.697 67.847 143.415 72.564L143.396 72.592C143.091 73.015 142.776 73.492 142.496 73.926C140.651 76.8642 139.218 80.041 138.235 83.368L132.391 82.268L133.556 69.406C133.496 66.8432 133.244 64.2885 132.804 61.763C131.162 52.571 127.019 44.0092 120.83 37.017C117.497 46.4448 116.648 56.5719 118.364 66.423L118.464 66.977C118.741 68.466 119.051 69.777 119.394 70.984L120.155 73.624C119.108 72.788 118.027 71.9973 116.914 71.252C115.54 70.336 114.121 69.4893 112.663 68.715C112.156 67.367 111.573 66.009 110.925 64.675C110.854 64.4849 110.768 64.301 110.667 64.125C109.641 62.0784 108.471 60.1068 107.167 58.225C107.153 58.206 107.144 58.187 107.129 58.169C106.894 46.51 109.576 34.669 114.729 25.602L117.843 20.12L122.63 24.207C132.825 32.941 139.859 44.7893 142.646 57.921C147.519 53.6487 153.206 50.4051 159.364 48.385L165.353 46.426L166.147 52.674C167.546 63.7547 165.045 74.9768 159.073 84.415C153.826 92.3554 146.531 98.7307 137.959 102.867L137.962 102.871Z" fill="#030C54"/>
<path d="M119.278 96.525C116.938 96.3157 114.624 95.8803 112.368 95.225C111.129 94.8731 109.911 94.4528 108.718 93.966C106.601 93.125 104.565 92.0938 102.635 90.885C102.325 90.669 102.01 90.476 101.735 90.302C100.461 89.4513 99.245 88.5176 98.094 87.507L97.911 87.352L97.897 87.343C97.606 87.094 97.31 86.826 97.023 86.549L96.962 86.488C96.643 86.197 96.318 85.888 95.962 85.553C93.0561 82.6656 90.6467 79.3182 88.831 75.646C86.0287 70.0026 84.6799 63.7488 84.907 57.452C89.7754 60.8708 93.7722 65.3858 96.575 70.633C96.683 70.868 96.796 71.079 96.899 71.286C96.951 71.38 96.999 71.474 97.045 71.563C97.181 71.835 97.308 72.108 97.425 72.371L97.444 72.423L97.467 72.475C98.2491 74.129 98.8979 75.8428 99.407 77.6L99.802 78.943L101.084 79.502C102.758 80.2252 104.37 81.0844 105.904 82.071L105.956 82.104L106.008 82.137C106.266 82.287 106.525 82.461 106.792 82.637C112.034 86.1675 116.323 90.9381 119.278 96.525Z" fill="#030C54"/>
<path d="M120.499 126.359C108.086 126.358 95.9525 122.677 85.632 115.78C75.3116 108.884 67.2679 99.0817 62.5183 87.6137C57.7687 76.1456 56.5263 63.5267 58.9484 51.3526C61.3706 39.1785 67.3483 27.996 76.1258 19.2192C84.9032 10.4425 96.0862 4.46561 108.26 2.04447C120.435 -0.376668 133.054 0.866644 144.521 5.6172C155.989 10.3677 165.79 18.4122 172.686 28.7332C179.582 39.0542 183.262 51.1883 183.262 63.601C183.242 80.2401 176.622 96.1917 164.856 107.957C153.09 119.722 137.138 126.34 120.499 126.359ZM120.499 2.49702C108.415 2.49702 96.6015 6.08047 86.5537 12.7942C76.5059 19.508 68.6745 29.0505 64.05 40.2151C59.4255 51.3796 58.2155 63.6648 60.573 75.517C62.9306 87.3693 68.7498 98.2563 77.2948 106.801C85.8398 115.346 96.7268 121.165 108.579 123.523C120.431 125.881 132.716 124.671 143.881 120.046C155.046 115.422 164.588 107.59 171.302 97.5424C178.016 87.4945 181.599 75.6815 181.599 63.597C181.58 47.3979 175.137 31.8675 163.683 20.4129C152.228 8.95829 136.698 2.5148 120.499 2.49601V2.49702Z" fill="#030C54"/>
<path d="M16.563 163.61C17.4971 163.25 18.2981 162.612 18.8577 161.782C19.4174 160.952 19.7086 159.97 19.692 158.969C19.692 154.126 16.155 151.993 11.41 151.993H2.28882e-05V156.118H11.41C14.294 156.118 15.187 157.969 15.187 159.073C15.187 160.449 14.262 161.652 11.41 161.652L2.28882e-05 161.633V165.633H11.41C13.27 165.633 15.91 166.765 15.91 168.933C15.91 171.202 13.265 171.817 11.41 171.817H2.28882e-05V176.04H11.41C16.394 176.04 20.415 174.325 20.415 168.961C20.3831 167.786 19.9988 166.647 19.3119 165.693C18.6251 164.739 17.6674 164.013 16.563 163.61Z" fill="#030C54"/>
<path d="M41.859 176.049H23.854V151.993H41.859V156.393H28.354V161.923H41.375V166.151H28.354V171.581H41.859V176.049Z" fill="#030C54"/>
<path d="M53.302 156.117H45.673V151.993H65.473V156.117H57.84V176.048H53.302V156.117Z" fill="#030C54"/>
<path d="M74.741 156.117H67.112V151.993H86.912V156.117H79.283V176.048H74.745L74.741 156.117Z" fill="#030C54"/>
<path d="M107.905 176.049H89.9V151.993H107.905V156.393H94.4V161.923H107.421V166.151H94.4V171.581H107.905V176.049Z" fill="#030C54"/>
<path d="M133.06 176.049H127.667L120.658 168.007H116.294V176.049H111.757V151.96C115.571 151.96 119.386 151.993 123.2 151.993C128.87 152.026 131.857 155.807 131.857 159.964C131.857 163.264 130.344 166.597 125.774 167.522L133.06 175.733V176.049ZM116.29 156.221V163.921H123.195C123.724 163.959 124.254 163.888 124.754 163.712C125.254 163.536 125.712 163.259 126.1 162.898C126.488 162.537 126.797 162.1 127.009 161.614C127.22 161.128 127.33 160.604 127.33 160.074C127.33 159.544 127.22 159.02 127.009 158.534C126.797 158.048 126.488 157.611 126.1 157.25C125.712 156.889 125.254 156.612 124.754 156.436C124.254 156.26 123.724 156.189 123.195 156.227H116.29V156.221Z" fill="#030C54"/>
<path d="M163.438 158.625L155.603 169.072H154.711L147.049 158.592V176.085H142.511V152.03H147.735L155.26 162.374L162.785 152.03H167.976V176.086H163.438V158.625Z" fill="#030C54"/>
<path d="M190.481 176.049H172.476V151.993H190.481V156.393H176.976V161.923H190.002V166.151H176.976V171.581H190.481V176.049Z" fill="#030C54"/>
<path d="M210.826 151.96H215.364V176.049H212.545V176.082L199.899 159.829V176.049H195.362V151.993H199.04L210.826 166.907V151.96Z" fill="#030C54"/>
<path d="M240.998 163.816C241.098 169.899 237.39 176.048 228.973 176.048H219.521V151.993H228.972C237.221 151.993 240.894 157.869 240.998 163.816ZM224.021 171.685H228.967C234.43 171.685 236.596 167.697 236.492 163.779C236.392 160.035 234.192 156.287 228.967 156.287H224.021V171.685Z" fill="#030C54"/>
<path d="M1.42303 183.226V187.646C1.42303 189.318 2.165 190.028 3.161 190.028C4.27 190.028 4.97903 189.295 4.97903 187.646V183.226H5.95101V187.581C5.95101 189.873 4.74401 190.813 3.12801 190.813C1.60101 190.813 0.446007 189.939 0.446007 187.623V183.223L1.42303 183.226Z" fill="#030C54"/>
<path d="M20.067 183.325C20.678 183.217 21.2976 183.165 21.918 183.17C22.6898 183.091 23.4627 183.31 24.079 183.781C24.2721 183.962 24.4243 184.183 24.5255 184.427C24.6267 184.672 24.6746 184.935 24.666 185.2C24.6716 185.627 24.538 186.044 24.2853 186.388C24.0327 186.732 23.6749 186.984 23.266 187.107V187.14C23.5657 187.272 23.825 187.481 24.0174 187.746C24.2098 188.011 24.3284 188.322 24.361 188.648C24.4914 189.347 24.6849 190.032 24.939 190.696H23.939C23.7178 190.118 23.5504 189.52 23.439 188.911C23.218 187.882 22.819 187.492 21.945 187.459H21.038V190.691H20.075V183.325H20.067ZM21.03 186.725H22.016C23.045 186.725 23.698 186.161 23.698 185.306C23.698 184.343 22.998 183.92 21.979 183.906C21.6585 183.896 21.338 183.926 21.025 183.995V186.73L21.03 186.725Z" fill="#030C54"/>
<path d="M38.472 183.325C39.0531 183.218 39.6431 183.166 40.234 183.17C40.9598 183.102 41.6861 183.295 42.282 183.715C42.485 183.868 42.6476 184.068 42.7556 184.298C42.8637 184.528 42.9139 184.781 42.902 185.035C42.89 185.406 42.7614 185.764 42.5345 186.059C42.3077 186.353 41.994 186.568 41.638 186.674V186.697C42.0701 186.785 42.459 187.019 42.7394 187.359C43.0199 187.7 43.1751 188.126 43.179 188.567C43.1836 188.846 43.1301 189.123 43.0218 189.38C42.9135 189.637 42.7528 189.869 42.55 190.061C41.8052 190.602 40.8874 190.852 39.971 190.761C39.4715 190.766 38.9723 190.736 38.477 190.672V183.325H38.472ZM39.435 186.383H40.309C41.328 186.383 41.925 185.852 41.925 185.133C41.925 184.259 41.258 183.916 40.286 183.916C39.9995 183.909 39.713 183.931 39.431 183.982V186.382L39.435 186.383ZM39.435 189.962C39.7028 189.997 39.973 190.011 40.243 190.004C41.243 190.004 42.16 189.638 42.16 188.552C42.16 187.533 41.286 187.115 40.234 187.115H39.434L39.435 189.962Z" fill="#030C54"/>
<path d="M58.121 188.342L57.346 190.691H56.346L58.883 183.227H60.048L62.594 190.691H61.565L60.765 188.342H58.121ZM60.573 187.59L59.84 185.443C59.676 184.954 59.563 184.513 59.455 184.081H59.432C59.319 184.523 59.202 184.981 59.056 185.434L58.323 187.595H60.573V187.59Z" fill="#030C54"/>
<path d="M76.136 190.69V183.226H77.188L79.576 187.003C80.0755 187.78 80.5228 188.59 80.915 189.427L80.938 189.418C80.849 188.418 80.825 187.511 80.825 186.351V183.226H81.732V190.69H80.76L78.388 186.904C77.8703 186.102 77.4027 185.269 76.988 184.41L76.955 184.419C77.011 185.358 77.03 186.256 77.03 187.496V190.686H76.13L76.136 190.69Z" fill="#030C54"/>
<path d="M110.531 189.516C111.053 189.831 111.65 190 112.26 190.005C113.246 190.005 113.82 189.484 113.82 188.732C113.82 188.032 113.42 187.638 112.42 187.248C111.203 186.816 110.447 186.186 110.447 185.134C110.461 184.839 110.537 184.549 110.668 184.284C110.8 184.019 110.985 183.784 111.211 183.594C111.438 183.404 111.702 183.262 111.985 183.179C112.269 183.096 112.567 183.072 112.861 183.109C113.433 183.089 114 183.215 114.51 183.475L114.242 184.259C113.806 184.024 113.318 183.902 112.823 183.902C111.804 183.902 111.423 184.513 111.423 185.02C111.423 185.72 111.879 186.063 112.907 186.457C114.171 186.946 114.814 187.551 114.814 188.651C114.814 189.802 113.959 190.812 112.202 190.812C111.537 190.818 110.882 190.65 110.302 190.324L110.531 189.516Z" fill="#030C54"/>
<path d="M132.43 187.191H129.53V189.883H132.762V190.691H128.562V183.226H132.592V184.034H129.525V186.392H132.425V187.192L132.43 187.191Z" fill="#030C54"/>
<path d="M146.461 183.325C147.072 183.217 147.692 183.165 148.312 183.17C149.084 183.091 149.857 183.31 150.473 183.781C150.666 183.962 150.818 184.183 150.92 184.427C151.021 184.672 151.069 184.935 151.06 185.2C151.066 185.627 150.932 186.044 150.679 186.388C150.427 186.732 150.069 186.984 149.66 187.107V187.14C149.96 187.272 150.219 187.481 150.411 187.746C150.604 188.011 150.722 188.322 150.755 188.648C150.886 189.347 151.079 190.032 151.333 190.696H150.333C150.112 190.118 149.944 189.52 149.833 188.911C149.612 187.882 149.213 187.492 148.339 187.459H147.432V190.691H146.469V183.325H146.461ZM147.424 186.725H148.41C149.439 186.725 150.092 186.161 150.092 185.306C150.092 184.343 149.392 183.92 148.377 183.906C148.057 183.896 147.736 183.926 147.423 183.995L147.424 186.725Z" fill="#030C54"/>
<path d="M166.679 190.69L164.241 183.226H165.284L166.449 186.904C166.769 187.914 167.049 188.821 167.249 189.694H167.273C167.484 188.83 167.794 187.894 168.128 186.913L169.392 183.226H170.421L167.753 190.69H166.679Z" fill="#030C54"/>
<path d="M184.628 183.226V190.69H183.665V183.226H184.628Z" fill="#030C54"/>
<path d="M203.972 190.446C203.348 190.708 202.675 190.833 201.999 190.812C201.499 190.841 200.998 190.761 200.531 190.58C200.064 190.398 199.642 190.118 199.292 189.76C198.943 189.401 198.675 188.971 198.505 188.499C198.336 188.028 198.27 187.525 198.312 187.026C198.283 186.505 198.363 185.984 198.548 185.496C198.734 185.008 199.02 184.565 199.387 184.195C199.755 183.825 200.197 183.537 200.684 183.349C201.17 183.161 201.691 183.077 202.212 183.104C202.82 183.077 203.426 183.191 203.983 183.438L203.748 184.222C203.275 184.008 202.759 183.902 202.24 183.912C201.837 183.89 201.435 183.956 201.06 184.105C200.686 184.254 200.348 184.483 200.071 184.776C199.794 185.069 199.584 185.418 199.456 185.8C199.327 186.183 199.284 186.588 199.328 186.989C199.286 187.382 199.33 187.78 199.457 188.154C199.584 188.529 199.792 188.871 200.065 189.157C200.339 189.442 200.671 189.665 201.04 189.809C201.408 189.952 201.803 190.014 202.198 189.989C202.739 189.997 203.275 189.891 203.772 189.679L203.972 190.446Z" fill="#030C54"/>
<path d="M221.489 187.191H218.589V189.883H221.821V190.691H217.621V183.226H221.651V184.034H218.584V186.392H221.484V187.192L221.489 187.191Z" fill="#030C54"/>
<path d="M235.385 189.516C235.907 189.831 236.504 190 237.114 190.005C238.1 190.005 238.674 189.484 238.674 188.732C238.674 188.032 238.274 187.638 237.274 187.248C236.057 186.816 235.301 186.186 235.301 185.134C235.315 184.839 235.391 184.549 235.522 184.284C235.654 184.019 235.839 183.784 236.065 183.594C236.292 183.404 236.556 183.262 236.839 183.179C237.123 183.096 237.421 183.072 237.715 183.109C238.287 183.089 238.854 183.215 239.364 183.475L239.096 184.259C238.66 184.024 238.172 183.902 237.677 183.902C236.658 183.902 236.277 184.513 236.277 185.02C236.277 185.72 236.733 186.063 237.761 186.457C239.025 186.946 239.668 187.551 239.668 188.651C239.668 189.802 238.813 190.812 237.056 190.812C236.391 190.818 235.736 190.65 235.156 190.324L235.385 189.516Z" fill="#030C54"/>
</svg>
