<svg width="279" height="262" viewBox="0 0 279 262" fill="none" xmlns="http://www.w3.org/2000/svg">
<path d="M191.309 162.621C191.309 162.621 194.38 161.589 198.483 159.851C204.144 157.453 212.877 154.275 215.931 152.086C221.199 148.311 236.475 136.458 236.475 136.458C236.475 136.458 236.211 126.977 240.952 124.343C245.693 121.709 248.59 120.976 251.751 119.631C254.911 118.285 271.24 125.396 271.24 125.396C271.24 125.396 274.928 128.557 274.138 132.244C273.347 135.932 269.397 145.94 267.553 148.837C265.71 151.734 261.759 155.158 249.644 154.105C249.644 154.105 234.104 174.648 224.359 185.447C214.614 196.245 206.187 202.829 200.656 203.883C195.125 204.937 191.438 204.176 184.326 201.132C177.215 198.089 163.747 188.607 163.747 188.607L191.309 162.621Z" fill="#FFE697"/>
<path d="M243.587 132.244C242.5 125.882 248.212 124.479 251.395 122.585V132.244" fill="#FFAB5F"/>
<path d="M241.918 164.118C246.385 158.412 249.643 154.105 249.643 154.105C252.615 154.363 255.093 154.351 257.172 154.145V144.95L240.161 147.521C237.355 159.09 241.918 164.118 241.918 164.118Z" fill="#FFAB5F"/>
<path d="M261.914 103.228H275.651C277.315 103.228 278.479 104.873 277.925 106.442L268.416 133.402C267.68 135.489 265.708 136.885 263.495 136.885H249.758C248.094 136.885 246.93 135.24 247.484 133.671L256.992 106.711C257.729 104.624 259.701 103.228 261.914 103.228Z" fill="#03007C"/>
<path d="M4.7157 148.955C4.94869 157.763 6.14419 162.545 12.2924 169.377L39.362 172.596V148.955" fill="#03007C"/>
<path d="M80.2602 84.3652C77.065 84.5534 75.231 86.3352 75.231 86.3352L68.9132 96.17C68.9132 96.17 54.8508 97.189 51.5901 98.0043C48.3292 98.8194 41.6038 100.45 35.0822 106.768C28.5606 113.086 4.7157 148.955 4.7157 148.955C4.7157 148.955 27.7452 168.112 39.362 172.596C39.362 172.596 33.9093 210.546 31.7051 261.241H163.952C163.952 261.241 162.85 213.852 160.279 185.566L169.83 195.117C181.588 188.397 191.295 176.998 198.483 159.852C198.483 159.852 167.258 120.912 160.279 113.932C153.299 106.953 148.891 103.647 142.646 102.544C136.401 101.442 113.32 99.9004 113.32 99.9004" fill="white"/>
<path d="M51.2487 108.087H139.861V102.147C131.365 101.106 113.32 99.9006 113.32 99.9006L80.2601 84.3655C77.065 84.5537 75.2309 86.3355 75.2309 86.3355L68.9129 96.1703C68.9129 96.1703 54.8505 97.1892 51.5896 98.0045C51.48 98.0321 51.3657 98.0605 51.2484 98.0899V108.087H51.2487Z" fill="#03007C"/>
<path d="M163.952 261.241C163.952 261.241 162.85 213.852 160.278 185.566L169.829 195.117C181.587 188.397 191.295 176.998 198.483 159.852C198.483 159.852 167.258 120.912 160.278 113.932C153.298 106.953 148.89 103.647 142.645 102.544C136.4 101.442 113.32 99.9003 113.32 99.9003L109.654 98.1777L107.207 99.2305L114.463 109.946C118.037 167.134 117.016 261.241 117.016 261.241L163.952 261.241Z" fill="#36DBD0"/>
<path d="M112.506 93.5647C115.662 95.3841 118.101 96.8023 118.101 96.8023L114.463 109.946H103.52V91.6409L112.506 93.5647Z" fill="#36DBD0"/>
<path d="M78.8084 58.8525C82.5325 70.6578 80.7493 90.7016 76.452 99.4405C76.452 99.4405 89.8098 124.277 103.519 124.277C117.229 124.277 114.761 108.322 113.319 99.9004C111.878 91.4787 111.02 72.08 111.02 72.08" fill="#FFE697"/>
<path d="M113.32 99.9002C111.878 91.4788 111.02 72.0798 111.02 72.0798H90.7575L90.7327 73.1937C90.0907 86.2602 97.3378 98.7735 113.437 100.59C113.397 100.356 113.358 100.124 113.32 99.9002Z" fill="#FFAB5F"/>
<path d="M80.2363 61.914C84.039 69.6348 90.7661 81.9208 100.243 87.3611C109.72 92.8015 119.548 93.3281 124.988 87.3611C130.429 81.3941 137.8 61.563 131.131 48.4006C131.131 48.4006 133.412 36.6423 131.131 24.8839C128.849 13.1255 117.091 1.89374 93.7495 7.5095C70.4081 13.1253 68.6536 38.3973 80.2363 61.914Z" fill="#FFE697"/>
<path d="M130.497 42.4763C126.938 41.3529 123.975 43.3805 123.975 43.3805L123.217 41.1861C124.19 40.1478 129.904 38.7543 130.497 42.4763Z" fill="#03007C"/>
<path d="M114.456 53.036C115.166 53.036 115.742 52.0945 115.742 50.933C115.742 49.7716 115.166 48.8301 114.456 48.8301C113.746 48.8301 113.17 49.7716 113.17 50.933C113.17 52.0945 113.746 53.036 114.456 53.036Z" fill="#03007C"/>
<path d="M127.397 50.933C127.397 52.0945 126.821 53.036 126.111 53.036C125.401 53.036 124.825 52.0945 124.825 50.933C124.825 49.7716 125.401 48.8301 126.111 48.8301C126.821 48.8301 127.397 49.7716 127.397 50.933Z" fill="#03007C"/>
<path d="M107.559 43.869C112.734 41.4915 116.774 43.3804 116.774 43.3804L117.574 41.186C116.061 39.9364 108.421 39.2071 107.559 43.869Z" fill="#03007C"/>
<path d="M119.183 64.8081C122.21 63.3985 124.672 61.6024 127.396 62.0614C126.462 63.3012 124.901 64.8081 124.901 64.8081H119.183Z" fill="#FFAB5F"/>
<path d="M111.682 70.7328C111.399 69.5959 111.345 68.7852 111.345 68.7852C111.345 68.7852 115.946 70.7869 121.35 70.7328C126.754 70.6787 128.417 69.3589 128.417 69.3589L127.511 71.6438L124.043 74.3508H116.532" fill="white"/>
<path d="M127.512 71.6441C122.34 73.5003 116.479 73.1631 111.682 70.7332C112.424 73.4056 113.767 75.8953 116.096 77.3711C119.183 79.3269 122.859 79.0009 125.852 76.2813L127.512 71.6441Z" fill="#FF6136"/>
<path d="M118.307 21.1564C124.386 49.6189 139.861 43.2632 139.861 43.2632C139.861 43.2632 136.545 42.5262 135.992 37.7365C135.44 32.9468 141.519 21.8932 137.282 12.1294C133.045 2.3655 117.754 0.154785 109.222 0.154785C100.69 0.154785 92.1472 2.18124 90.8826 8.33622" fill="#03007C"/>
<path d="M108.181 6.12089C95.1079 4.71783 90.881 8.33673 90.881 8.33673C90.881 8.33673 87.1716 2.30373 76.1183 6.0192C65.0649 9.7349 60.6435 27.2359 61.7487 41.0527C62.6847 52.753 71.2169 64.0365 80.661 69.6327L87.3556 66.4756C87.3556 66.4756 81.4649 64.3582 78.8078 58.853L90.732 51.9221L94.7245 51.5536C94.9088 45.8427 96.5667 40.5002 96.5667 40.5002C100.067 41.053 110.568 41.6054 116.463 30.3679C122.358 19.13 121.253 7.52396 108.181 6.12089Z" fill="#03007C"/>
<path d="M90.7327 51.9218C90.7327 51.9218 90.3026 40.1317 82.1981 41.9737C74.0937 43.8157 76.1514 53.347 78.8085 58.8524C81.4656 64.3579 87.3565 66.4753 87.3565 66.4753" fill="#FFE697"/>
<path d="M93.8433 100.59L75.2312 86.3352L68.9132 96.17C68.9132 96.17 54.851 97.1889 51.5901 98.0043C48.3292 98.8194 41.6038 100.45 35.0822 106.768C28.5608 113.086 4.7157 148.955 4.7157 148.955C4.7157 148.955 32.0678 170.113 43.6844 174.597L38.1726 186.748C38.1726 186.748 33.1077 228.982 31.7051 261.241H90.7335C97.0888 208.039 101.232 148.503 93.8433 100.59Z" fill="#36DBD0"/>
<path d="M93.8431 100.59L90.1274 97.7444L83.5932 97.3057V107.829L84.1499 116.499L95.4563 112.877C94.9936 108.709 94.4623 104.606 93.8431 100.59Z" fill="#03007C"/>
<path d="M63.2134 147.055L48.9113 176.72C48.9113 176.72 45.7714 175.762 43.6829 174.596L38.1712 186.747C38.1712 186.747 33.1387 228.233 31.7037 261.24H54.4827C57.2973 208.082 63.2134 147.055 63.2134 147.055Z" fill="#06CCB9"/>
<path d="M43.6837 174.597C36.8265 171.95 24.4879 163.494 15.527 157.008L12.191 154.925C12.191 154.925 5.44034 164.006 2.3569 174.098C-0.726995 184.19 -1.56799 195.684 4.71502 210.261C10.998 224.839 31.7047 261.241 31.7047 261.241H61.7885L38.1719 186.748L43.6837 174.597Z" fill="#FFE697"/>
<path d="M38.1727 186.748C30.902 182.438 21.0234 186.132 21.0234 186.132C21.0234 186.132 23.2733 177.019 40.747 181.072L38.1727 186.748Z" fill="#FFAB5F"/>
<path d="M182.629 185.043C169.695 169.177 156.76 148.954 156.76 148.954C156.76 148.954 158.822 163.334 160.278 185.566L169.829 195.117C174.418 192.494 178.693 189.155 182.629 185.043Z" fill="#06CCB9"/>
<path d="M84.1491 116.499L93.8425 100.59L75.2302 86.3352L68.9124 96.17L84.1491 116.499Z" fill="#36DBD0"/>
<path d="M118.102 96.8022L126.255 116.499L114.463 109.946L118.102 96.8022Z" fill="#03007C"/>
<path d="M267.553 148.837C269.397 145.94 273.347 135.932 274.138 132.244C274.928 128.557 271.241 125.396 271.241 125.396C269.134 129.874 266.763 129.874 261.496 129.084C256.228 128.294 254.648 128.367 250.697 127.409C246.747 126.45 244.376 129.611 243.586 132.244C242.796 134.878 240.689 144.886 240.162 147.52C239.635 150.154 242.288 154.049 249.644 154.105C250.153 154.108 250.717 154.15 251.323 154.223C262.127 154.828 265.798 151.596 267.553 148.837Z" fill="#FFE697"/>
<path d="M273.876 109.095C273.638 110.139 272.658 110.985 271.687 110.985C270.715 110.985 270.12 110.139 270.358 109.095C270.596 108.052 271.576 107.206 272.548 107.206C273.519 107.206 274.114 108.052 273.876 109.095Z" fill="white"/>
<path d="M125.813 143.209C126.582 142.44 126.582 141.194 125.813 140.425C125.044 139.656 123.798 139.656 123.029 140.425C122.261 141.194 122.261 142.44 123.029 143.209C123.798 143.977 125.044 143.977 125.813 143.209Z" fill="white"/>
<path d="M126.764 175.806C127.014 174.748 126.359 173.688 125.301 173.438C124.243 173.188 123.183 173.843 122.933 174.901C122.683 175.959 123.338 177.019 124.396 177.269C125.454 177.519 126.514 176.864 126.764 175.806Z" fill="white"/>
<path d="M126.064 210.638C127.068 210.222 127.545 209.071 127.129 208.066C126.713 207.062 125.562 206.585 124.557 207.001C123.553 207.417 123.076 208.569 123.492 209.573C123.908 210.577 125.059 211.054 126.064 210.638Z" fill="white"/>
<path d="M89.8226 208.813H87.7567" stroke="#03007C" stroke-width="5.5573" stroke-miterlimit="10" stroke-linecap="round" stroke-linejoin="round"/>
<path d="M91.8886 175.315H89.8228" stroke="#03007C" stroke-width="5.5573" stroke-miterlimit="10" stroke-linecap="round" stroke-linejoin="round"/>
<path d="M126.501 244.136C127.505 243.72 127.983 242.569 127.566 241.564C127.15 240.56 125.999 240.083 124.994 240.499C123.99 240.915 123.513 242.067 123.929 243.071C124.345 244.075 125.496 244.552 126.501 244.136Z" fill="white"/>
<path d="M87.2748 242.31H85.2089" stroke="#03007C" stroke-width="5.5573" stroke-miterlimit="10" stroke-linecap="round" stroke-linejoin="round"/>
<path d="M92.139 141.818H90.0729" stroke="#03007C" stroke-width="5.5573" stroke-miterlimit="10" stroke-linecap="round" stroke-linejoin="round"/>
<path d="M87.622 51.4776C87.5961 50.25 87.4477 48.9392 86.7854 47.7985C86.1004 46.6189 84.8398 45.7138 83.2971 45.7117C82.5557 45.7107 81.7858 45.9622 81.1566 46.3815C83.5814 47.2517 85.7681 49.064 87.622 51.4776Z" fill="#03007C"/>
</svg>
