<svg width="41" height="40" viewBox="0 0 41 40" fill="none" xmlns="http://www.w3.org/2000/svg">
<path d="M20.4291 39.8288C31.2759 39.8288 40.0691 31.0357 40.0691 20.1888C40.0691 9.34196 31.2759 0.548828 20.4291 0.548828C9.58219 0.548828 0.789062 9.34196 0.789062 20.1888C0.789062 31.0357 9.58219 39.8288 20.4291 39.8288Z" fill="#182128"/>
<path d="M14.3991 12.9697C13.6631 12.9985 12.9616 13.2893 12.4211 13.7897L12.3581 13.3607C12.3512 13.3051 12.3241 13.2539 12.2818 13.217C12.2396 13.1801 12.1852 13.1601 12.1291 13.1607H11.5291C11.4761 13.1607 11.4252 13.1818 11.3877 13.2193C11.3502 13.2568 11.3291 13.3077 11.3291 13.3607V21.5437C11.3291 21.5968 11.3502 21.6476 11.3877 21.6852C11.4252 21.7227 11.4761 21.7437 11.5291 21.7437H12.3141C12.3671 21.7437 12.418 21.7227 12.4555 21.6852C12.493 21.6476 12.5141 21.5968 12.5141 21.5437V18.7187C13.02 19.1706 13.6748 19.4198 14.3531 19.4187C15.9981 19.4187 16.9711 17.9947 16.9711 16.2187C16.9691 14.5637 16.3291 12.9697 14.3991 12.9697ZM15.1851 18.0417C15.0299 18.185 14.8457 18.2933 14.6452 18.3596C14.4446 18.4258 14.2321 18.4484 14.0221 18.4257C13.4735 18.3863 12.9483 18.1875 12.5111 17.8537V14.5037C12.9611 14.1589 13.5084 13.9651 14.0751 13.9497C15.3751 13.9497 15.7301 14.9727 15.7301 16.1437C15.8015 16.8231 15.6061 17.5037 15.1851 18.0417Z" fill="#F7F7F7"/>
<path d="M22.8148 19.0537C22.8148 19.1068 22.7938 19.1576 22.7562 19.1952C22.7187 19.2327 22.6679 19.2537 22.6148 19.2537H22.0288C21.9727 19.2544 21.9184 19.2344 21.8761 19.1975C21.8339 19.1606 21.8067 19.1094 21.7998 19.0537L21.7408 18.6537C21.4543 18.8941 21.1303 19.0859 20.7818 19.2217C20.4391 19.3741 20.0656 19.4444 19.691 19.4271C19.3164 19.4097 18.9509 19.3052 18.6238 19.1217C18.3839 18.9572 18.1896 18.7345 18.0591 18.4744C17.9286 18.2144 17.8663 17.9255 17.8778 17.6347C17.8649 17.1694 18.0306 16.7168 18.3408 16.3697C18.5738 16.1364 18.8534 15.9549 19.1613 15.8371C19.4693 15.7192 19.7986 15.6676 20.1278 15.6857C20.6553 15.6801 21.1809 15.7495 21.6888 15.8917V15.0917C21.6888 14.2747 21.3448 13.9217 20.4388 13.9217C19.7712 13.9245 19.1087 14.0374 18.4778 14.2557C18.4518 14.2569 18.4259 14.2524 18.4018 14.2426C18.3777 14.2328 18.356 14.2179 18.3382 14.1988C18.3204 14.1798 18.307 14.1572 18.2988 14.1325C18.2906 14.1078 18.2879 14.0816 18.2908 14.0557V13.5977C18.2955 13.541 18.317 13.487 18.3527 13.4426C18.3883 13.3982 18.4364 13.3655 18.4908 13.3487C19.1501 13.0931 19.8498 12.9576 20.5568 12.9487C21.5908 12.9487 22.8198 13.1817 22.8198 14.7727V19.0527L22.8148 19.0537ZM21.6878 17.8817V16.6697C21.261 16.5737 20.8253 16.5228 20.3878 16.5177C20.0034 16.4901 19.6231 16.6115 19.3258 16.8567C19.1599 17.0464 19.0716 17.2918 19.0788 17.5437C19.0676 17.6986 19.0959 17.8537 19.1609 17.9947C19.226 18.1356 19.3257 18.2578 19.4508 18.3497C19.6383 18.442 19.8428 18.4945 20.0516 18.504C20.2603 18.5134 20.4688 18.4796 20.6638 18.4047C21.0394 18.3076 21.389 18.129 21.6878 17.8817Z" fill="#F7F7F7"/>
<path d="M24.0209 21.5359V21.1049C24.0209 20.9819 24.0809 20.8979 24.2089 20.9049C24.4787 20.9527 24.7542 20.9592 25.0259 20.9239C25.1778 20.8881 25.3184 20.8155 25.4355 20.7124C25.5525 20.6093 25.6423 20.479 25.6969 20.3329C25.8839 19.9049 26.0079 19.5589 26.0859 19.3329L23.7079 13.4409C23.6679 13.3409 23.6559 13.1549 23.8559 13.1549H24.6869C24.7464 13.1535 24.8044 13.1727 24.8514 13.2091C24.8984 13.2455 24.9314 13.297 24.9449 13.3549L26.6689 18.1399L28.3149 13.3549C28.3285 13.297 28.3615 13.2455 28.4085 13.2091C28.4554 13.1727 28.5135 13.1535 28.5729 13.1549H29.3569C29.5569 13.1549 29.5439 13.3399 29.5049 13.4409L27.1459 19.5159C26.8409 20.3239 26.4339 21.6158 25.5179 21.8358C25.0617 21.9487 24.5823 21.9258 24.1389 21.7698C24.1008 21.7443 24.0699 21.7093 24.0493 21.6683C24.0286 21.6273 24.0188 21.5817 24.0209 21.5359Z" fill="#F7F7F7"/>
<path d="M31.8241 21.3837C30.9493 21.3722 30.09 21.6154 29.3511 22.0837C29.1291 22.2377 29.1681 22.4517 29.4151 22.4237C30.2251 22.3237 32.0271 22.1077 32.3501 22.5237C32.6731 22.9397 31.9931 24.6347 31.6921 25.3937C31.5991 25.6207 31.7921 25.7137 32.0031 25.5417C33.3501 24.4127 33.7031 22.0467 33.4251 21.7067C32.9369 21.4379 32.3782 21.3252 31.8241 21.3837Z" fill="#F0931B"/>
<path d="M7.65418 22.2668C7.46618 22.2928 7.38518 22.5308 7.58218 22.7198C11.0759 25.8811 15.6565 27.5694 20.3662 27.4318C24.1138 27.4382 27.7703 26.2767 30.8272 24.1088C31.2952 23.7478 30.8962 23.2088 30.4172 23.4208C26.8217 24.9584 22.9238 25.6584 19.018 25.4679C15.1122 25.2773 11.3008 24.2011 7.87218 22.3208C7.80789 22.2782 7.73089 22.2592 7.65418 22.2668Z" fill="#F0931B"/>
</svg>
