<svg width="39" height="37" viewBox="0 0 39 37" fill="none" xmlns="http://www.w3.org/2000/svg">
<path d="M35.813 15.332V12.68H38.068V7.71502L19.034 0.541016L0 7.71502V12.678H2.255V15.33H4.293V28.399H2.255V31.052H0V36.043H38.069V31.052H35.813V28.399H33.776V15.332H35.813ZM34.544 14.063H28.058V12.68H34.545L34.544 14.063ZM26.789 28.399V31.052H23.547V28.399H21.509V15.332H23.547V12.68H26.789V15.332H28.827V28.399H26.789ZM11.28 15.332V12.68H14.522V15.332H16.56V28.399H14.522V31.052H11.28V28.399H9.242V15.332H11.28ZM17.829 28.399V15.332H20.24V28.399H17.829ZM15.791 14.063V12.68H22.278V14.063H15.791ZM15.791 29.663H22.278V31.047H15.791V29.663ZM1.269 8.59502L19.034 1.89502L36.8 8.59502V11.415H1.269V8.59502ZM3.524 12.681H10.011V14.064H3.524V12.681ZM5.562 15.333H7.973V28.399H5.562V15.332V15.333ZM3.524 29.668H10.011V31.052H3.524V29.668ZM36.8 34.774H1.269V32.32H36.8V34.774ZM34.545 31.052H28.058V29.668H34.545V31.052ZM32.507 28.4H30.1V15.332H32.511V28.399L32.507 28.4Z" fill="black"/>
</svg>
