<svg width="21" height="21" viewBox="0 0 21 21" fill="none" xmlns="http://www.w3.org/2000/svg">
<path d="M8.33503 3.10199C8.18168 2.61636 8.20027 2.09273 8.38768 1.6192C8.57509 1.14567 8.91988 0.751145 9.36404 0.501995C9.72909 0.265157 10.1587 0.147563 10.5935 0.165477C11.0282 0.183391 11.4467 0.33592 11.791 0.601985C12.1838 0.869092 12.4801 1.25559 12.6361 1.70423C12.7921 2.15288 12.7994 2.63983 12.657 3.09298C12.689 3.10598 12.725 3.12698 12.765 3.13998C13.6483 3.47478 14.3781 4.122 14.816 4.95898C15.5761 6.38503 15.8837 8.00876 15.698 9.61399C15.635 10.377 15.587 11.146 15.566 11.914C15.5404 12.4694 15.6448 13.0231 15.871 13.531C16.1263 14.0581 16.5182 14.507 17.006 14.831C17.317 15.05 17.643 15.25 17.964 15.455C18.2088 15.6047 18.4029 15.8246 18.5211 16.086C18.6393 16.3474 18.6762 16.6383 18.627 16.921C18.576 17.2058 18.4389 17.468 18.2342 17.6724C18.0294 17.8768 17.7669 18.0135 17.482 18.064C17.3743 18.0814 17.2651 18.0885 17.156 18.085H12.838C12.783 18.085 12.725 18.09 12.675 18.093C12.8049 18.5613 12.7752 19.0594 12.5907 19.509C12.4062 19.9585 12.0774 20.3339 11.656 20.576C11.2915 20.8217 10.8587 20.9464 10.4193 20.9322C9.97982 20.918 9.55601 20.7657 9.20804 20.497C8.82383 20.2412 8.53049 19.8704 8.37007 19.4376C8.20964 19.0048 8.19037 18.5324 8.31503 18.088H8.17004C6.70104 18.088 5.23204 18.088 3.76004 18.088C3.44629 18.0882 3.14131 17.9845 2.89273 17.7931C2.64415 17.6016 2.46596 17.3333 2.386 17.0299C2.30604 16.7265 2.32881 16.4052 2.45076 16.1161C2.5727 15.827 2.78695 15.5864 3.06004 15.432C3.46004 15.177 3.86803 14.919 4.24203 14.626C4.60412 14.3413 4.89761 13.9789 5.10081 13.5656C5.30402 13.1523 5.41174 12.6986 5.41603 12.238C5.44199 11.4572 5.40857 10.6757 5.31604 9.89999C5.18463 8.82633 5.24421 7.73789 5.49203 6.68499C5.70538 5.69902 6.17599 4.78711 6.85603 4.04199C7.24333 3.63167 7.72344 3.32028 8.25604 3.13398C8.28144 3.12114 8.30786 3.11044 8.33503 3.10199ZM10.486 17.127H17.16C17.2726 17.1414 17.3865 17.1143 17.4806 17.0508C17.5746 16.9873 17.6423 16.8918 17.671 16.782C17.6952 16.6745 17.6817 16.562 17.6327 16.4633C17.5837 16.3646 17.5023 16.2857 17.402 16.24C17.002 15.977 16.588 15.719 16.209 15.424C15.7374 15.0685 15.3506 14.6128 15.0765 14.0896C14.8024 13.5665 14.6479 12.9891 14.624 12.399C14.5829 11.5797 14.6076 10.7584 14.698 9.94299C14.7879 9.2063 14.7923 8.46169 14.711 7.72399C14.6205 6.83051 14.323 5.97041 13.842 5.21199C13.6387 4.86603 13.3592 4.57095 13.0248 4.34916C12.6904 4.12737 12.3098 3.9847 11.912 3.93199C11.8236 3.92308 11.7392 3.89077 11.6674 3.83839C11.5956 3.78601 11.5391 3.71544 11.5036 3.63395C11.4682 3.55246 11.4551 3.46299 11.4657 3.37477C11.4763 3.28654 11.5103 3.20274 11.564 3.13198C11.7398 2.88064 11.8115 2.57101 11.764 2.26799C11.7308 2.01434 11.6226 1.77638 11.4534 1.58453C11.2842 1.39268 11.0616 1.25566 10.814 1.19099C10.5665 1.12611 10.3051 1.13739 10.0641 1.22338C9.82309 1.30937 9.61361 1.46607 9.46304 1.67298C9.30606 1.87623 9.21704 2.12373 9.2086 2.3804C9.20016 2.63707 9.27273 2.88988 9.41603 3.10299C9.47628 3.17624 9.51487 3.26486 9.52745 3.35887C9.54002 3.45288 9.52608 3.54853 9.4872 3.63504C9.44831 3.72154 9.38603 3.79546 9.30737 3.84846C9.22871 3.90146 9.13681 3.93144 9.04204 3.93499C8.62123 3.98836 8.22419 4.16 7.89703 4.42999C7.23353 4.97164 6.75364 5.70511 6.52304 6.52999C6.2243 7.54309 6.13749 8.60687 6.26803 9.65499C6.38303 10.5836 6.4165 11.5205 6.36804 12.455C6.33855 12.9888 6.20187 13.5112 5.96615 13.9911C5.73044 14.4709 5.4005 14.8984 4.99603 15.248C4.56775 15.6177 4.10574 15.9465 3.61604 16.23C3.52053 16.2821 3.43785 16.3549 3.37404 16.443C3.33203 16.5141 3.31034 16.5954 3.31135 16.6779C3.31237 16.7605 3.33605 16.8412 3.37979 16.9113C3.42353 16.9813 3.48566 17.038 3.55941 17.0752C3.63317 17.1123 3.71571 17.1285 3.79803 17.122C6.0287 17.1287 8.25804 17.13 10.486 17.126V17.127ZM9.23803 18.838C9.27584 19.1451 9.42467 19.4278 9.65648 19.6329C9.88828 19.8379 10.1871 19.9511 10.4965 19.9511C10.806 19.9511 11.1048 19.8379 11.3366 19.6329C11.5684 19.4278 11.7172 19.1451 11.755 18.838H9.23803Z" fill="#4A4B4D"/>
<path d="M20.861 8.53001C20.8646 9.25525 20.7251 9.97407 20.4506 10.6453C20.176 11.3166 19.7718 11.9271 19.261 12.442C19.2289 12.4801 19.1893 12.5112 19.1446 12.5334C19.0999 12.5555 19.0512 12.5682 19.0014 12.5707C18.9516 12.5731 18.9018 12.5653 18.8552 12.5477C18.8085 12.5301 18.766 12.503 18.7303 12.4682C18.6946 12.4335 18.6664 12.3917 18.6475 12.3456C18.6286 12.2995 18.6195 12.2499 18.6206 12.2001C18.6217 12.1502 18.633 12.1012 18.6539 12.0559C18.6748 12.0106 18.7048 11.9701 18.742 11.937C19.1948 11.4874 19.5504 10.9496 19.787 10.357C20.2516 9.21843 20.2602 7.94474 19.811 6.8C19.5753 6.18391 19.2128 5.62416 18.747 5.15699C18.7072 5.12458 18.6747 5.08408 18.6516 5.03816C18.6286 4.99224 18.6155 4.94194 18.6134 4.89061C18.6112 4.83928 18.62 4.78809 18.6391 4.7404C18.6582 4.69271 18.6872 4.64961 18.7242 4.61397C18.7612 4.57832 18.8053 4.55093 18.8537 4.53361C18.9021 4.5163 18.9536 4.50946 19.0048 4.51353C19.0561 4.5176 19.1058 4.53247 19.1508 4.5572C19.1959 4.58194 19.2351 4.61595 19.266 4.65699C20.2883 5.68666 20.8618 7.07902 20.861 8.53001Z" fill="#4A4B4D"/>
<path d="M0.138935 8.27504C0.190616 6.91066 0.760265 5.61723 1.73194 4.65803C1.7655 4.61576 1.80809 4.58153 1.85659 4.55785C1.90509 4.53416 1.95827 4.52161 2.01224 4.52113C2.06622 4.52065 2.11962 4.53224 2.16854 4.55507C2.21745 4.57789 2.26064 4.61136 2.29494 4.65303C2.35658 4.72391 2.3876 4.81633 2.38123 4.91005C2.37486 5.00377 2.33161 5.09114 2.26094 5.15303C1.96684 5.44865 1.71359 5.78228 1.50794 6.14503C1.14115 6.77733 0.923892 7.48515 0.872761 8.21434C0.821629 8.94352 0.937985 9.67474 1.21294 10.352C1.44737 10.9448 1.79945 11.484 2.24794 11.937C2.28809 11.9696 2.32077 12.0104 2.34377 12.0567C2.36677 12.1031 2.37955 12.1538 2.38126 12.2054C2.38297 12.2571 2.37355 12.3086 2.35366 12.3563C2.33376 12.404 2.30384 12.4469 2.26593 12.482C2.22879 12.5164 2.18495 12.5426 2.13717 12.5592C2.08938 12.5758 2.03869 12.5823 1.98827 12.5784C1.93785 12.5744 1.88878 12.5601 1.84415 12.5363C1.79952 12.5125 1.76031 12.4797 1.72895 12.44C1.19766 11.8883 0.783047 11.235 0.509861 10.5194C0.236675 9.80381 0.110513 9.04049 0.138935 8.27504Z" fill="#4A4B4D"/>
<path d="M19.132 8.65302C19.1111 9.60863 18.7258 10.5201 18.055 11.201C18.0243 11.2441 17.9847 11.2801 17.9389 11.3064C17.8931 11.3328 17.8421 11.3489 17.7894 11.3538C17.7368 11.3586 17.6837 11.352 17.6338 11.3344C17.5839 11.3168 17.5385 11.2886 17.5005 11.2518C17.4625 11.215 17.433 11.1705 17.4138 11.1212C17.3947 11.0719 17.3864 11.019 17.3896 10.9662C17.3928 10.9134 17.4073 10.8619 17.4322 10.8153C17.4572 10.7687 17.4919 10.728 17.534 10.696C18.0849 10.1301 18.3976 9.37432 18.4075 8.58459C18.4173 7.79487 18.1236 7.03147 17.587 6.452C17.555 6.415 17.521 6.38099 17.492 6.34399C17.4276 6.27621 17.3923 6.18587 17.3938 6.09238C17.3953 5.99888 17.4334 5.90968 17.5 5.84399C17.5317 5.80836 17.5706 5.77984 17.6141 5.76031C17.6576 5.74079 17.7048 5.73071 17.7525 5.73071C17.8002 5.73071 17.8473 5.74079 17.8909 5.76031C17.9344 5.77984 17.9733 5.80836 18.005 5.84399C18.2407 6.10802 18.4547 6.39061 18.645 6.689C18.9888 7.28483 19.1576 7.96557 19.132 8.65302Z" fill="#4A4B4D"/>
<path d="M1.86404 8.48603C1.87549 7.5197 2.257 6.59455 2.93004 5.90104C2.97659 5.83648 3.04248 5.7884 3.11816 5.76377C3.19385 5.73915 3.27541 5.73922 3.35104 5.76402C3.41129 5.78262 3.46554 5.81685 3.50827 5.86323C3.551 5.90961 3.58067 5.96649 3.59428 6.02806C3.6079 6.08963 3.60497 6.15372 3.58578 6.21379C3.56659 6.27385 3.53183 6.32776 3.48505 6.37004C3.23844 6.6259 3.0339 6.91919 2.87904 7.23902C2.61744 7.80096 2.5303 8.4284 2.62887 9.04036C2.72745 9.65231 3.00721 10.2207 3.43204 10.672C3.50677 10.75 3.56196 10.8446 3.59305 10.948C3.60729 11.0221 3.59569 11.0989 3.56021 11.1655C3.52473 11.2321 3.46749 11.2845 3.39804 11.314C3.32844 11.348 3.24986 11.3589 3.17364 11.3453C3.09742 11.3316 3.02752 11.294 2.97404 11.238C2.65514 10.9211 2.39718 10.5482 2.21304 10.138C1.97644 9.61981 1.85727 9.05569 1.86404 8.48603Z" fill="#4A4B4D"/>
</svg>
