<svg width="54" height="57" viewBox="0 0 54 57" fill="none" xmlns="http://www.w3.org/2000/svg">
<path d="M45.4363 13.7862C47.9103 15.1376 49.9834 17.1185 51.4459 19.5285C52.9084 21.9386 53.7082 24.6922 53.7646 27.5106C53.821 30.3291 53.1318 33.1125 51.7669 35.5791C50.402 38.0457 48.4097 40.1079 45.9917 41.5572L25.4347 53.8731C23.0295 55.3146 20.2877 56.0988 17.4841 56.1471C14.6804 56.1955 11.9132 55.5063 9.4597 54.1487C7.00619 52.791 4.95248 50.8125 3.50428 48.4113C2.05608 46.0101 1.26422 43.2706 1.20802 40.467L0.732021 16.667C0.67519 13.8631 1.35622 11.0934 2.70689 8.63559C4.05755 6.17773 6.03042 4.11798 8.42781 2.66271C10.8252 1.20743 13.563 0.40773 16.3667 0.343732C19.1705 0.279734 21.9419 0.953684 24.4032 2.29806L45.4363 13.7862Z" fill="white"/>
</svg>
