<svg width="37" height="32" viewBox="0 0 37 32" fill="none" xmlns="http://www.w3.org/2000/svg">
<path d="M36.2588 18.4467V16.5467C36.2588 15.9855 36.0359 15.4473 35.6391 15.0504C35.2422 14.6536 34.704 14.4307 34.1428 14.4307H12.4148C11.8536 14.4307 11.3154 14.6536 10.9186 15.0504C10.5218 15.4473 10.2988 15.9855 10.2988 16.5467V18.4467H36.2588Z" fill="#4A4B4D"/>
<path d="M10.2988 22.1431V29.3511C10.2988 29.9123 10.5218 30.4505 10.9186 30.8473C11.3154 31.2441 11.8536 31.4671 12.4148 31.4671H34.1438C34.705 31.4671 35.2432 31.2441 35.6401 30.8473C36.0369 30.4505 36.2598 29.9123 36.2598 29.3511V22.1431H10.2988ZM24.5358 27.1721H13.1718C13.0115 27.1721 12.8578 27.1084 12.7444 26.995C12.631 26.8816 12.5673 26.7279 12.5673 26.5676C12.5673 26.4072 12.631 26.2535 12.7444 26.1401C12.8578 26.0268 13.0115 25.9631 13.1718 25.9631H24.5358C24.6962 25.9631 24.8499 26.0268 24.9633 26.1401C25.0766 26.2535 25.1403 26.4072 25.1403 26.5676C25.1403 26.7279 25.0766 26.8816 24.9633 26.995C24.8499 27.1084 24.6962 27.1721 24.5358 27.1721ZM33.3868 27.1721H30.8728C30.7125 27.1721 30.5587 27.1084 30.4454 26.995C30.332 26.8816 30.2683 26.7279 30.2683 26.5676C30.2683 26.4072 30.332 26.2535 30.4454 26.1401C30.5587 26.0268 30.7125 25.9631 30.8728 25.9631H33.3868C33.5471 25.9631 33.7009 26.0268 33.8143 26.1401C33.9276 26.2535 33.9913 26.4072 33.9913 26.5676C33.9913 26.7279 33.9276 26.8816 33.8143 26.995C33.7009 27.1084 33.5471 27.1721 33.3868 27.1721Z" fill="#4A4B4D"/>
<path d="M1.30503 16.7569L23.43 3.17486L22.437 1.55786C22.292 1.32065 22.1016 1.11437 21.8767 0.95079C21.6518 0.787213 21.397 0.669555 21.1266 0.604545C20.8563 0.539535 20.5758 0.528446 20.3011 0.571912C20.0265 0.615378 19.7631 0.712545 19.526 0.857862L1.00903 12.2299C0.771826 12.3749 0.565537 12.5653 0.40196 12.7902C0.238384 13.015 0.120727 13.2699 0.0557171 13.5403C-0.00929308 13.8106 -0.0203823 14.0911 0.0230835 14.3658C0.0665493 14.6404 0.163718 14.9038 0.309034 15.1409L1.30503 16.7569Z" fill="#4A4B4D"/>
<path d="M3.24414 19.9081L7.01514 26.0501C7.22924 26.3982 7.53966 26.6768 7.90881 26.8521C8.27797 27.0275 8.69004 27.0921 9.09514 27.0381V16.5491C9.09514 16.4681 9.10114 16.3891 9.10714 16.3091L3.24414 19.9081Z" fill="#4A4B4D"/>
<path d="M29.135 12.4667L25.364 6.32471L14.127 13.2247H29.417C29.373 12.9562 29.2772 12.6987 29.135 12.4667ZM25.546 10.9047L23.404 12.2197C23.2674 12.3037 23.103 12.3299 22.9471 12.2927C22.7912 12.2554 22.6564 12.1578 22.5725 12.0212C22.4885 11.8846 22.4623 11.7203 22.4995 11.5643C22.5367 11.4084 22.6344 11.2736 22.771 11.1897L24.913 9.87471C25.0495 9.79077 25.2139 9.76452 25.3698 9.80175C25.5258 9.83898 25.6605 9.93662 25.7445 10.0732C25.8284 10.2098 25.8546 10.3741 25.8174 10.5301C25.7802 10.686 25.6825 10.8208 25.546 10.9047Z" fill="#4A4B4D"/>
</svg>
