<svg width="15" height="15" viewBox="0 0 15 15" fill="none" xmlns="http://www.w3.org/2000/svg">
<path d="M5.71411 0.5H1.71411C1.16183 0.5 0.714111 0.947715 0.714111 1.5V5.5C0.714111 6.05228 1.16183 6.5 1.71411 6.5H5.71411C6.2664 6.5 6.71411 6.05228 6.71411 5.5V1.5C6.71411 0.947715 6.2664 0.5 5.71411 0.5Z" fill="#B6B7B7"/>
<path d="M5.71411 8.5H1.71411C1.16183 8.5 0.714111 8.94772 0.714111 9.5V13.5C0.714111 14.0523 1.16183 14.5 1.71411 14.5H5.71411C6.2664 14.5 6.71411 14.0523 6.71411 13.5V9.5C6.71411 8.94772 6.2664 8.5 5.71411 8.5Z" fill="#B6B7B7"/>
<path d="M13.7141 0.5H9.71411C9.16183 0.5 8.71411 0.947715 8.71411 1.5V5.5C8.71411 6.05228 9.16183 6.5 9.71411 6.5H13.7141C14.2664 6.5 14.7141 6.05228 14.7141 5.5V1.5C14.7141 0.947715 14.2664 0.5 13.7141 0.5Z" fill="#B6B7B7"/>
<path d="M13.7141 8.5H9.71411C9.16183 8.5 8.71411 8.94772 8.71411 9.5V13.5C8.71411 14.0523 9.16183 14.5 9.71411 14.5H13.7141C14.2664 14.5 14.7141 14.0523 14.7141 13.5V9.5C14.7141 8.94772 14.2664 8.5 13.7141 8.5Z" fill="#B6B7B7"/>
</svg>
