<svg width="16" height="16" viewBox="0 0 16 16" fill="none" xmlns="http://www.w3.org/2000/svg">
<path d="M6.59864 6.70898H6.07764V7.32598H6.59864V6.70898Z" fill="#030C54"/>
<path d="M9.2627 7.45698C9.2627 7.2387 9.17599 7.02937 9.02165 6.87503C8.86731 6.72069 8.65797 6.63397 8.4397 6.63397C8.22142 6.63397 8.0121 6.72069 7.85776 6.87503C7.70342 7.02937 7.6167 7.2387 7.6167 7.45698C7.6167 7.67525 7.70342 7.88458 7.85776 8.03893C8.0121 8.19327 8.22142 8.27998 8.4397 8.27998C8.65797 8.27998 8.86731 8.19327 9.02165 8.03893C9.17599 7.88458 9.2627 7.67525 9.2627 7.45698ZM8.0827 7.45698C8.0827 7.38637 8.10364 7.31734 8.14287 7.25864C8.1821 7.19993 8.23785 7.15417 8.30309 7.12715C8.36832 7.10013 8.4401 7.09306 8.50935 7.10683C8.5786 7.12061 8.64221 7.15461 8.69214 7.20454C8.74207 7.25446 8.77607 7.31808 8.78984 7.38733C8.80362 7.45658 8.79655 7.52836 8.76953 7.59359C8.74251 7.65882 8.69675 7.71458 8.63805 7.75381C8.57934 7.79303 8.51031 7.81397 8.4397 7.81397C8.3451 7.81371 8.25445 7.77602 8.18756 7.70912C8.12067 7.64223 8.08297 7.55158 8.0827 7.45698Z" fill="#030C54"/>
<path d="M6.59864 9.17694H6.07764V9.79394H6.59864V9.17694Z" fill="#030C54"/>
<path d="M10.1312 6.51822L8.38281 9.80298L8.84286 10.0478L10.5913 6.76309L10.1312 6.51822Z" fill="black"/>
<path d="M6.59864 7.94293H6.07764V8.55993H6.59864V7.94293Z" fill="#030C54"/>
<path d="M10.5628 8.25294C10.4 8.25234 10.2407 8.30004 10.1051 8.38997C9.96941 8.47991 9.86346 8.60806 9.80062 8.75821C9.73778 8.90837 9.72088 9.0738 9.75205 9.23356C9.78322 9.39332 9.86107 9.54025 9.97574 9.65577C10.0904 9.77128 10.2368 9.85019 10.3963 9.88253C10.5558 9.91487 10.7214 9.89918 10.872 9.83744C11.0226 9.7757 11.1515 9.67068 11.2424 9.53567C11.3334 9.40066 11.3822 9.24171 11.3828 9.07894C11.3832 8.97086 11.3623 8.86377 11.3213 8.76377C11.2803 8.66377 11.22 8.57282 11.1439 8.49611C11.0677 8.41941 10.9772 8.35846 10.8775 8.31673C10.7778 8.27501 10.6709 8.25333 10.5628 8.25294ZM10.5628 9.43294C10.4922 9.43294 10.4232 9.41201 10.3645 9.37278C10.3058 9.33355 10.26 9.27779 10.233 9.21256C10.206 9.14733 10.1989 9.07554 10.2127 9.00629C10.2264 8.93704 10.2604 8.87343 10.3104 8.82351C10.3603 8.77358 10.4239 8.73958 10.4932 8.72581C10.5624 8.71203 10.6342 8.71909 10.6994 8.74611C10.7647 8.77313 10.8204 8.81889 10.8596 8.8776C10.8989 8.93631 10.9198 9.00534 10.9198 9.07595C10.9185 9.17037 10.8799 9.26044 10.8125 9.32656C10.7451 9.39268 10.6542 9.42948 10.5598 9.42895L10.5628 9.43294Z" fill="#030C54"/>
<path d="M8.20983 0.709961C6.71935 0.709961 5.26234 1.15194 4.02305 1.98001C2.78377 2.80807 1.81786 3.98503 1.24748 5.36206C0.677093 6.73908 0.527855 8.25432 0.818634 9.71616C1.10941 11.178 1.82715 12.5208 2.88107 13.5747C3.935 14.6286 5.27779 15.3464 6.73963 15.6372C8.20147 15.9279 9.71671 15.7787 11.0937 15.2083C12.4708 14.6379 13.6477 13.672 14.4758 12.4327C15.3039 11.1934 15.7458 9.73644 15.7458 8.24596C15.7458 6.24729 14.9519 4.33048 13.5386 2.9172C12.1253 1.50393 10.2085 0.709961 8.20983 0.709961ZM12.6558 10.01C12.6409 10.2177 12.5447 10.4111 12.3879 10.5482C12.2312 10.6852 12.0267 10.7549 11.8188 10.742H6.59883V10.41H6.07383V10.736H4.60183C4.3948 10.7492 4.19087 10.6805 4.03408 10.5447C3.87728 10.4088 3.78021 10.2168 3.76383 10.01V6.49796C3.77872 6.29027 3.875 6.09685 4.03174 5.95977C4.18848 5.82269 4.39301 5.75304 4.60083 5.76596H6.07383V6.09196H6.59483V5.76696H11.8148C12.0227 5.75404 12.2272 5.82369 12.3839 5.96077C12.5407 6.09785 12.6369 6.29127 12.6518 6.49896L12.6558 10.01Z" fill="#030C54"/>
</svg>
