<svg width="14" height="17" viewBox="0 0 14 17" fill="none" xmlns="http://www.w3.org/2000/svg">
<path d="M4.05713 5.0376H5.07142V13.1519H4.05713V5.0376Z" fill="#808080"/>
<path d="M6.08618 5.0376H7.10047V13.1519H6.08618V5.0376Z" fill="#808080"/>
<path d="M8.11426 5.0376H9.12855V13.1519H8.11426V5.0376Z" fill="#808080"/>
<path d="M0 1.99487H13.1858V3.00917H0V1.99487Z" fill="#808080"/>
<path d="M9.0949 2.50192H8.14823V1.48763C8.14823 1.18334 7.91156 0.946674 7.60728 0.946674H5.57869C5.2744 0.946674 5.03773 1.18334 5.03773 1.48763V2.50192H4.09106V1.48763C4.09106 0.676193 4.76726 0 5.57869 0H7.60728C8.41871 0 9.0949 0.676193 9.0949 1.48763V2.50192Z" fill="#808080"/>
<path d="M9.63589 16.195H3.55014C2.7387 16.195 2.0287 15.5188 1.96108 14.7074L1.0144 2.53588L2.0287 2.46826L2.97537 14.6398C3.00918 14.9441 3.27966 15.1807 3.55014 15.1807H9.63589C9.94018 15.1807 10.2107 14.9102 10.2107 14.6398L11.1573 2.46826L12.1716 2.53588L11.2249 14.7074C11.1573 15.5526 10.4473 16.195 9.63589 16.195Z" fill="#808080"/>
</svg>
