<svg width="55" height="38" viewBox="0 0 55 38" fill="none" xmlns="http://www.w3.org/2000/svg">
<path d="M9.69998 15.813H13.165L11.24 20.213V20.222L9.65298 23.856C9.1338 23.7008 8.59487 23.6216 8.05298 23.621C6.71793 23.6153 5.42628 24.0948 4.41834 24.9703C3.41041 25.8458 2.75483 27.0576 2.57358 28.3803C2.39233 29.703 2.69776 31.0465 3.43303 32.1609C4.1683 33.2752 5.28335 34.0845 6.57072 34.4382C7.85808 34.7919 9.23009 34.6658 10.4315 34.0835C11.6329 33.5013 12.5818 32.5024 13.1018 31.2727C13.6217 30.0431 13.6773 28.6664 13.2581 27.3989C12.8389 26.1313 11.9735 25.0592 10.823 24.382L12.25 21.114H25.382C25.468 21.1174 25.5537 21.1034 25.6342 21.0728C25.7146 21.0423 25.788 20.9958 25.8501 20.9362C25.9121 20.8766 25.9615 20.805 25.9952 20.7259C26.0289 20.6467 26.0463 20.5615 26.0463 20.4755C26.0463 20.3895 26.0289 20.3043 25.9952 20.2251C25.9615 20.146 25.9121 20.0744 25.8501 20.0148C25.788 19.9552 25.7146 19.9087 25.6342 19.8781C25.5537 19.8476 25.468 19.8336 25.382 19.837H12.799L16.94 10.362H19.729C19.894 10.3555 20.05 10.2853 20.1644 10.1663C20.2788 10.0473 20.3427 9.88859 20.3427 9.72349C20.3427 9.55839 20.2788 9.39971 20.1644 9.28068C20.05 9.16165 19.894 9.09152 19.729 9.08499H16.529C16.405 9.08533 16.2838 9.12197 16.1804 9.19038C16.0769 9.2588 15.9958 9.356 15.947 9.46999L15.055 11.508H12.733C11.7622 11.5093 10.8315 11.8956 10.145 12.582C9.45855 13.2685 9.0723 14.1992 9.07098 15.17C9.06785 15.2541 9.08187 15.3379 9.11219 15.4165C9.14251 15.495 9.1885 15.5665 9.24735 15.6266C9.3062 15.6868 9.37668 15.7343 9.45449 15.7664C9.53231 15.7984 9.61584 15.8143 9.69998 15.813ZM12.254 29.097C12.2554 29.9294 12.0098 30.7434 11.5484 31.4362C11.087 32.1289 10.4304 32.6693 9.66179 32.9887C8.89318 33.3082 8.04707 33.3925 7.23054 33.231C6.414 33.0695 5.66373 32.6693 5.07467 32.0813C4.48561 31.4932 4.08423 30.7436 3.92134 29.9273C3.75844 29.111 3.84134 28.2648 4.15956 27.4957C4.47777 26.7265 5.01698 26.0691 5.70897 25.6065C6.40096 25.1439 7.21462 24.897 8.04698 24.897C8.41205 24.8988 8.77525 24.9492 9.12698 25.047L7.46498 28.847C7.3984 29.0029 7.39555 29.1787 7.45706 29.3366C7.51856 29.4946 7.63951 29.6222 7.79398 29.692C7.87374 29.7284 7.96031 29.7475 8.04798 29.748C8.17213 29.7483 8.29361 29.7119 8.39716 29.6434C8.5007 29.5749 8.5817 29.4774 8.62998 29.363L10.292 25.563C10.8907 25.9386 11.3846 26.4596 11.7277 27.0776C12.0707 27.6955 12.2518 28.3902 12.254 29.097ZM12.724 12.786H14.492L13.722 14.533H10.422C10.5631 14.0311 10.8643 13.589 11.2799 13.2742C11.6955 12.9593 12.2026 12.7889 12.724 12.789V12.786Z" fill="#4A4B4D"/>
<path d="M13.747 23.397C13.626 23.2861 13.4669 23.2262 13.3028 23.2298C13.1387 23.2333 12.9823 23.3001 12.8662 23.4162C12.7501 23.5323 12.6834 23.6886 12.6798 23.8527C12.6762 24.0168 12.7361 24.176 12.847 24.297C13.4649 24.9144 13.959 25.6441 14.303 26.447C14.6562 27.2818 14.8382 28.1791 14.8382 29.0855C14.8382 29.992 14.6562 30.8892 14.303 31.724C13.9659 32.5306 13.4709 33.2616 12.847 33.874C11.8961 34.831 10.6802 35.4812 9.35623 35.7408C8.03227 36.0003 6.66091 35.8572 5.41902 35.33C4.61242 34.9929 3.88141 34.4979 3.26902 33.874C2.65119 33.2566 2.15699 32.5269 1.81302 31.724C1.45985 30.8892 1.27787 29.992 1.27787 29.0855C1.27787 28.1791 1.45985 27.2818 1.81302 26.447C2.14981 25.6405 2.64452 24.9095 3.26802 24.297C3.8871 23.6812 4.61643 23.1873 5.41802 22.841C6.2521 22.4849 7.15011 22.3029 8.05702 22.306C8.143 22.3094 8.22877 22.2954 8.30921 22.2649C8.38964 22.2343 8.46308 22.1878 8.52511 22.1282C8.58714 22.0686 8.6365 21.997 8.67021 21.9179C8.70392 21.8387 8.7213 21.7535 8.7213 21.6675C8.7213 21.5815 8.70392 21.4963 8.67021 21.4171C8.6365 21.338 8.58714 21.2664 8.52511 21.2068C8.46308 21.1472 8.38964 21.1007 8.30921 21.0702C8.22877 21.0396 8.143 21.0256 8.05702 21.029C6.98036 21.029 5.91441 21.2428 4.92102 21.658C3.45965 22.2728 2.21272 23.306 1.3371 24.6277C0.461482 25.9494 -0.00371707 27.5006 2.23682e-05 29.086C2.06583e-05 30.1627 0.213822 31.2286 0.629022 32.222C1.14403 33.4383 1.95 34.5095 2.97606 35.3413C4.00213 36.1731 5.21686 36.74 6.51342 36.9923C7.80998 37.2445 9.14866 37.1743 10.4117 36.7879C11.6748 36.4014 12.8236 35.7105 13.757 34.776C14.507 34.0287 15.1014 33.1402 15.5059 32.1619C15.9105 31.1835 16.1172 30.1347 16.114 29.076C16.114 27.9993 15.9002 26.9334 15.485 25.94C15.0618 24.9956 14.4732 24.1344 13.747 23.397Z" fill="#4A4B4D"/>
<path d="M48.4081 23.397C47.6608 22.6471 46.7723 22.0526 45.7939 21.6481C44.8156 21.2435 43.7668 21.0369 42.7081 21.04C42.5431 21.0465 42.3871 21.1167 42.2726 21.2357C42.1582 21.3547 42.0943 21.5134 42.0943 21.6785C42.0943 21.8436 42.1582 22.0023 42.2726 22.1213C42.3871 22.2404 42.5431 22.3105 42.7081 22.317C43.615 22.3139 44.513 22.4959 45.3471 22.852C46.1537 23.1891 46.8847 23.6842 47.4971 24.308C48.1129 24.9271 48.6068 25.6564 48.9531 26.458C49.3062 27.2928 49.4882 28.1901 49.4882 29.0965C49.4882 30.003 49.3062 30.9002 48.9531 31.735C48.616 32.5416 48.1209 33.2726 47.4971 33.885C46.878 34.5008 46.1487 34.9947 45.3471 35.341C44.5111 35.6896 43.6143 35.8691 42.7086 35.8691C41.8028 35.8691 40.906 35.6896 40.0701 35.341C39.2635 35.0039 38.5324 34.5089 37.9201 33.885C37.3022 33.2676 36.808 32.5379 36.4641 31.735C36.1109 30.9002 35.9289 30.003 35.9289 29.0965C35.9289 28.1901 36.1109 27.2928 36.4641 26.458C36.8011 25.6514 37.2962 24.9204 37.9201 24.308C38.031 24.187 38.0909 24.0279 38.0873 23.8638C38.0837 23.6996 38.0169 23.5433 37.9009 23.4272C37.7848 23.3111 37.6284 23.2443 37.4643 23.2408C37.3002 23.2372 37.1411 23.2971 37.0201 23.408C36.2831 24.1428 35.6962 25.014 35.2921 25.973C34.957 26.768 34.7543 27.6125 34.6921 28.473H30.5321C30.3671 28.4795 30.2111 28.5497 30.0966 28.6687C29.9822 28.7877 29.9183 28.9464 29.9183 29.1115C29.9183 29.2766 29.9822 29.4353 30.0966 29.5543C30.2111 29.6734 30.3671 29.7435 30.5321 29.75H34.6921C34.7543 30.6105 34.957 31.455 35.2921 32.25C35.9069 33.7114 36.9401 34.9583 38.2618 35.8339C39.5835 36.7095 41.1346 37.1748 42.7201 37.171C43.7967 37.171 44.8627 36.9572 45.8561 36.542C46.8147 36.1378 47.6856 35.5509 48.4201 34.814C49.17 34.0667 49.7644 33.1782 50.169 32.1999C50.5735 31.2215 50.7802 30.1727 50.7771 29.114C50.7771 28.0373 50.5633 26.9714 50.1481 25.978C49.7326 25.0175 49.1427 24.1423 48.4081 23.397Z" fill="#4A4B4D"/>
<path d="M43.9091 18.367H40.4921C40.3272 18.3735 40.1711 18.4437 40.0567 18.5627C39.9423 18.6817 39.8784 18.8404 39.8784 19.0055C39.8784 19.1706 39.9423 19.3293 40.0567 19.4483C40.1711 19.5673 40.3272 19.6375 40.4921 19.644H43.9101C44.4922 19.6317 45.0463 19.3918 45.4536 18.9757C45.8609 18.5597 46.089 18.0007 46.089 17.4185C46.089 16.8363 45.8609 16.2773 45.4536 15.8612C45.0463 15.4452 44.4922 15.2053 43.9101 15.193H36.1811C36.0972 15.1928 36.0142 15.2094 35.9367 15.2416C35.8593 15.2739 35.7891 15.3213 35.7301 15.381L33.3451 17.766C33.2342 17.887 33.1743 18.0462 33.1779 18.2103C33.1815 18.3744 33.2482 18.5307 33.3643 18.6468C33.4804 18.7629 33.6368 18.8297 33.8009 18.8332C33.965 18.8368 34.1241 18.7769 34.2451 18.666L36.4451 16.466H43.9101C44.1621 16.466 44.4037 16.5661 44.5819 16.7442C44.76 16.9224 44.8601 17.164 44.8601 17.416C44.8601 17.6679 44.76 17.9096 44.5819 18.0877C44.4037 18.2659 44.1621 18.366 43.9101 18.366L43.9091 18.367Z" fill="#4A4B4D"/>
<path d="M18.039 13.024C17.874 13.0305 17.718 13.1006 17.6036 13.2197C17.4892 13.3387 17.4253 13.4974 17.4253 13.6625C17.4253 13.8276 17.4892 13.9863 17.6036 14.1053C17.718 14.2243 17.874 14.2945 18.039 14.301H19.325C20.1722 14.3022 21.011 14.4679 21.795 14.789C22.5782 15.1136 23.2897 15.5893 23.889 16.189L26.368 18.668C26.427 18.7272 26.4971 18.7743 26.5744 18.8064C26.6516 18.8384 26.7344 18.855 26.818 18.855C26.9016 18.855 26.9844 18.8384 27.0617 18.8064C27.1389 18.7743 27.209 18.7272 27.268 18.668C27.328 18.6094 27.3757 18.5394 27.4082 18.4621C27.4408 18.3848 27.4575 18.3018 27.4575 18.218C27.4575 18.1341 27.4408 18.0511 27.4082 17.9738C27.3757 17.8966 27.328 17.8266 27.268 17.768L24.792 15.287C23.3401 13.8415 21.3758 13.0281 19.327 13.024H18.039Z" fill="#4A4B4D"/>
<path d="M35.7401 20.921L37.6461 19.015L39.9561 24.368C39.1259 24.8459 38.4362 25.534 37.9565 26.3631C37.4767 27.1922 37.2237 28.1331 37.2231 29.091V29.11C37.222 30.267 37.5859 31.3948 38.2628 32.333C38.9398 33.2713 39.8954 33.9722 40.9937 34.336C42.092 34.6998 43.277 34.7079 44.3802 34.3594C45.4834 34.0108 46.4486 33.3232 47.1384 32.3943C47.8283 31.4655 48.2077 30.3428 48.2226 29.186C48.2376 28.0291 47.8873 26.897 47.2217 25.9506C46.556 25.0043 45.6089 24.292 44.5151 23.9151C43.4213 23.5381 42.2364 23.5157 41.1291 23.851L38.4531 17.651L38.4441 17.642C38.4122 17.5771 38.3711 17.5172 38.3221 17.464C38.3131 17.455 38.3131 17.455 38.3131 17.445C38.3131 17.435 38.3041 17.436 38.2941 17.436C38.2398 17.3836 38.176 17.3422 38.1061 17.314C38.0971 17.314 38.0871 17.305 38.0781 17.305C38.0401 17.296 38.0121 17.277 37.9781 17.267C37.9453 17.2596 37.9117 17.2566 37.8781 17.258H37.8501C37.7768 17.2615 37.7042 17.2742 37.6341 17.296C37.6251 17.296 37.6151 17.305 37.5961 17.315C37.5245 17.3442 37.4603 17.389 37.4081 17.446L24.5841 30.274H20.0011L19.3151 28.374H22.9301C23.0161 28.3774 23.1018 28.3634 23.1823 28.3328C23.2627 28.3023 23.3361 28.2558 23.3982 28.1962C23.4602 28.1365 23.5096 28.065 23.5433 27.9858C23.577 27.9067 23.5944 27.8215 23.5944 27.7355C23.5944 27.6494 23.577 27.5643 23.5433 27.4851C23.5096 27.406 23.4602 27.3344 23.3982 27.2748C23.3361 27.2152 23.2627 27.1687 23.1823 27.1381C23.1018 27.1076 23.0161 27.0936 22.9301 27.097H18.8561L18.0561 24.89H24.6011C24.6871 24.8934 24.7728 24.8794 24.8533 24.8488C24.9337 24.8183 25.0071 24.7718 25.0692 24.7122C25.1312 24.6526 25.1806 24.581 25.2143 24.5018C25.248 24.4227 25.2654 24.3375 25.2654 24.2515C25.2654 24.1654 25.248 24.0803 25.2143 24.0011C25.1806 23.922 25.1312 23.8504 25.0692 23.7908C25.0071 23.7312 24.9337 23.6847 24.8533 23.6541C24.7728 23.6236 24.6871 23.6096 24.6011 23.613H17.1471C17.0442 23.6137 16.9429 23.6388 16.8515 23.686C16.7601 23.7333 16.6812 23.8015 16.6211 23.885C16.561 23.968 16.5227 24.0648 16.5096 24.1664C16.4965 24.2681 16.509 24.3714 16.5461 24.467L18.9461 31.125C18.9904 31.2487 19.0718 31.3557 19.1791 31.4314C19.2865 31.5071 19.4147 31.5478 19.5461 31.548H24.8461C24.93 31.5481 25.0131 31.5316 25.0905 31.4993C25.1679 31.4671 25.2381 31.4197 25.2971 31.36L35.7401 20.921ZM40.4731 25.541L41.7311 28.461H38.5481C38.6444 27.8659 38.8658 27.298 39.1976 26.7946C39.5294 26.2913 39.9641 25.8641 40.4731 25.541ZM42.7081 24.893C43.5132 24.8916 44.3018 25.1212 44.9803 25.5547C45.6588 25.9881 46.1987 26.6072 46.5358 27.3383C46.8729 28.0694 46.9932 28.882 46.8823 29.6794C46.7714 30.4769 46.434 31.2257 45.9102 31.8372C45.3864 32.4486 44.6981 32.8968 43.9271 33.1287C43.1561 33.3606 42.3347 33.3664 41.5605 33.1454C40.7864 32.9243 40.0918 32.4858 39.5595 31.8818C39.0271 31.2779 38.6792 30.5338 38.5571 29.738H42.7081C42.8138 29.7374 42.9178 29.7107 43.0109 29.6605C43.1039 29.6102 43.1832 29.5378 43.2417 29.4497C43.3001 29.3615 43.3361 29.2604 43.3463 29.1551C43.3564 29.0498 43.3406 28.9437 43.3001 28.846L41.6571 25.033C42.0004 24.9439 42.3534 24.8982 42.7081 24.897V24.893Z" fill="#4A4B4D"/>
<path d="M54.5581 10.733H44.8581V9.01401H47.9921C48.1092 9.01401 48.2215 8.96749 48.3043 8.8847C48.3871 8.8019 48.4336 8.6896 48.4336 8.57251C48.4336 8.45542 48.3871 8.34312 48.3043 8.26032C48.2215 8.17753 48.1092 8.13101 47.9921 8.13101H44.8581V2.03701C44.8584 1.8519 44.8221 1.66856 44.7514 1.4975C44.6807 1.32643 44.5769 1.171 44.446 1.04011C44.3151 0.909218 44.1597 0.805442 43.9886 0.734726C43.8176 0.66401 43.6342 0.627746 43.4491 0.62801H39.4211C39.3718 0.617082 39.3216 0.61072 39.2711 0.609009H36.7351C36.6846 0.61072 36.6344 0.617082 36.5851 0.62801H32.5191C32.334 0.627746 32.1507 0.66401 31.9796 0.734726C31.8085 0.805442 31.6531 0.909218 31.5222 1.04011C31.3913 1.171 31.2875 1.32643 31.2168 1.4975C31.1461 1.66856 31.1098 1.8519 31.1101 2.03701V12.977C31.1098 13.1621 31.1461 13.3455 31.2168 13.5165C31.2875 13.6876 31.3913 13.843 31.5222 13.9739C31.6531 14.1048 31.8085 14.2086 31.9796 14.2793C32.1507 14.35 32.334 14.3863 32.5191 14.386H43.4491C43.6342 14.3863 43.8176 14.35 43.9886 14.2793C44.1597 14.2086 44.3151 14.1048 44.446 13.9739C44.5769 13.843 44.6807 13.6876 44.7514 13.5165C44.8221 13.3455 44.8584 13.1621 44.8581 12.977V11.615H54.5581C54.6752 11.615 54.7875 11.5685 54.8703 11.4857C54.9531 11.4029 54.9996 11.2906 54.9996 11.1735C54.9996 11.0564 54.9531 10.9441 54.8703 10.8613C54.7875 10.7785 54.6752 10.733 54.5581 10.733ZM39.2981 1.53301V4.06801C39.2976 4.07793 39.2935 4.08732 39.2864 4.09434C39.2794 4.10137 39.27 4.10552 39.2601 4.10601H36.7261C36.7162 4.10552 36.7068 4.10137 36.6998 4.09434C36.6928 4.08732 36.6886 4.07793 36.6881 4.06801V1.53001C36.6881 1.52101 36.6971 1.52101 36.7071 1.51101H39.2801C39.2921 1.52001 39.2991 1.52001 39.2991 1.53001L39.2981 1.53301ZM43.9751 12.977C43.9752 13.0461 43.9617 13.1146 43.9353 13.1785C43.9089 13.2423 43.8702 13.3004 43.8213 13.3492C43.7725 13.3981 43.7144 13.4369 43.6506 13.4632C43.5867 13.4896 43.5182 13.5031 43.4491 13.503H32.5191C32.45 13.5031 32.3815 13.4896 32.3177 13.4632C32.2538 13.4369 32.1957 13.3981 32.1469 13.3492C32.098 13.3004 32.0593 13.2423 32.0329 13.1785C32.0065 13.1146 31.993 13.0461 31.9931 12.977V2.03701C31.993 1.9679 32.0065 1.89944 32.0329 1.83556C32.0593 1.77168 32.098 1.71365 32.1469 1.66478C32.1957 1.61591 32.2538 1.57717 32.3177 1.55078C32.3815 1.52439 32.45 1.51088 32.5191 1.51101H35.8061V4.06501C35.8066 4.30885 35.9037 4.54254 36.0762 4.71496C36.2486 4.88738 36.4823 4.98448 36.7261 4.98501H39.2611C39.5049 4.98448 39.7386 4.88738 39.9111 4.71496C40.0835 4.54254 40.1806 4.30885 40.1811 4.06501V1.51101H43.4491C43.5182 1.51088 43.5867 1.52439 43.6506 1.55078C43.7144 1.57717 43.7725 1.61591 43.8213 1.66478C43.8702 1.71365 43.9089 1.77168 43.9353 1.83556C43.9617 1.89944 43.9752 1.9679 43.9751 2.03701V8.13101H38.4631C38.346 8.13101 38.2337 8.17753 38.1509 8.26032C38.0681 8.34312 38.0216 8.45542 38.0216 8.57251C38.0216 8.6896 38.0681 8.8019 38.1509 8.8847C38.2337 8.96749 38.346 9.01401 38.4631 9.01401H43.9751V10.732H40.7541C40.637 10.732 40.5247 10.7785 40.4419 10.8613C40.3591 10.9441 40.3126 11.0564 40.3126 11.1735C40.3126 11.2906 40.3591 11.4029 40.4419 11.4857C40.5247 11.5685 40.637 11.615 40.7541 11.615H43.9751V12.977Z" fill="#4A4B4D"/>
</svg>
