<svg width="55" height="31" viewBox="0 0 55 31" fill="none" xmlns="http://www.w3.org/2000/svg">
<path d="M54.567 29.092H35.58C35.6399 28.9269 35.6704 28.7526 35.67 28.577C35.6687 28.1639 35.504 27.7682 35.2119 27.4761C34.9198 27.184 34.5241 27.0193 34.111 27.018H31.891C31.7545 27.0177 31.6237 26.9634 31.5271 26.8669C31.4306 26.7703 31.3763 26.6395 31.376 26.503V22.608H43.434C43.8951 22.6077 44.3373 22.4244 44.6634 22.0984C44.9894 21.7723 45.1727 21.3301 45.173 20.869V2.31301C45.1727 1.85188 44.9894 1.40971 44.6634 1.08364C44.3373 0.757571 43.8951 0.57427 43.434 0.574005H12.11C11.6489 0.57427 11.2067 0.757571 10.8806 1.08364C10.5546 1.40971 10.3713 1.85188 10.371 2.31301V3.013H8.70801V5.13201C8.59601 5.17701 8.48401 5.22201 8.37201 5.27401L6.86501 3.77401L3.69401 6.94501L5.19401 8.44501C5.14201 8.55701 5.09401 8.669 5.05201 8.781H2.933V13.265H5.05201C5.09701 13.377 5.14201 13.489 5.19401 13.601L3.69401 15.101L6.86501 18.272L8.36501 16.772C8.47701 16.824 8.58901 16.872 8.70101 16.914V19.033H10.372V20.854C10.3723 21.3151 10.5556 21.7573 10.8816 22.0834C11.2077 22.4094 11.6499 22.5927 12.111 22.593H24.168V26.488C24.1677 26.6245 24.1134 26.7554 24.0169 26.8519C23.9204 26.9484 23.7895 27.0027 23.653 27.003H21.438C21.0249 27.0046 20.6293 27.1695 20.3374 27.4618C20.0455 27.7541 19.8811 28.1499 19.88 28.563C19.8789 28.7387 19.9093 28.9131 19.97 29.078H2.37C2.24701 29.1066 2.13732 29.1759 2.05878 29.2748C1.98025 29.3737 1.9375 29.4962 1.9375 29.6225C1.9375 29.7488 1.98025 29.8713 2.05878 29.9702C2.13732 30.0691 2.24701 30.1384 2.37 30.167H54.57C54.6988 30.1502 54.8161 30.084 54.8969 29.9822C54.9777 29.8805 55.0158 29.7513 55.003 29.622C55.0093 29.5585 55.0031 29.4945 54.9846 29.4334C54.9661 29.3724 54.9357 29.3156 54.8952 29.2664C54.8547 29.2171 54.8048 29.1764 54.7485 29.1464C54.6922 29.1165 54.6305 29.098 54.567 29.092ZM16.841 8.789C16.796 8.677 16.751 8.565 16.699 8.453L18.199 6.953L15.311 4.065H44.136V18.004H15.312L18.2 15.116L16.7 13.616C16.752 13.504 16.8 13.392 16.842 13.28H18.96V8.79701H16.841V8.789ZM13.192 4.05901H14.751L13.528 5.27901C13.416 5.22701 13.304 5.179 13.192 5.137V4.05901ZM12.11 1.61901H43.434C43.6176 1.62057 43.7932 1.69419 43.923 1.82401C44.0528 1.95382 44.1264 2.12943 44.128 2.31301V3.013H11.417V2.31301C11.4169 2.22192 11.4347 2.13169 11.4695 2.0475C11.5042 1.9633 11.5553 1.88679 11.6196 1.82233C11.684 1.75788 11.7604 1.70674 11.8446 1.67185C11.9287 1.63696 12.0189 1.61901 12.11 1.61901ZM9.38 16.049C9.07792 15.9553 8.78557 15.8328 8.50701 15.683L8.17101 15.504L6.86501 16.804L5.165 15.104L6.46501 13.804L6.28601 13.468C6.14065 13.1874 6.01825 12.8954 5.92001 12.595L5.808 12.229H3.97001V9.829H5.80601L5.918 9.463C6.01167 9.16092 6.13424 8.86857 6.28401 8.59001L6.46301 8.254L5.16301 6.954L6.863 5.25401L8.16301 6.554L8.499 6.37501C8.77965 6.22965 9.07161 6.10725 9.37201 6.009L9.738 5.89701V4.05901H12.138V5.895L12.504 6.00701C12.8061 6.10067 13.0984 6.22323 13.377 6.373L13.713 6.55201L15.013 5.252L16.713 6.95201L15.413 8.252L15.592 8.588C15.7374 8.86865 15.8598 9.16061 15.958 9.461L16.07 9.82701H17.906V12.227H16.073L15.961 12.593C15.8673 12.8951 15.7448 13.1874 15.595 13.466L15.416 13.802L16.716 15.102L15.016 16.802L13.73 15.512L13.394 15.691C13.1148 15.8395 12.8226 15.962 12.521 16.057L12.155 16.169V17.997H9.745V16.169L9.38 16.049ZM14.745 17.996H13.192V16.922C13.304 16.877 13.416 16.832 13.528 16.78L14.745 17.996ZM11.417 20.861V19.042H44.136V20.87C44.1344 21.0536 44.0608 21.2292 43.931 21.359C43.8012 21.4888 43.6256 21.5624 43.442 21.564H12.11C11.9252 21.5622 11.7487 21.4873 11.6188 21.3558C11.489 21.2243 11.4165 21.0458 11.417 20.861ZM20.917 28.569C20.9173 28.4325 20.9716 28.3017 21.0681 28.2051C21.1647 28.1086 21.2955 28.0543 21.432 28.054H23.656C24.0691 28.0527 24.4648 27.888 24.7569 27.5959C25.049 27.3038 25.2137 26.9081 25.215 26.495V22.608H30.334V25.287H27.454C27.3154 25.287 27.1825 25.3421 27.0845 25.44C26.9866 25.538 26.9315 25.6709 26.9315 25.8095C26.9315 25.9481 26.9866 26.081 27.0845 26.179C27.1825 26.277 27.3154 26.332 27.454 26.332H30.334V26.496C30.3353 26.9091 30.5 27.3048 30.7921 27.5969C31.0842 27.889 31.4799 28.0537 31.893 28.055H34.109C34.2456 28.055 34.3766 28.1093 34.4732 28.2058C34.5697 28.3024 34.624 28.4334 34.624 28.57C34.624 28.7066 34.5697 28.8376 34.4732 28.9342C34.3766 29.0307 34.2456 29.085 34.109 29.085H21.438C21.3696 29.0863 21.3017 29.074 21.2381 29.0487C21.1746 29.0234 21.1168 28.9856 21.0681 28.9376C21.0193 28.8896 20.9807 28.8324 20.9544 28.7693C20.9281 28.7061 20.9147 28.6384 20.915 28.57L20.917 28.569Z" fill="#4A4B4D"/>
<path d="M14.103 11.028C14.103 10.4038 13.9179 9.7936 13.5711 9.2746C13.2243 8.7556 12.7315 8.35109 12.1548 8.11222C11.5781 7.87335 10.9435 7.81085 10.3313 7.93262C9.71911 8.0544 9.15676 8.35498 8.71539 8.79635C8.27401 9.23773 7.97343 9.80007 7.85166 10.4123C7.72988 11.0245 7.79238 11.659 8.03125 12.2357C8.27012 12.8124 8.67464 13.3053 9.19364 13.6521C9.71264 13.9989 10.3228 14.184 10.947 14.184C11.7836 14.1824 12.5854 13.8494 13.1769 13.2579C13.7684 12.6663 14.1014 11.8645 14.103 11.028ZM8.82802 11.028C8.82802 10.6089 8.95229 10.1992 9.18513 9.85073C9.41797 9.50226 9.74891 9.23066 10.1361 9.07028C10.5233 8.9099 10.9494 8.86793 11.3604 8.9497C11.7715 9.03146 12.149 9.23327 12.4454 9.52962C12.7417 9.82597 12.9435 10.2035 13.0253 10.6146C13.1071 11.0256 13.0651 11.4517 12.9047 11.8389C12.7443 12.2261 12.4727 12.557 12.1243 12.7899C11.7758 13.0227 11.3661 13.147 10.947 13.147C10.3851 13.1465 9.84632 12.9231 9.44889 12.5258C9.05146 12.1286 8.82881 11.5899 8.82802 11.028Z" fill="#4A4B4D"/>
<path d="M21.9671 11.162L20.5941 11.751L21.8621 14.721L23.2351 14.132L23.3621 14.259L22.8021 15.647L25.7941 16.847L26.3541 15.459H26.5331L27.1221 16.832L30.0921 15.564L29.5031 14.191L29.6301 14.064L31.0181 14.624L32.2181 11.632L30.8301 11.072V10.893L32.2031 10.304L30.9351 7.33401L29.5621 7.92301L29.4351 7.796L29.9951 6.408L27.0031 5.19901L26.4431 6.58701H26.2641L25.6801 5.21501L22.7061 6.47901L23.2951 7.85201L23.1681 7.97901L21.7801 7.419L20.5801 10.419L21.9681 10.979C21.9638 11.0399 21.9635 11.101 21.9671 11.162ZM22.2431 8.51301L23.4141 8.983L23.6081 8.74401C23.7465 8.57624 23.8991 8.42067 24.0641 8.27901L24.2951 8.079L23.8031 6.915L25.2431 6.30301L25.7351 7.467L26.0411 7.43701C26.2568 7.41607 26.4739 7.41373 26.6901 7.43001L26.9961 7.45201L27.4671 6.27901L28.9151 6.86101L28.4451 8.032L28.6841 8.226C28.8511 8.36419 29.006 8.51641 29.1471 8.68101L29.3471 8.912L30.5111 8.42L31.1231 9.86001L29.9591 10.352L29.9891 10.658C30.01 10.8737 30.0123 11.0909 29.9961 11.307L29.9741 11.613L31.1451 12.083L30.5631 13.531L29.3921 13.061L29.1981 13.3C29.0599 13.467 28.9077 13.6219 28.7431 13.763L28.5121 13.963L29.0041 15.127L27.5641 15.739L27.0711 14.579L26.7651 14.609C26.5493 14.6299 26.3322 14.6323 26.1161 14.616L25.8101 14.594L25.3401 15.765L23.8921 15.179L24.3621 14.008L24.1231 13.814C23.9561 13.6758 23.8012 13.5236 23.6601 13.359L23.4601 13.128L22.2961 13.62L21.6841 12.18L22.8481 11.688L22.8181 11.382C22.7971 11.1663 22.7948 10.9491 22.8111 10.733L22.8331 10.427L21.6621 9.95701L22.2431 8.51301Z" fill="#4A4B4D"/>
<path d="M25.5639 13.11C25.8294 13.2181 26.1132 13.2738 26.3999 13.274C26.963 13.2764 27.5068 13.0688 27.9251 12.6917C28.3433 12.3146 28.606 11.7952 28.6616 11.2348C28.7173 10.6744 28.5621 10.1134 28.2262 9.66134C27.8903 9.20931 27.398 8.89876 26.8454 8.79035C26.2928 8.68194 25.7196 8.78347 25.2378 9.0751C24.7561 9.36673 24.4004 9.82751 24.2402 10.3674C24.08 10.9073 24.1269 11.4875 24.3717 11.9947C24.6165 12.5018 25.0416 12.8995 25.5639 13.11ZM25.0859 10.498C25.1899 10.2376 25.3689 10.0138 25.6 9.85511C25.8312 9.69637 26.1043 9.60975 26.3847 9.6062C26.6651 9.60265 26.9403 9.68233 27.1755 9.83516C27.4106 9.98799 27.5951 10.2071 27.7057 10.4648C27.8163 10.7225 27.848 11.0073 27.7968 11.283C27.7456 11.5587 27.6138 11.8131 27.4181 12.0139C27.2223 12.2147 26.9714 12.353 26.6971 12.4112C26.4228 12.4694 26.1373 12.445 25.8769 12.341C25.7038 12.2722 25.5459 12.1698 25.4124 12.0399C25.2789 11.9099 25.1723 11.7549 25.0989 11.5837C25.0254 11.4125 24.9864 11.2284 24.9842 11.0421C24.982 10.8558 25.0165 10.6709 25.0859 10.498Z" fill="#4A4B4D"/>
<path d="M6.43999 21.295C6.57856 21.295 6.71147 21.24 6.80945 21.142C6.90744 21.044 6.96249 20.9111 6.96249 20.7725C6.96249 20.6339 6.90744 20.501 6.80945 20.403C6.71147 20.305 6.57856 20.25 6.43999 20.25H2.07499C1.93641 20.25 1.80351 20.305 1.70553 20.403C1.60754 20.501 1.55249 20.6339 1.55249 20.7725C1.55249 20.9111 1.60754 21.044 1.70553 21.142C1.80351 21.24 1.93641 21.295 2.07499 21.295H6.43999Z" fill="#4A4B4D"/>
<path d="M3.65599 18.154C3.65639 18.0853 3.64316 18.0173 3.61706 17.9538C3.59097 17.8903 3.55254 17.8325 3.50398 17.784C3.45543 17.7354 3.39773 17.697 3.33422 17.6709C3.27071 17.6448 3.20265 17.6316 3.13399 17.632H0.522987C0.384412 17.632 0.251512 17.687 0.153524 17.785C0.0555366 17.883 0.000488281 18.0159 0.000488281 18.1545C0.000488281 18.2931 0.0555366 18.426 0.153524 18.524C0.251512 18.6219 0.384412 18.677 0.522987 18.677H3.14199C3.2101 18.6765 3.27744 18.6625 3.34015 18.6359C3.40286 18.6094 3.45972 18.5707 3.50746 18.5221C3.5552 18.4735 3.59289 18.416 3.61838 18.3528C3.64387 18.2897 3.65665 18.2221 3.65599 18.154Z" fill="#4A4B4D"/>
<path d="M48.337 21.295H52.702C52.8405 21.295 52.9734 21.24 53.0714 21.142C53.1694 21.044 53.2245 20.9111 53.2245 20.7725C53.2245 20.6339 53.1694 20.501 53.0714 20.403C52.9734 20.305 52.8405 20.25 52.702 20.25H48.337C48.1984 20.25 48.0655 20.305 47.9675 20.403C47.8695 20.501 47.8145 20.6339 47.8145 20.7725C47.8145 20.9111 47.8695 21.044 47.9675 21.142C48.0655 21.24 48.1984 21.295 48.337 21.295Z" fill="#4A4B4D"/>
<path d="M48.337 16.057H52.702C52.8405 16.057 52.9734 16.0019 53.0714 15.904C53.1694 15.806 53.2245 15.6731 53.2245 15.5345C53.2245 15.3959 53.1694 15.263 53.0714 15.165C52.9734 15.067 52.8405 15.012 52.702 15.012H48.337C48.1984 15.012 48.0655 15.067 47.9675 15.165C47.8695 15.263 47.8145 15.3959 47.8145 15.5345C47.8145 15.6731 47.8695 15.806 47.9675 15.904C48.0655 16.0019 48.1984 16.057 48.337 16.057Z" fill="#4A4B4D"/>
<path d="M51.1199 18.154C51.1195 18.2226 51.1327 18.2907 51.1588 18.3542C51.1849 18.4177 51.2233 18.4754 51.2719 18.524C51.3204 18.5725 51.3782 18.611 51.4417 18.6371C51.5052 18.6631 51.5732 18.6764 51.6419 18.676H54.2609C54.3995 18.676 54.5324 18.6209 54.6304 18.5229C54.7284 18.425 54.7834 18.2921 54.7834 18.1535C54.7834 18.0149 54.7284 17.882 54.6304 17.784C54.5324 17.686 54.3995 17.631 54.2609 17.631H51.6349C51.5667 17.6314 51.4993 17.6452 51.4364 17.6717C51.3736 17.6983 51.3166 17.7369 51.2688 17.7855C51.2209 17.8341 51.1832 17.8917 51.1576 17.9549C51.1321 18.0181 51.1192 18.0858 51.1199 18.154Z" fill="#4A4B4D"/>
</svg>
