<svg width="15" height="15" viewBox="0 0 15 15" fill="none" xmlns="http://www.w3.org/2000/svg">
<path d="M11.6718 5.35276C11.4711 5.35276 11.3084 5.5155 11.3084 5.71622V12.3536C11.3084 13.055 10.7376 13.6257 10.0362 13.6257H2.06603C1.36464 13.6257 0.793862 13.0549 0.793862 12.3536V4.38336C0.793862 3.68196 1.36464 3.11122 2.06603 3.11122H10.0362C10.2369 3.11122 10.3997 2.94847 10.3997 2.74775C10.3997 2.54702 10.2369 2.38428 10.0362 2.38428H2.06603C0.963689 2.38428 0.0668945 3.28104 0.0668945 4.38336V12.3536C0.0668945 13.4559 0.963689 14.3526 2.06603 14.3526H10.0362C11.1385 14.3526 12.0353 13.4559 12.0353 12.3536V5.71625C12.0353 5.51553 11.8726 5.35276 11.6718 5.35276Z" fill="black"/>
<path d="M14.471 0.528524C14.0328 0.0903375 13.3199 0.0905161 12.8821 0.528524L6.65617 6.75462C6.64783 6.76295 6.55394 6.86056 6.52962 6.91525L5.66745 8.85223C5.60621 8.98973 5.63601 9.15071 5.74249 9.25708C5.81206 9.32662 5.90506 9.36353 5.99966 9.36353C6.04952 9.36353 6.09974 9.35323 6.14731 9.33206L8.08432 8.46989C8.1388 8.44563 8.23656 8.35171 8.24495 8.34337L14.471 2.11749C14.6833 1.90521 14.8003 1.62304 14.8003 1.32292C14.8003 1.02282 14.6833 0.740593 14.471 0.528524ZM13.957 1.60333L7.73094 7.82943C7.7299 7.8305 7.72931 7.83175 7.7283 7.83261L6.71651 8.28303L7.16693 7.27127C7.16782 7.2702 7.16904 7.26964 7.17011 7.2686L13.3961 1.04253C13.546 0.892529 13.8074 0.892708 13.9571 1.04268C14.032 1.1174 14.0733 1.21697 14.0733 1.32292C14.0733 1.42886 14.032 1.52841 13.957 1.60333Z" fill="black"/>
</svg>
