<svg width="54" height="54" viewBox="0 0 54 54" fill="none" xmlns="http://www.w3.org/2000/svg">
<path d="M32.285 6.93501C32.46 6.31801 32.624 5.68099 32.82 5.07499C33.1585 3.83234 33.7579 2.67603 34.578 1.68299C35.2048 0.881375 36.1162 0.351957 37.1231 0.204662C38.1299 0.0573668 39.1548 0.303528 39.985 0.892009C40.9333 1.47951 41.763 2.23965 42.431 3.13301C43.0447 3.87701 43.3593 4.82286 43.3136 5.7862C43.268 6.74955 42.8653 7.66138 42.184 8.344C41.7065 8.83152 41.1835 9.27221 40.622 9.66001C40.303 9.90701 39.922 10.071 39.563 10.36C39.738 10.37 39.902 10.381 40.077 10.381H51.949C52.1037 10.3603 52.2611 10.376 52.4086 10.427C52.5562 10.4781 52.6897 10.5629 52.7986 10.6748C52.9074 10.7866 52.9886 10.9224 53.0355 11.0713C53.0825 11.2201 53.094 11.3779 53.069 11.532V17.699C53.069 18.213 53.079 18.727 53.069 19.241C53.0909 19.391 53.0775 19.5439 53.0301 19.6879C52.9827 19.8318 52.9025 19.9627 52.7959 20.0704C52.6892 20.178 52.559 20.2594 52.4155 20.3081C52.272 20.3568 52.1191 20.3715 51.969 20.351H51.188V46.335C51.188 46.51 51.198 46.674 51.188 46.849C51.186 47.1012 51.0863 47.3427 50.9099 47.5229C50.7335 47.7031 50.494 47.8078 50.242 47.815C49.985 47.836 49.728 47.825 49.471 47.825H37.815V45.862H49.183V20.392H15.746V26.95C15.931 26.899 16.095 26.858 16.246 26.806C18.0996 26.1874 19.9046 25.4316 21.646 24.545C22.2101 24.2477 22.8383 24.0925 23.476 24.093C24.1437 24.0752 24.7926 24.3151 25.2882 24.7628C25.7839 25.2106 26.0881 25.8319 26.138 26.498C26.2039 27.2173 26.1099 27.9422 25.8629 28.621C25.6158 29.2997 25.2218 29.9154 24.709 30.424C24.205 30.9375 23.6506 31.3988 23.054 31.801C22.376 32.284 21.646 32.695 20.967 33.22C21.142 33.23 21.316 33.241 21.491 33.241H32.233C33.0312 33.2153 33.8103 33.4879 34.4184 34.0056C35.0265 34.5233 35.42 35.2489 35.522 36.041C35.5473 36.484 35.5265 36.9284 35.46 37.367C35.45 37.501 35.398 37.624 35.368 37.788C37.228 38.107 38.4 39.093 38.503 41.026C38.585 42.578 37.773 43.565 35.882 44.367C35.9802 44.8653 36.0387 45.3705 36.057 45.878C36.0158 46.7002 35.6639 47.476 35.0724 48.0485C34.4809 48.6211 33.6941 48.9476 32.871 48.962C32.357 48.983 31.843 48.962 31.329 48.972H30.846C30.9225 49.4554 30.9706 49.9429 30.99 50.432C30.9619 51.2355 30.6339 51.9994 30.0707 52.5732C29.5075 53.1469 28.7499 53.489 27.947 53.532C27.69 53.542 27.433 53.542 27.176 53.542C22.776 53.542 18.367 53.532 13.968 53.552C12.3875 53.5795 10.8244 53.2197 9.41498 52.504C8.3443 51.8536 7.14488 51.4441 5.9 51.304C4.79 51.253 3.67 51.273 2.559 51.273C2.28503 51.2851 2.0106 51.2818 1.73701 51.263C1.49389 51.2436 1.26753 51.1314 1.10483 50.9497C0.942135 50.7681 0.855534 50.5308 0.862982 50.287C0.848764 50.052 0.92665 49.8208 1.08011 49.6423C1.23358 49.4638 1.45057 49.3522 1.685 49.331C3.648 49.352 5.632 49.074 7.564 49.619C8.33637 49.8413 9.08366 50.1429 9.79398 50.519C11.2441 51.2705 12.8613 51.6418 14.494 51.598C18.76 51.547 23.025 51.577 27.294 51.577C27.4824 51.5839 27.671 51.5806 27.859 51.567C28.1868 51.543 28.493 51.3944 28.7147 51.1517C28.9364 50.909 29.0567 50.5907 29.051 50.262C29.0535 49.9406 28.9338 49.6302 28.7163 49.3935C28.4987 49.1568 28.1995 49.0116 27.879 48.987C27.406 48.956 26.923 48.977 26.44 48.977C24.795 48.977 23.151 48.987 21.506 48.967C21.2199 48.9664 20.9393 48.8883 20.694 48.741C20.5329 48.6371 20.4117 48.4817 20.3501 48.3001C20.2886 48.1185 20.2903 47.9215 20.355 47.741C20.3956 47.5547 20.4938 47.3859 20.6358 47.2586C20.7778 47.1313 20.9564 47.052 21.146 47.032C21.3509 47.0096 21.5571 47.0026 21.763 47.011H32.453C32.6595 47.0178 32.8662 47.0041 33.07 46.97C33.3857 46.9142 33.6689 46.7414 33.8631 46.4863C34.0573 46.2311 34.1483 45.9122 34.118 45.593C34.1015 45.2724 33.9619 44.9705 33.7283 44.7503C33.4947 44.53 33.185 44.4085 32.864 44.411C31.939 44.39 31.014 44.39 30.089 44.39H22.945C22.69 44.3833 22.4476 44.2776 22.2692 44.0953C22.0907 43.913 21.9902 43.6684 21.9889 43.4133C21.9876 43.1583 22.0856 42.9127 22.2622 42.7286C22.4388 42.5445 22.6801 42.4363 22.935 42.427C23.089 42.417 23.243 42.427 23.398 42.427C27.273 42.427 31.138 42.427 35.013 42.417C35.32 42.4217 35.6245 42.3621 35.907 42.242C36.1567 42.1188 36.3569 41.9141 36.4747 41.6618C36.5925 41.4095 36.6208 41.1246 36.555 40.854C36.5027 40.5912 36.3691 40.3514 36.1732 40.1686C35.9773 39.9857 35.7288 39.869 35.463 39.835C35.2581 39.8126 35.0519 39.8056 34.846 39.814H21.846C21.6231 39.8226 21.3999 39.8156 21.178 39.793C20.9372 39.7616 20.7166 39.642 20.559 39.4572C20.4014 39.2724 20.318 39.0358 20.325 38.793C20.3283 38.5598 20.417 38.336 20.5741 38.1637C20.7313 37.9914 20.9461 37.8827 21.178 37.858C21.3487 37.8405 21.5204 37.8335 21.692 37.837H31.611C31.889 37.837 32.156 37.837 32.433 37.816C32.753 37.7948 33.0539 37.656 33.2778 37.4264C33.5018 37.1968 33.6329 36.8925 33.646 36.572C33.6527 36.2432 33.5362 35.9238 33.3193 35.6765C33.1024 35.4293 32.8009 35.2721 32.474 35.236C32.268 35.215 32.063 35.226 31.857 35.226H17.72C17.4872 35.2247 17.2611 35.1478 17.0757 35.007C16.8903 34.8662 16.7557 34.6689 16.692 34.445C16.6225 34.2223 16.6281 33.983 16.708 33.7638C16.7879 33.5446 16.9376 33.3578 17.134 33.232C17.545 32.954 17.967 32.698 18.388 32.441L22.058 30.159C22.8296 29.7048 23.465 29.0517 23.898 28.268C24.1387 27.8506 24.253 27.3722 24.227 26.891C24.186 26.264 23.857 25.997 23.24 26.1C23.0048 26.1442 22.7767 26.2202 22.562 26.326C20.3881 27.4172 18.1298 28.3315 15.809 29.06C14.3098 29.5646 12.9235 30.3571 11.728 31.393C10.71 32.236 9.72801 33.109 8.71601 33.952C7.77319 34.7685 6.57114 35.2239 5.32398 35.237C4.19065 35.247 3.05998 35.247 1.93198 35.237C1.79737 35.248 1.66197 35.2311 1.53415 35.1874C1.40634 35.1438 1.28888 35.0743 1.18909 34.9833C1.08931 34.8922 1.00931 34.7817 0.954107 34.6584C0.89891 34.5351 0.869706 34.4018 0.868261 34.2668C0.866817 34.1317 0.893167 33.9978 0.945715 33.8734C0.998263 33.749 1.07586 33.6367 1.17368 33.5436C1.2715 33.4505 1.38744 33.3785 1.51429 33.3321C1.64114 33.2857 1.77617 33.2659 1.91099 33.274C2.91099 33.264 3.895 33.253 4.892 33.274C5.3973 33.2955 5.90183 33.2167 6.37644 33.0419C6.85105 32.8672 7.2863 32.6 7.65699 32.256C8.60299 31.413 9.54799 30.57 10.566 29.81C11.46 29.132 12.437 28.556 13.393 27.96C13.609 27.826 13.773 27.734 13.773 27.426C13.763 25.1647 13.7597 22.9033 13.763 20.642C13.754 20.548 13.7369 20.455 13.712 20.364C13.465 20.364 13.219 20.374 12.962 20.364C12.8154 20.3826 12.6665 20.3676 12.5265 20.3201C12.3866 20.2726 12.2593 20.1939 12.1542 20.0899C12.0492 19.986 11.9692 19.8595 11.9203 19.72C11.8714 19.5806 11.8549 19.4318 11.872 19.285C11.862 16.685 11.862 14.074 11.872 11.473C11.872 10.733 12.263 10.383 13.054 10.383H24.926C25.1078 10.3939 25.2898 10.3659 25.46 10.301C25.347 10.219 25.224 10.147 25.111 10.054C24.641 9.71475 24.1946 9.34391 23.775 8.94401C23.1414 8.336 22.7641 7.50886 22.7203 6.63185C22.6764 5.75483 22.9693 4.8942 23.539 4.22599C24.165 3.38159 24.9642 2.68062 25.883 2.16999C26.5734 1.75259 27.3881 1.58989 28.1858 1.71006C28.9836 1.83024 29.7142 2.22575 30.251 2.82801C31.0166 3.66533 31.5795 4.66747 31.896 5.757C32.03 6.148 32.132 6.53801 32.245 6.93901C32.233 6.92701 32.263 6.93501 32.285 6.93501ZM28.663 12.395H13.824V18.367H28.663V12.395ZM36.208 18.346H51.063V12.385H36.211L36.208 18.346ZM33.731 10.103C33.7966 10.1177 33.8638 10.1247 33.931 10.124C35.767 9.70466 37.5448 9.06258 39.225 8.21202C39.9147 7.86121 40.5103 7.35027 40.962 6.722C41.1967 6.42267 41.3311 6.05689 41.3458 5.67677C41.3605 5.29665 41.2549 4.92158 41.044 4.60499C40.4416 3.62046 39.5671 2.83136 38.526 2.33299C38.1743 2.14613 37.7712 2.07912 37.378 2.1421C36.9847 2.20509 36.6227 2.39463 36.347 2.68199C35.8331 3.1618 35.4298 3.7477 35.165 4.399C34.5892 5.82746 34.1788 7.31717 33.942 8.839C33.857 9.26 33.796 9.68101 33.734 10.103H33.731ZM30.74 10.144C30.771 10.093 30.812 10.062 30.812 10.031C30.6351 8.31043 30.1696 6.63192 29.435 5.06599C29.2066 4.66562 28.9152 4.30466 28.572 3.99699C28.3803 3.8086 28.1342 3.68538 27.8685 3.64482C27.6028 3.60425 27.3311 3.64841 27.092 3.77101C26.1814 4.18053 25.4177 4.85844 24.903 5.714C24.7402 5.94998 24.66 6.23315 24.6748 6.51945C24.6896 6.80575 24.7987 7.07911 24.985 7.29701C25.2977 7.70243 25.6723 8.0561 26.095 8.34501C27.5461 9.17279 29.1127 9.77913 30.743 10.144H30.74ZM34.194 12.395H30.71V18.357H34.194V12.395Z" fill="#4A4B4D"/>
</svg>
