<svg width="39" height="33" viewBox="0 0 39 33" fill="none" xmlns="http://www.w3.org/2000/svg">
<path d="M34.8672 6.67805C33.9819 6.16732 33.0046 5.83614 31.9912 5.70347C30.9778 5.57081 29.9482 5.63925 28.9612 5.90489C27.9743 6.17052 27.0494 6.62812 26.2395 7.25154C25.4296 7.87495 24.7506 8.65194 24.2412 9.53804L18.8192 18.9331C17.2502 21.6541 19.2762 22.588 21.5192 23.938L26.7432 26.957C27.5918 27.445 28.5992 27.5768 29.5448 27.3236C30.4904 27.0704 31.2971 26.4528 31.7882 25.6061L37.3692 15.953C38.2589 14.3896 38.4954 12.5381 38.0272 10.8013C37.5591 9.06438 36.4241 7.58257 34.8692 6.67805" fill="#EA4335"/>
<path d="M28.7292 10.5683L23.5052 7.5493C20.6252 5.9403 18.9962 5.84132 17.8052 7.72832L10.1022 21.0553C9.59138 21.9406 9.2601 22.9179 9.12736 23.9313C8.99462 24.9448 9.06303 25.9744 9.32868 26.9614C9.59432 27.9484 10.052 28.8733 10.6755 29.6832C11.299 30.493 12.076 31.1721 12.9622 31.6813C14.5193 32.578 16.3685 32.8201 18.1039 32.3545C19.8393 31.889 21.319 30.7539 22.2182 29.1983L30.0632 15.6133C30.3117 15.1959 30.4745 14.7331 30.542 14.252C30.6096 13.7709 30.5805 13.2812 30.4566 12.8114C30.3327 12.3417 30.1164 11.9014 29.8203 11.5163C29.5242 11.1311 29.1543 10.8088 28.7322 10.5683" fill="#FBBC04"/>
<path d="M29.738 3.71507L26.064 1.59007C24.1175 0.4657 21.804 0.160625 19.6325 0.741987C17.461 1.32335 15.6094 2.7435 14.485 4.69005L7.51403 16.7901C7.26812 17.2134 7.10846 17.6812 7.04425 18.1666C6.98003 18.6519 7.01255 19.1452 7.13991 19.6179C7.26727 20.0906 7.48696 20.5335 7.7863 20.9209C8.08565 21.3083 8.45873 21.6326 8.88403 21.8751L12.995 24.2391C13.4759 24.5181 14.0072 24.6994 14.5584 24.7726C15.1096 24.8457 15.6698 24.8093 16.2068 24.6654C16.7439 24.5214 17.2472 24.2729 17.688 23.9339C18.1287 23.5949 18.4981 23.1722 18.775 22.69L26.74 8.89006C27.1324 8.21047 27.6549 7.61485 28.2775 7.13722C28.9002 6.65959 29.6108 6.30934 30.3689 6.10643C31.1269 5.90352 31.9175 5.85195 32.6955 5.95466C33.4735 6.05738 34.2236 6.31237 34.903 6.70506L29.738 3.71507Z" fill="#34A853"/>
<path d="M15.481 8.16922L11.532 5.88021C10.6834 5.39223 9.67602 5.26042 8.73044 5.51364C7.78486 5.76685 6.97816 6.38444 6.487 7.2312L1.732 15.4532C1.1746 16.4137 0.812556 17.4748 0.666718 18.5757C0.52088 19.6766 0.594122 20.7954 0.882218 21.8679C1.17031 22.9403 1.66759 23.9453 2.34544 24.8249C3.02329 25.7045 3.86834 26.4414 4.832 26.9932L7.851 28.7212L11.506 30.8262L13.095 31.7402C11.7278 30.8223 10.7615 29.4181 10.3926 27.8131C10.0237 26.2082 10.2798 24.523 11.109 23.1002L12.34 20.9752L16.849 13.1892C17.3291 12.3401 17.4545 11.3359 17.1979 10.3948C16.9414 9.45379 16.3236 8.65211 15.479 8.16421" fill="#4285F4"/>
</svg>
