<svg width="17" height="14" viewBox="0 0 17 14" fill="none" xmlns="http://www.w3.org/2000/svg">
<path d="M14.8791 1.788C14.5238 1.43254 14.1019 1.15056 13.6376 0.95818C13.1733 0.765798 12.6756 0.666779 12.1731 0.666779C11.6705 0.666779 11.1728 0.765798 10.7085 0.95818C10.2442 1.15056 9.82235 1.43254 9.46705 1.788L8.73005 2.525L7.99305 1.788C7.27525 1.07019 6.30169 0.666929 5.28655 0.666929C4.27142 0.666929 3.29786 1.07019 2.58005 1.788C1.86225 2.50581 1.45898 3.47936 1.45898 4.4945C1.45898 5.50963 1.86225 6.48319 2.58005 7.201L3.31705 7.938L8.72905 13.35L14.1411 7.938L14.8781 7.201C15.2337 6.84575 15.5159 6.42388 15.7085 5.95952C15.901 5.49516 16.0002 4.99741 16.0003 4.4947C16.0004 3.992 15.9014 3.49421 15.709 3.02978C15.5166 2.56535 15.2346 2.14338 14.8791 1.788Z" fill="#F03A16" stroke="white" stroke-linecap="round" stroke-linejoin="round"/>
</svg>
