<svg width="18" height="17" viewBox="0 0 18 17" fill="none" xmlns="http://www.w3.org/2000/svg">
<path d="M17.2831 7.61702L9.72209 0.72502C9.56338 0.579131 9.35567 0.498169 9.14009 0.498169C8.92452 0.498169 8.7168 0.579131 8.55809 0.72502L0.997093 7.61702C0.869208 7.73461 0.779742 7.88802 0.740373 8.05723C0.701003 8.22644 0.713559 8.40359 0.776402 8.56556C0.839245 8.72752 0.949455 8.86678 1.09265 8.96516C1.23584 9.06353 1.40536 9.11646 1.57909 9.11702H2.78709V16.017C2.78709 16.1496 2.83977 16.2768 2.93354 16.3706C3.02731 16.4643 3.15448 16.517 3.28709 16.517H7.42709C7.5597 16.517 7.68688 16.4643 7.78065 16.3706C7.87441 16.2768 7.92709 16.1496 7.92709 16.017V11.831H10.3581V16.025C10.3581 16.1576 10.4108 16.2848 10.5045 16.3786C10.5983 16.4723 10.7255 16.525 10.8581 16.525H15.0021C15.1347 16.525 15.2619 16.4723 15.3556 16.3786C15.4494 16.2848 15.5021 16.1576 15.5021 16.025V9.12502H16.7101C16.8838 9.12446 17.0533 9.07153 17.1965 8.97316C17.3397 8.87478 17.4499 8.73552 17.5128 8.57356C17.5756 8.41159 17.5882 8.23444 17.5488 8.06523C17.5094 7.89602 17.42 7.74261 17.2921 7.62502L17.2831 7.61702Z" fill="#B6B7B7"/>
</svg>
