<svg width="41" height="41" viewBox="0 0 41 41" fill="none" xmlns="http://www.w3.org/2000/svg">
<circle cx="20.5" cy="20.5" r="20.5" fill="#D9D9D9"/>
<path d="M20.62 11.04C22.2 11.04 23.55 11.23 24.67 11.61C25.81 11.97 26.75 12.5 27.49 13.2C28.05 13.7 28.5 14.27 28.84 14.91C29.2 15.55 29.46 16.29 29.62 17.13C29.8 17.97 29.89 18.94 29.89 20.04V28.02H11.8V19.98C11.8 18.94 11.88 18.01 12.04 17.19C12.22 16.35 12.48 15.61 12.82 14.97C13.18 14.31 13.62 13.73 14.14 13.23C14.88 12.53 15.77 11.99 16.81 11.61C17.87 11.23 19.14 11.04 20.62 11.04ZM19.21 13.17C18.37 13.17 17.63 13.38 16.99 13.8C16.35 14.22 15.83 14.78 15.43 15.48C15.11 16.04 14.85 16.73 14.65 17.55C14.47 18.35 14.38 19.35 14.38 20.55V25.98H14.53C15.89 24.96 17.1 23.89 18.16 22.77C19.22 21.65 20.05 20.51 20.65 19.35C21.27 18.19 21.58 17.06 21.58 15.96C21.58 15.4 21.49 14.92 21.31 14.52C21.15 14.1 20.9 13.77 20.56 13.53C20.22 13.29 19.77 13.17 19.21 13.17ZM24.16 16.23C24.16 17.41 23.89 18.57 23.35 19.71C22.81 20.85 22.04 22 21.04 23.16C20.04 24.3 18.85 25.47 17.47 26.67L17.41 26.07C17.99 26.03 18.56 26 19.12 25.98C19.68 25.94 20.24 25.92 20.8 25.92H27.31V20.55C27.31 19.07 27.16 17.84 26.86 16.86C26.58 15.88 26.11 15.1 25.45 14.52C24.79 13.92 23.92 13.48 22.84 13.2L22.9 12.99C23.28 13.43 23.58 13.9 23.8 14.4C24.04 14.88 24.16 15.49 24.16 16.23Z" fill="#4A4B4D"/>
</svg>
