<svg width="17" height="22" viewBox="0 0 17 22" fill="none" xmlns="http://www.w3.org/2000/svg">
<path d="M7.96712 16.784H7.5591C7.5255 16.7881 7.49146 16.7844 7.45949 16.7733C7.42752 16.7622 7.39848 16.744 7.37465 16.72C7.35081 16.696 7.33281 16.6668 7.32197 16.6347C7.31114 16.6027 7.30772 16.5686 7.31209 16.535C7.31209 16.2683 7.31209 16.0017 7.31209 15.735C7.30734 15.6999 7.31095 15.6641 7.32258 15.6306C7.33422 15.5971 7.3536 15.5668 7.3791 15.5422C7.40461 15.5176 7.43556 15.4993 7.46943 15.4888C7.50331 15.4783 7.53916 15.4761 7.57411 15.482C7.72011 15.482 7.86611 15.482 8.07411 15.482C7.91311 15.316 7.78714 15.19 7.66414 15.065C7.54025 14.9634 7.44381 14.8323 7.38368 14.6838C7.32355 14.5353 7.30159 14.374 7.3199 14.2148C7.33821 14.0556 7.3962 13.9036 7.48848 13.7726C7.58075 13.6416 7.70437 13.5358 7.8481 13.465C8.14216 13.2787 8.4912 13.1989 8.83699 13.239C9.18278 13.279 9.50441 13.4365 9.74812 13.685C10.0551 14.001 10.3481 14.331 10.6141 14.611L11.1551 14.039C10.9657 13.853 10.8515 13.6039 10.8341 13.339C10.8091 13.117 10.8941 13.018 11.1141 13.039C11.4036 13.0549 11.6754 13.183 11.8721 13.396C12.2061 13.261 12.2721 13.338 12.3341 13.903C12.4621 13.948 12.5961 13.986 12.7221 14.042C12.8481 14.098 12.9551 14.17 13.0631 14.23C13.3211 14.03 13.5811 13.83 13.8301 13.62C13.8861 13.573 13.8911 13.467 13.9301 13.393C14.0368 13.1772 14.1543 12.9669 14.2821 12.763C14.3071 12.725 14.4611 12.734 14.5261 12.772C14.9791 13.025 15.4261 13.292 15.8741 13.555C15.9075 13.5679 15.9373 13.5887 15.961 13.6156C15.9846 13.6426 16.0013 13.6749 16.0097 13.7097C16.018 13.7445 16.0178 13.7809 16.009 13.8156C16.0002 13.8503 15.9831 13.8824 15.9591 13.909C15.8311 14.093 15.7861 14.335 15.5371 14.44C15.4721 14.467 15.4611 14.64 15.4431 14.747C15.4001 14.987 15.3711 15.227 15.3331 15.489C15.4331 15.489 15.5531 15.489 15.6761 15.489C15.7062 15.4862 15.7366 15.4901 15.765 15.5004C15.7935 15.5107 15.8193 15.5271 15.8407 15.5485C15.862 15.5699 15.8784 15.5957 15.8887 15.6241C15.899 15.6525 15.9029 15.6829 15.9001 15.713C15.9001 15.993 15.9001 16.276 15.9001 16.556C15.9031 16.5879 15.899 16.62 15.888 16.6501C15.8771 16.6801 15.8596 16.7075 15.8368 16.7299C15.814 16.7524 15.7866 16.7696 15.7564 16.7801C15.7261 16.7907 15.694 16.7944 15.6621 16.791C15.5301 16.791 15.3971 16.791 15.2381 16.791C15.1641 17.163 15.0901 17.524 15.0181 17.885L14.4851 20.529C14.4271 20.818 14.4001 20.841 14.1131 20.841H9.07814C8.81114 20.841 8.77809 20.814 8.72609 20.558C8.48809 19.3673 8.25109 18.1767 8.01509 16.986C8.00509 16.923 7.98512 16.869 7.96712 16.784ZM8.42409 16.795C8.43109 16.86 8.42414 16.916 8.44014 16.97C8.65514 18.051 8.87313 19.13 9.08113 20.21C9.11213 20.374 9.17514 20.421 9.34114 20.421C10.8411 20.414 12.3411 20.421 13.8461 20.421C13.9201 20.421 13.9961 20.414 14.0791 20.41C14.3191 19.199 14.5571 18.01 14.7971 16.8L8.42409 16.795ZM7.74208 16.351H15.4561V15.911H7.74208V16.351ZM9.72908 14.297C9.51808 14.465 9.30712 14.622 9.11012 14.797C9.00512 14.889 8.9041 14.932 8.7961 14.833C8.77298 14.8136 8.75441 14.7895 8.74165 14.7622C8.7289 14.7349 8.7223 14.7051 8.7223 14.675C8.7223 14.6449 8.7289 14.6151 8.74165 14.5878C8.75441 14.5605 8.77298 14.5363 8.7961 14.517C8.84383 14.4562 8.89705 14.4 8.95509 14.349C9.11209 14.226 9.27312 14.109 9.43312 13.99C9.23975 13.7904 8.97722 13.6723 8.69954 13.6602C8.42185 13.6482 8.15013 13.7429 7.94014 13.925C7.87996 13.9685 7.83021 14.0248 7.79451 14.0899C7.75881 14.155 7.73803 14.2272 7.73372 14.3013C7.72941 14.3754 7.74163 14.4496 7.76954 14.5183C7.79746 14.5871 7.84036 14.6489 7.89509 14.699C8.00783 14.8241 8.12699 14.9433 8.25209 15.056C8.32016 15.0999 8.37181 15.1652 8.39894 15.2415C8.42607 15.3178 8.42719 15.401 8.40211 15.478H9.77009C9.67009 15.083 10.0531 15.05 10.2391 14.848C10.0791 14.674 9.92208 14.506 9.72908 14.297ZM13.2851 15.47C12.9851 14.629 12.6371 14.299 12.0451 14.315C11.7357 14.3231 11.4403 14.4461 11.2164 14.6599C10.9926 14.8738 10.8564 15.1633 10.8341 15.472C11.6481 15.47 12.4651 15.4693 13.2851 15.47ZM13.5851 15.461H14.9641C14.9621 15.0458 15.0094 14.632 15.1051 14.228C14.8291 14.067 14.5581 13.91 14.3051 13.764C14.0251 13.988 13.7671 14.192 13.5131 14.399C13.4853 14.4163 13.4614 14.4393 13.4433 14.4666C13.4252 14.4939 13.4132 14.5248 13.408 14.5572C13.4029 14.5895 13.4048 14.6226 13.4136 14.6541C13.4225 14.6857 13.438 14.715 13.4591 14.74C13.5421 14.8383 13.5975 14.9568 13.6196 15.0835C13.6418 15.2101 13.6298 15.3404 13.5851 15.461ZM15.4531 13.893C15.4691 13.868 15.4821 13.844 15.4981 13.821L14.4641 13.221L14.4241 13.293C14.7648 13.4917 15.1068 13.692 15.4501 13.894L15.4531 13.893ZM10.5371 15.47C10.5011 15.394 10.4701 15.326 10.4321 15.243C10.3271 15.315 10.2391 15.373 10.1491 15.431C10.156 15.4432 10.162 15.4559 10.1671 15.469L10.5371 15.47Z" fill="#4A4B4D" stroke="#4A4B4D" stroke-width="0.2"/>
<path d="M13.035 0.591017H1.475V20.516C1.56 20.516 1.648 20.527 1.735 20.527H7.69801C7.84401 20.527 7.97801 20.549 7.97601 20.727C7.97401 20.905 7.837 20.927 7.693 20.927H1.32901C1.08701 20.927 1.04 20.864 1.04 20.573V0.418013C1.0356 0.384617 1.03881 0.350661 1.0494 0.318686C1.06 0.286711 1.07771 0.257551 1.10119 0.233397C1.12467 0.209243 1.15332 0.190717 1.18498 0.179221C1.21664 0.167724 1.2505 0.163552 1.28401 0.167014H13.062C13.41 0.167014 13.441 0.201013 13.441 0.557013V13.115C13.448 13.272 13.434 13.436 13.235 13.438C13.036 13.44 13.035 13.27 13.035 13.115V0.873015C13.035 0.784015 13.035 0.694017 13.035 0.591017Z" fill="#4A4B4D" stroke="#4A4B4D" stroke-width="0.2"/>
<path d="M7.23303 9.10501H3.52402C3.19402 9.10501 3.15601 9.06902 3.15601 8.74602V2.44601C3.15601 2.14601 3.19903 2.10101 3.49503 2.10101H10.995C11.271 2.10101 11.325 2.15701 11.325 2.43701V8.77901C11.325 9.04801 11.264 9.104 10.982 9.104L7.23303 9.10501ZM10.897 8.67902V2.53001H3.58902V8.67902H10.897Z" fill="#4A4B4D" stroke="#4A4B4D" stroke-width="0.2"/>
<path d="M3.58203 12.411V18.591H7.33801C7.40666 18.5797 7.47695 18.5834 7.54401 18.602C7.61401 18.64 7.71001 18.721 7.70801 18.779C7.68569 18.8655 7.62994 18.9396 7.55301 18.985C7.50401 19.019 7.41602 19.001 7.34702 19.001H3.51202C3.19602 19.001 3.15503 18.961 3.15503 18.653V12.353C3.15503 12.032 3.19301 11.994 3.52301 11.994H11.087C11.228 11.994 11.322 12.068 11.318 12.209C11.314 12.35 11.224 12.409 11.089 12.409C11.013 12.409 10.934 12.409 10.858 12.409H3.82101C3.74801 12.411 3.67203 12.411 3.58203 12.411Z" fill="#4A4B4D" stroke="#4A4B4D" stroke-width="0.2"/>
<path d="M10.6329 11.092C10.4977 11.0902 10.366 11.0484 10.2545 10.9717C10.1431 10.8951 10.0568 10.7871 10.0067 10.6614C9.95655 10.5358 9.94483 10.3981 9.97297 10.2658C10.0011 10.1335 10.0678 10.0125 10.1647 9.91807C10.2617 9.82368 10.3843 9.76016 10.5173 9.73551C10.6504 9.71086 10.7877 9.72621 10.912 9.77961C11.0363 9.83301 11.142 9.92208 11.2156 10.0355C11.2893 10.149 11.3277 10.2817 11.3259 10.417C11.322 10.5979 11.2472 10.77 11.1176 10.8963C10.9879 11.0225 10.8139 11.0928 10.6329 11.092ZM10.6489 10.679C10.7203 10.6769 10.7879 10.6465 10.8368 10.5945C10.8857 10.5426 10.912 10.4733 10.9099 10.402C10.9078 10.3306 10.8775 10.2631 10.8255 10.2141C10.7736 10.1652 10.7043 10.1389 10.6329 10.141C10.5976 10.142 10.5628 10.15 10.5306 10.1645C10.4984 10.179 10.4693 10.1997 10.4451 10.2254C10.4208 10.2512 10.4019 10.2814 10.3894 10.3144C10.3768 10.3475 10.3709 10.3827 10.372 10.418C10.373 10.4533 10.381 10.4881 10.3955 10.5203C10.4099 10.5526 10.4306 10.5816 10.4564 10.6059C10.4821 10.6301 10.5123 10.649 10.5454 10.6616C10.5784 10.6741 10.6136 10.68 10.6489 10.679Z" fill="#4A4B4D" stroke="#4A4B4D" stroke-width="0.2"/>
<path d="M13.4251 18.49V19.374C13.4251 19.524 13.3851 19.65 13.2071 19.645C13.0481 19.645 13.0071 19.524 13.0071 19.38C13.0071 18.78 13.0071 18.187 13.0071 17.59C13.0071 17.438 13.0561 17.314 13.2241 17.317C13.3921 17.32 13.4241 17.44 13.4241 17.582C13.4221 17.885 13.4251 18.188 13.4251 18.49Z" fill="#4A4B4D" stroke="#4A4B4D" stroke-width="0.2"/>
<path d="M9.94196 18.479V19.365C9.94196 19.513 9.90595 19.643 9.73395 19.648C9.56195 19.653 9.52295 19.522 9.52295 19.372C9.52295 18.782 9.52295 18.1924 9.52295 17.603C9.52295 17.455 9.55196 17.32 9.72296 17.32C9.89396 17.32 9.93993 17.461 9.93793 17.62C9.93993 17.903 9.94196 18.19 9.94196 18.479Z" fill="#4A4B4D" stroke="#4A4B4D" stroke-width="0.2"/>
<path d="M11.0989 18.482C11.0989 18.782 11.0989 19.082 11.0989 19.388C11.0989 19.534 11.0539 19.646 10.8929 19.648C10.7319 19.65 10.6799 19.5361 10.6799 19.3921V17.58C10.6799 17.434 10.7319 17.322 10.8889 17.32C11.0459 17.318 11.0999 17.4301 11.0999 17.5761C11.0969 17.8771 11.0989 18.179 11.0989 18.482Z" fill="#4A4B4D" stroke="#4A4B4D" stroke-width="0.2"/>
<path d="M12.264 18.486C12.264 18.78 12.264 19.076 12.264 19.37C12.264 19.52 12.221 19.646 12.049 19.646C11.877 19.646 11.843 19.514 11.849 19.366C11.849 18.776 11.849 18.1863 11.849 17.597C11.849 17.445 11.887 17.319 12.06 17.321C12.233 17.323 12.268 17.453 12.268 17.604C12.261 17.896 12.264 18.19 12.264 18.486Z" fill="#4A4B4D" stroke="#4A4B4D" stroke-width="0.2"/>
</svg>
