<svg width="44" height="63" viewBox="0 0 44 63" fill="none" xmlns="http://www.w3.org/2000/svg">
<path d="M21.81 0.164993C18.1107 0.165968 14.4725 1.1076 11.2372 2.90137C8.00194 4.69514 5.27593 7.28213 3.31543 10.4192C1.35493 13.5562 0.224332 17.1403 0.0299108 20.8344C-0.164511 24.5286 0.58363 28.2115 2.20401 31.537C4.22001 35.586 10.12 45.565 16.375 56.131L19.42 61.28C19.6659 61.6954 20.0157 62.0396 20.4351 62.2787C20.8544 62.5178 21.3288 62.6435 21.8115 62.6435C22.2942 62.6435 22.7686 62.5178 23.188 62.2787C23.6073 62.0396 23.9571 61.6954 24.203 61.28L27.244 56.134C33.453 45.634 39.318 35.724 41.373 31.621C41.393 31.586 41.41 31.549 41.427 31.512C43.0418 28.1866 43.7851 24.5054 43.5872 20.814C43.3893 17.1226 42.2567 13.542 40.2956 10.4083C38.3346 7.27467 35.6094 4.69068 32.3759 2.89893C29.1425 1.10718 25.5067 0.166435 21.81 0.164993ZM21.81 31.875C19.6998 31.8752 17.6369 31.2496 15.8823 30.0774C14.1276 28.9051 12.76 27.2388 11.9523 25.2893C11.1447 23.3398 10.9333 21.1945 11.345 19.1248C11.7566 17.0551 12.7727 15.154 14.2649 13.6619C15.757 12.1697 17.6582 11.1536 19.7278 10.7419C21.7975 10.3303 23.9428 10.5417 25.8923 11.3493C27.8419 12.1569 29.5081 13.5246 30.6804 15.2792C31.8526 17.0339 32.4782 19.0968 32.478 21.207C32.4743 24.0352 31.3492 26.7465 29.3493 28.7463C27.3495 30.7462 24.6382 31.8713 21.81 31.875Z" fill="#030C54"/>
</svg>
