<svg width="16" height="23" viewBox="0 0 16 23" fill="none" xmlns="http://www.w3.org/2000/svg">
<path d="M7.99388 1.58197C6.80487 1.5829 5.63562 1.88607 4.59597 2.46301C3.55632 3.03994 2.6804 3.8717 2.0505 4.88015C1.4206 5.88859 1.0574 7.04061 0.995013 8.22797C0.932631 9.41534 1.17312 10.5991 1.69388 11.668C2.34188 12.968 4.23988 16.178 6.24988 19.575L7.22888 21.23C7.30782 21.3637 7.42027 21.4745 7.55513 21.5515C7.68999 21.6285 7.84259 21.669 7.99788 21.669C8.15317 21.669 8.30577 21.6285 8.44063 21.5515C8.57548 21.4745 8.68794 21.3637 8.76688 21.23L9.74488 19.576C11.7449 16.202 13.6269 13.015 14.2869 11.695C14.2929 11.684 14.2989 11.672 14.3039 11.66C14.8232 10.5906 15.0622 9.40684 14.9984 8.21979C14.9347 7.03273 14.5702 5.88135 13.9394 4.87379C13.3085 3.86622 12.4319 3.03552 11.3919 2.45971C10.3519 1.8839 9.18264 1.58186 7.99388 1.58197ZM7.99388 11.776C7.31549 11.776 6.65233 11.5748 6.08827 11.1979C5.52421 10.821 5.08458 10.2853 4.82497 9.65857C4.56536 9.03182 4.49744 8.34217 4.62978 7.67681C4.76213 7.01146 5.08881 6.40029 5.5685 5.92059C6.04819 5.4409 6.65936 5.11422 7.32472 4.98188C7.99007 4.84953 8.67973 4.91745 9.30648 5.17706C9.93323 5.43667 10.4689 5.8763 10.8458 6.44036C11.2227 7.00442 11.4239 7.66758 11.4239 8.34597C11.4218 9.25464 11.0596 10.1254 10.4167 10.7676C9.77377 11.4097 8.90255 11.7709 7.99388 11.772V11.776Z" stroke="#707070" stroke-width="1.5"/>
</svg>
