<svg width="14" height="18" viewBox="0 0 14 18" fill="none" xmlns="http://www.w3.org/2000/svg">
<path d="M6.60205 8.657C8.53205 8.657 10.1021 6.757 10.1021 4.412C10.1021 2.067 9.58305 0.167 6.60205 0.167C3.62105 0.167 3.10205 2.067 3.10205 4.412C3.10205 6.757 4.67205 8.657 6.60205 8.657Z" fill="#B6B7B7"/>
<path d="M13.1931 14.968C13.1281 10.884 12.5931 9.72001 8.51307 8.98301C7.9871 9.45463 7.30552 9.71546 6.59907 9.71546C5.89262 9.71546 5.21104 9.45463 4.68507 8.98301C0.64807 9.71201 0.0850725 10.858 0.00707245 14.835C0.00107245 15.16 -0.00192969 15.177 -0.00292969 15.135C-0.00292969 15.206 -0.00292969 15.335 -0.00292969 15.564C-0.00292969 15.564 0.969073 17.523 6.59707 17.523C12.2251 17.523 13.1971 15.564 13.1971 15.564C13.1971 15.418 13.1971 15.316 13.1971 15.247C13.1908 15.1541 13.1895 15.061 13.1931 14.968Z" fill="#B6B7B7"/>
</svg>
