<svg width="87" height="46" viewBox="0 0 87 46" fill="none" xmlns="http://www.w3.org/2000/svg">
<path d="M85.9865 15.1053C78.7175 17.0979 71.4486 19.11 64.1699 21.0832C63.6491 21.1556 63.1213 21.1621 62.5988 21.1026C62.7006 20.4772 62.7782 20.0263 62.8461 19.6045C60.7803 18.7803 58.6952 20.3027 56.513 19.3379C57.3228 17.2676 58.0697 15.3526 58.8601 13.3308H64.2136C64.7615 11.8909 65.2416 10.6352 65.7459 9.30676C63.9905 8.96254 62.2739 9.491 60.504 8.9286C60.9937 7.54199 61.4302 6.26204 61.9005 4.99179C62.0965 4.5756 62.3217 4.1738 62.5745 3.78942H68.0978C68.4906 2.60644 69.1598 1.69496 69.0773 0.298657H52.2845C50.5388 2.4416 48.6816 4.72029 46.8243 7.00383C46.8825 4.52151 48.3809 2.53372 48.7689 0.240479H43.4493C40.5689 8.11409 37.5672 15.881 34.7207 23.9292H39.9918C41.4078 20.7923 42.2564 17.5343 43.8663 14.5429C44.3464 17.6603 43.9585 20.7923 44.3561 23.9146H52.2263C51.8246 24.2013 51.3958 24.4481 50.9461 24.6516C41.6502 27.1824 32.3495 29.6792 23.0632 32.2246C21.1339 32.8091 19.1156 33.0439 17.1036 32.9179C11.2021 32.4088 7.84161 27.7157 8.95208 22.1596C9.24788 20.6808 9.68433 19.2263 10.1886 17.2531C9.04424 18.7464 8.19076 19.813 7.38579 20.9232C4.64115 24.7194 2.11471 28.6417 0.771477 33.1942C0.199272 35.1287 -0.295363 37.0923 0.208954 39.1237C1.09636 42.6823 4.80116 45.6398 8.70476 45.9161C12.1138 46.1585 15.4597 45.921 18.665 44.5732C19.9937 44.0108 21.3806 43.5696 22.7093 43.0072C31.6609 39.1867 40.6109 35.355 49.5593 31.5119C60.4166 26.8284 71.2675 22.124 82.112 17.3985C83.7462 16.6907 85.3706 15.9586 86.9999 15.2411C86.8488 15.1514 86.6812 15.0932 86.5071 15.0698C86.3329 15.0465 86.1559 15.0586 85.9865 15.1053ZM50.146 22.2323C49.9405 21.9102 49.7852 21.5587 49.6854 21.1899C49.5593 18.2179 49.4623 15.2459 49.3702 12.2739C49.3459 11.4739 49.3702 10.674 49.3702 9.88371C52.173 6.81475 54.9176 3.81366 57.6623 0.812576C57.7884 0.890148 57.9193 0.967721 58.0454 1.04529C55.4511 8.00742 52.8519 14.9696 50.146 22.2323Z" fill="black"/>
<path d="M35.6954 0.385929C32.8635 8.16257 29.8376 16.0507 26.8796 23.9825H21.1284C21.2981 20.7099 21.4727 17.4761 21.6618 13.8884C20.2798 15.5126 20.1149 17.3695 19.373 18.9403C18.6262 20.5257 18.1268 22.2323 17.5012 23.9389H12.138C15.13 15.9635 18.0783 8.10439 21.0412 0.211391C22.9178 -0.127989 24.6586 0.0417007 26.5935 0.046549C26.7115 3.44747 26.5363 6.85224 26.0698 10.2231C26.254 10.2764 26.4431 10.3298 26.6322 10.3831C27.8833 7.11049 29.1344 3.84275 30.4583 0.385929H35.6954Z" fill="black"/>
<path d="M42.2031 0.250175C39.2402 8.16257 36.3016 16.0119 33.3387 23.9292H27.9755C30.9917 15.8859 33.9303 8.03651 36.8544 0.250175H42.2031Z" fill="black"/>
</svg>
