<svg width="23" height="23" viewBox="0 0 23 23" fill="none" xmlns="http://www.w3.org/2000/svg">
<path d="M6.59379 16.615C6.44579 16.474 6.3358 16.368 6.2368 16.272C6.23309 16.1809 6.24014 16.0896 6.25779 16C6.72079 14.555 7.1838 13.106 7.6638 11.664C7.74625 11.4405 7.87666 11.2378 8.04582 11.07C11.3792 7.72737 14.7175 4.38904 18.0608 1.05504C18.1758 0.914095 18.3207 0.800499 18.485 0.722488C18.6493 0.644478 18.8289 0.604004 19.0108 0.604004C19.1927 0.604004 19.3723 0.644478 19.5366 0.722488C19.7009 0.800499 19.8458 0.914095 19.9608 1.05504C20.5608 1.63804 21.1608 2.23504 21.7458 2.83604C21.8913 2.95329 22.0083 3.10208 22.0879 3.27118C22.1675 3.44028 22.2076 3.62524 22.2052 3.81212C22.2028 3.99899 22.1579 4.18288 22.074 4.34987C21.9901 4.51686 21.8693 4.66259 21.7208 4.77605C19.6748 6.83271 17.6251 8.8847 15.5718 10.932C14.3418 12.162 13.1048 13.388 11.8828 14.625C11.6214 14.9006 11.2941 15.105 10.9318 15.219C9.50181 15.672 8.07779 16.138 6.59379 16.615ZM19.3148 5.83005C18.5408 5.04505 17.7458 4.24305 17.0288 3.51505C14.3288 6.21504 11.6118 8.93204 8.95082 11.59C9.68982 12.332 10.4848 13.134 11.2368 13.89C13.9158 11.219 16.6298 8.51205 19.3148 5.83005ZM20.1518 5.13004C20.6435 4.73498 21.0671 4.26205 21.4058 3.73004C20.6435 2.88731 19.8328 2.08964 18.9778 1.34105L17.7588 2.71904C18.5268 3.48704 19.3248 4.28971 20.1528 5.12704L20.1518 5.13004ZM8.27879 12.519C7.97879 13.445 7.67079 14.392 7.35679 15.3671C8.35723 15.217 9.32577 14.9017 10.2228 14.434C9.59779 13.813 8.96479 13.191 8.27879 12.516V12.519Z" fill="#4A4B4D"/>
<path d="M18.7989 11.234C19.1909 11.358 19.1809 11.651 19.1839 11.934C19.1872 12.994 19.1872 14.054 19.1839 15.114C19.1839 16.436 19.1489 17.754 19.1909 19.075C19.2078 19.4849 19.1396 19.894 18.9906 20.2763C18.8416 20.6586 18.6151 21.0059 18.3253 21.2964C18.0355 21.5868 17.6887 21.8141 17.3067 21.964C16.9248 22.1138 16.5159 22.1829 16.1059 22.167C12.0669 22.132 8.02391 22.153 3.98191 22.16C3.43909 22.195 2.89726 22.0779 2.4173 21.822C1.93734 21.566 1.53827 21.1812 1.26491 20.711C0.998353 20.2601 0.863575 19.7436 0.875907 19.22C0.875907 15.079 0.861911 10.941 0.882911 6.79898C0.865794 6.4062 0.93097 6.01416 1.07426 5.64804C1.21754 5.28192 1.43576 4.9498 1.71494 4.67297C1.99412 4.39615 2.32809 4.18074 2.69541 4.04056C3.06273 3.90038 3.45528 3.83854 3.84791 3.85898C6.24791 3.83798 8.6479 3.85199 11.0479 3.85199C11.3699 3.85199 11.7049 3.84098 11.7969 4.25198C11.7329 4.67598 11.4329 4.69397 11.1219 4.69397H7.8819C6.6029 4.69397 5.31992 4.69397 4.04092 4.69397C3.72985 4.65515 3.41402 4.68727 3.11712 4.78787C2.82022 4.88848 2.54994 5.05498 2.32654 5.2749C2.10315 5.49483 1.93245 5.76248 1.82722 6.05777C1.72198 6.35306 1.68495 6.66834 1.71891 6.97998C1.71158 11.0193 1.71158 15.0597 1.71891 19.101C1.69416 19.3928 1.73265 19.6866 1.83175 19.9622C1.93085 20.2379 2.08822 20.4889 2.29314 20.6982C2.49807 20.9075 2.74571 21.0701 3.0192 21.175C3.29269 21.2799 3.58559 21.3246 3.87791 21.306C7.98057 21.32 12.0806 21.32 16.1779 21.306C16.4703 21.3248 16.7633 21.2801 17.0368 21.1749C17.3103 21.0697 17.5578 20.9066 17.7623 20.6967C17.9667 20.4868 18.1233 20.2352 18.2213 19.959C18.3193 19.6829 18.3563 19.3888 18.3299 19.097C18.3369 16.736 18.3299 14.376 18.3299 12.015C18.3469 11.678 18.2979 11.312 18.7989 11.234Z" fill="#4A4B4D"/>
<path d="M15.5239 19.778C15.5199 19.8387 15.5038 19.8981 15.4767 19.9526C15.4496 20.007 15.4119 20.0556 15.3658 20.0954C15.3198 20.1352 15.2663 20.1655 15.2085 20.1845C15.1506 20.2035 15.0896 20.2108 15.0289 20.206C14.9289 20.206 14.8289 20.213 14.7289 20.213H5.32195C5.14495 20.213 4.96494 20.192 4.81694 20.181C4.47794 19.916 4.47094 19.676 4.81694 19.4C4.97994 19.393 5.17692 19.3751 5.37492 19.3751C8.49159 19.3717 11.6073 19.3717 14.7219 19.3751C15.0509 19.3751 15.4289 19.312 15.5239 19.778Z" fill="#4A4B4D"/>
</svg>
