<svg width="17" height="17" viewBox="0 0 17 17" fill="none" xmlns="http://www.w3.org/2000/svg">
<path d="M16.9279 15.777L15.7549 5.29297C15.7419 5.1769 15.6865 5.0697 15.5995 4.99185C15.5124 4.91401 15.3997 4.87098 15.2829 4.87097H2.3599C2.24311 4.87098 2.13041 4.91401 2.04334 4.99185C1.95627 5.0697 1.90094 5.1769 1.8879 5.29297L0.713904 15.777C0.706445 15.8434 0.713092 15.9107 0.733409 15.9743C0.753726 16.038 0.787256 16.0967 0.831808 16.1465C0.876359 16.1964 0.930927 16.2362 0.991945 16.2635C1.05296 16.2909 1.11906 16.305 1.1859 16.305H16.4559C16.5227 16.305 16.5888 16.2909 16.6499 16.2635C16.7109 16.2362 16.7654 16.1964 16.81 16.1465C16.8546 16.0967 16.8881 16.038 16.9084 15.9743C16.9287 15.9107 16.9354 15.8434 16.9279 15.777Z" fill="#B6B7B7"/>
<path d="M16.9288 15.777L15.7568 5.29297C15.7437 5.1769 15.6884 5.0697 15.6013 4.99185C15.5143 4.91401 15.4016 4.87098 15.2848 4.87097H8.82178V16.305H16.4548C16.5216 16.305 16.5877 16.2909 16.6487 16.2635C16.7098 16.2362 16.7643 16.1964 16.8089 16.1465C16.8534 16.0967 16.8869 16.038 16.9073 15.9743C16.9276 15.9107 16.9342 15.8434 16.9268 15.777H16.9288Z" fill="#B6B7B7"/>
<path d="M5.76592 8.30698C6.29059 8.30698 6.71592 7.88165 6.71592 7.35698C6.71592 6.83231 6.29059 6.40698 5.76592 6.40698C5.24125 6.40698 4.81592 6.83231 4.81592 7.35698C4.81592 7.88165 5.24125 8.30698 5.76592 8.30698Z" fill="#B6B7B7"/>
<path d="M11.879 8.30698C12.4036 8.30698 12.829 7.88165 12.829 7.35698C12.829 6.83231 12.4036 6.40698 11.879 6.40698C11.3543 6.40698 10.929 6.83231 10.929 7.35698C10.929 7.88165 11.3543 8.30698 11.879 8.30698Z" fill="#B6B7B7"/>
<path d="M11.879 7.67398C11.753 7.67398 11.6322 7.62394 11.5431 7.53486C11.4541 7.44578 11.404 7.32496 11.404 7.19898V4.03198C11.404 3.34732 11.132 2.69071 10.6479 2.20658C10.1638 1.72246 9.50718 1.45048 8.82252 1.45048C8.13787 1.45048 7.48125 1.72246 6.99713 2.20658C6.513 2.69071 6.24102 3.34732 6.24102 4.03198V7.19898C6.24102 7.26136 6.22873 7.32313 6.20486 7.38076C6.18099 7.43839 6.146 7.49075 6.10189 7.53486C6.05779 7.57896 6.00543 7.61395 5.9478 7.63782C5.89017 7.66169 5.8284 7.67398 5.76602 7.67398C5.70364 7.67398 5.64187 7.66169 5.58424 7.63782C5.52661 7.61395 5.47425 7.57896 5.43014 7.53486C5.38603 7.49075 5.35105 7.43839 5.32718 7.38076C5.3033 7.32313 5.29103 7.26136 5.29103 7.19898V4.03198C5.28314 3.56322 5.36865 3.09757 5.54258 2.6622C5.71652 2.22683 5.97538 1.83044 6.30409 1.49615C6.6328 1.16186 7.02478 0.896358 7.45717 0.715124C7.88955 0.53389 8.35369 0.440552 8.82252 0.440552C9.29135 0.440552 9.75549 0.53389 10.1879 0.715124C10.6203 0.896358 11.0122 1.16186 11.3409 1.49615C11.6697 1.83044 11.9285 2.22683 12.1025 2.6622C12.2764 3.09757 12.3619 3.56322 12.354 4.03198V7.19898C12.354 7.26136 12.3417 7.32313 12.3179 7.38076C12.294 7.43839 12.259 7.49075 12.2149 7.53486C12.1708 7.57896 12.1184 7.61395 12.0608 7.63782C12.0032 7.66169 11.9414 7.67398 11.879 7.67398Z" fill="#B6B7B7"/>
<path d="M8.82178 0.499023V1.44902C9.50606 1.44982 10.1621 1.722 10.6459 2.20586C11.1298 2.68972 11.402 3.34574 11.4028 4.03002V7.19902C11.4028 7.325 11.4528 7.44582 11.5419 7.5349C11.631 7.62398 11.7518 7.67402 11.8778 7.67402C12.0038 7.67402 12.1246 7.62398 12.2137 7.5349C12.3027 7.44582 12.3528 7.325 12.3528 7.19902V4.03202C12.352 3.0956 11.9798 2.19774 11.3178 1.5354C10.6558 0.873062 9.7582 0.500347 8.82178 0.499023Z" fill="#B6B7B7"/>
</svg>
