<svg width="50" height="16" viewBox="0 0 50 16" fill="none" xmlns="http://www.w3.org/2000/svg">
<path d="M48.9802 4.48167C48.7592 3.85197 48.3481 3.30643 47.8037 2.9204C47.2593 2.53438 46.6085 2.32691 45.9412 2.32667H45.9112C45.4773 2.32609 45.0478 2.41352 44.6487 2.58368C44.2496 2.75385 43.8892 3.0032 43.5892 3.31667C43.2892 3.00351 42.9289 2.75435 42.53 2.5842C42.1311 2.41406 41.7018 2.32645 41.2682 2.32667H41.2412C40.4701 2.32515 39.7243 2.60214 39.1412 3.10667V2.85967C39.1326 2.74028 39.0792 2.62857 38.9916 2.54695C38.9041 2.46533 38.7889 2.41986 38.6692 2.41967H36.5112C36.4486 2.41967 36.3866 2.43201 36.3288 2.456C36.271 2.47998 36.2185 2.51513 36.1742 2.55944C36.13 2.60374 36.095 2.65634 36.0711 2.7142C36.0473 2.77207 36.035 2.83407 36.0352 2.89667V14.5967C36.0346 14.6595 36.0466 14.7218 36.0703 14.7801C36.0939 14.8383 36.1289 14.8912 36.1732 14.9358C36.2174 14.9805 36.2701 15.0159 36.3281 15.0401C36.3861 15.0642 36.4483 15.0767 36.5112 15.0767H38.6662C38.7808 15.0765 38.8915 15.0347 38.9778 14.9592C39.064 14.8836 39.1199 14.7793 39.1352 14.6657V6.26567C39.1336 6.23769 39.1336 6.20964 39.1352 6.18167C39.1498 5.99077 39.2338 5.81182 39.3712 5.67849C39.5085 5.54515 39.6899 5.46662 39.8812 5.45767H40.2812C40.4469 5.46991 40.6053 5.53117 40.7362 5.63367C40.8294 5.7095 40.9041 5.80553 40.9547 5.91451C41.0053 6.02348 41.0304 6.14254 41.0282 6.26267L41.0362 14.6207C41.0362 14.7471 41.0863 14.8684 41.1755 14.958C41.2647 15.0475 41.3857 15.0981 41.5122 15.0987H43.6642C43.7863 15.098 43.9036 15.0504 43.9916 14.9657C44.0797 14.881 44.1318 14.7657 44.1372 14.6437V6.25267C44.1339 6.11964 44.1643 5.98796 44.2255 5.86979C44.2867 5.75163 44.3767 5.65081 44.4872 5.57667C44.6077 5.50044 44.745 5.45478 44.8872 5.44367H45.2872C45.4921 5.45428 45.6849 5.54444 45.8244 5.69497C45.9639 5.84549 46.0391 6.0445 46.0342 6.24967L46.0412 14.5997C46.0412 14.7251 46.0906 14.8456 46.1788 14.9349C46.2669 15.0241 46.3867 15.0751 46.5122 15.0767H48.6672C48.7935 15.0764 48.9146 15.026 49.0038 14.9366C49.0931 14.8472 49.1432 14.726 49.1432 14.5997V5.62167C49.163 5.23471 49.1076 4.84757 48.9802 4.48167Z" fill="#54C1F0"/>
<path d="M34.3943 2.44972H33.1613V0.449719V0.446719C33.1613 0.33135 33.1154 0.220706 33.0339 0.139127C32.9523 0.0575489 32.8416 0.0117188 32.7263 0.0117188C32.6993 0.0125568 32.6726 0.0159047 32.6463 0.0217187C31.2783 0.396719 31.5523 2.28872 29.0583 2.44972H28.8163C28.7826 2.45034 28.7491 2.45436 28.7163 2.46172C28.6108 2.4851 28.5164 2.54368 28.4486 2.62782C28.3808 2.71196 28.3437 2.81667 28.3433 2.92472V5.08072C28.3435 5.20705 28.3939 5.32812 28.4833 5.41736C28.5728 5.5066 28.6939 5.55672 28.8203 5.55672H30.1203V14.6937C30.1203 14.8186 30.1699 14.9384 30.2582 15.0268C30.3465 15.1151 30.4663 15.1647 30.5913 15.1647H32.7213C32.846 15.1645 32.9655 15.1147 33.0537 15.0264C33.1418 14.9381 33.1913 14.8185 33.1913 14.6937V5.56072H34.3943C34.5204 5.56045 34.6413 5.51022 34.7306 5.42101C34.8198 5.3318 34.87 5.21088 34.8703 5.08472V2.92572C34.87 2.79956 34.8198 2.67864 34.7306 2.58943C34.6413 2.50022 34.5204 2.44998 34.3943 2.44972Z" fill="#54C1F0"/>
<path d="M26.6419 2.45068H24.4879C24.3618 2.45095 24.241 2.50122 24.1519 2.59045C24.0629 2.67969 24.0129 2.80061 24.0129 2.92668V7.38268C24.0129 7.51529 23.9602 7.64247 23.8664 7.73624C23.7727 7.83001 23.6455 7.88268 23.5129 7.88268H22.6129C22.5467 7.88348 22.481 7.87113 22.4197 7.84636C22.3583 7.82159 22.3025 7.78488 22.2554 7.73838C22.2084 7.69187 22.171 7.63648 22.1455 7.57542C22.12 7.51437 22.1069 7.44885 22.1069 7.38268L22.0919 2.92668C22.0916 2.80035 22.0412 2.67928 21.9518 2.59004C21.8624 2.5008 21.7412 2.45068 21.6149 2.45068H19.4609C19.3346 2.45068 19.2136 2.50083 19.1243 2.5901C19.035 2.67937 18.9849 2.80044 18.9849 2.92668V7.80968C18.968 8.23155 19.0386 8.65235 19.1923 9.04557C19.3461 9.4388 19.5795 9.79593 19.8781 10.0945C20.1766 10.393 20.5338 10.6265 20.927 10.7802C21.3202 10.934 21.741 11.0046 22.1629 10.9877C22.1629 10.9877 23.5559 10.9877 23.5979 10.9957C23.7305 10.9948 23.858 11.0465 23.9525 11.1397C24.0469 11.2328 24.1004 11.3596 24.1014 11.4922C24.1023 11.6248 24.0505 11.7523 23.9574 11.8468C23.8643 11.9412 23.7375 11.9948 23.6049 11.9957L23.5689 12.0027L20.4179 12.0137C20.2916 12.0137 20.1706 12.0638 20.0813 12.1531C19.992 12.2424 19.9419 12.3634 19.9419 12.4897V14.6437C19.9419 14.7699 19.992 14.891 20.0813 14.9803C20.1706 15.0695 20.2916 15.1197 20.4179 15.1197H23.9399C24.3621 15.1369 24.7834 15.0664 25.177 14.9126C25.5706 14.7588 25.9281 14.5251 26.2268 14.2262C26.5255 13.9273 26.759 13.5696 26.9126 13.1759C27.0661 12.7822 27.1364 12.3609 27.1189 11.9387V2.92668C27.1189 2.86409 27.1065 2.80211 27.0825 2.7443C27.0586 2.68648 27.0234 2.63396 26.9791 2.58975C26.9348 2.54553 26.8822 2.51049 26.8243 2.48663C26.7665 2.46277 26.7045 2.45055 26.6419 2.45068Z" fill="#233266"/>
<path d="M5.78603 6.39781V7.72381C5.78604 7.85698 5.73356 7.98478 5.63996 8.0795C5.54636 8.17423 5.41919 8.22823 5.28603 8.22981H3.91403V5.56981H5.28203C5.41464 5.56981 5.54182 5.62249 5.63559 5.71626C5.72936 5.81003 5.78203 5.9372 5.78203 6.06981L5.78603 6.39781ZM5.97603 2.44881H1.26603C1.14218 2.44881 1.0234 2.49801 0.935816 2.58559C0.848236 2.67317 0.799035 2.79196 0.799035 2.91581V5.02381C0.799035 5.02381 0.799035 5.03181 0.799035 5.03581C0.799035 5.03981 0.799035 5.05581 0.799035 5.06481V14.6238C0.795438 14.7444 0.838949 14.8616 0.920342 14.9507C1.00174 15.0397 1.11461 15.0936 1.23503 15.1008H3.43503C3.56128 15.1008 3.68235 15.0507 3.77162 14.9614C3.86088 14.8721 3.91103 14.7511 3.91103 14.6248L3.91903 11.3498H5.97603C6.36513 11.3679 6.75371 11.3046 7.11695 11.164C7.48019 11.0233 7.81009 10.8084 8.08557 10.5331C8.36104 10.2577 8.57603 9.92786 8.71679 9.56467C8.85755 9.20148 8.92098 8.81291 8.90303 8.42381V5.38281C8.92199 4.99314 8.8593 4.60381 8.71899 4.23978C8.57868 3.87575 8.36385 3.54506 8.08827 3.26891C7.81268 2.99276 7.48243 2.77725 7.11869 2.63619C6.75495 2.49514 6.36575 2.43166 5.97603 2.44981" fill="#233266"/>
<path d="M14.7238 11.458V11.794C14.7232 11.8205 14.7206 11.8469 14.7158 11.873C14.6924 11.9876 14.6296 12.0904 14.5382 12.1635C14.4469 12.2366 14.3328 12.2753 14.2158 12.273H13.3238C13.2588 12.2752 13.194 12.2646 13.1331 12.2417C13.0723 12.2188 13.0165 12.1841 12.9691 12.1396C12.9217 12.0951 12.8836 12.0416 12.8569 11.9823C12.8303 11.923 12.8156 11.859 12.8138 11.794V11.388C12.8138 11.383 12.8138 11.378 12.8138 11.373V9.94996C12.8163 9.88547 12.8314 9.82209 12.8584 9.76345C12.8853 9.70481 12.9236 9.65206 12.971 9.60822C13.0183 9.56439 13.0739 9.53032 13.1344 9.50796C13.195 9.48561 13.2593 9.47542 13.3238 9.47796H14.2238C14.2883 9.47569 14.3526 9.48615 14.4131 9.50875C14.4735 9.53135 14.5289 9.56564 14.5761 9.60966C14.6232 9.65368 14.6613 9.70657 14.688 9.76531C14.7147 9.82404 14.7296 9.88747 14.7318 9.95196L14.7238 11.458ZM14.3838 2.46296H11.3938C11.2712 2.45918 11.1522 2.50408 11.0626 2.58784C10.973 2.6716 10.9203 2.78741 10.9158 2.90996V3.74796C10.9158 3.75296 10.9158 3.75896 10.9158 3.76396C10.9158 3.76896 10.9158 3.77596 10.9158 3.78196V4.93096C10.9208 5.06094 10.977 5.18367 11.0722 5.27231C11.1674 5.36095 11.2938 5.40829 11.4238 5.40396H14.2688C14.3816 5.41978 14.4855 5.47359 14.5635 5.5565C14.6415 5.63942 14.6889 5.74647 14.6978 5.85996V6.13796C14.6908 6.2488 14.6452 6.3537 14.5691 6.43457C14.493 6.51544 14.391 6.56722 14.2808 6.58096H12.8718C12.4606 6.55048 12.0474 6.60539 11.6584 6.74226C11.2694 6.87913 10.9129 7.09499 10.6114 7.37627C10.3098 7.65755 10.0697 7.99817 9.90609 8.37673C9.74251 8.75528 9.659 9.16358 9.66082 9.57596V12.081C9.63805 12.4807 9.70058 12.8807 9.84425 13.2544C9.98792 13.6282 10.2094 13.967 10.4941 14.2486C10.7788 14.5302 11.1201 14.7479 11.4954 14.8875C11.8707 15.027 12.2714 15.0851 12.6708 15.058H16.5778C16.9032 15.0688 17.2197 14.9501 17.4577 14.728C17.6958 14.5058 17.8361 14.1984 17.8478 13.873V5.69396C17.8478 3.71196 16.8258 2.45996 14.3838 2.45996" fill="#233266"/>
</svg>
