<svg width="23" height="21" viewBox="0 0 23 21" fill="none" xmlns="http://www.w3.org/2000/svg">
<path d="M6.15893 10.179V1.76502C6.13624 1.5135 6.17623 1.26029 6.27535 1.02802C6.37448 0.795749 6.52963 0.591668 6.72692 0.434027C6.92111 0.286556 7.15379 0.198353 7.39694 0.180029C9.98994 0.162029 12.5859 0.165026 15.1799 0.171026C15.4843 0.190675 15.7721 0.316736 15.9929 0.527151C16.2138 0.737566 16.3536 1.01894 16.3879 1.32203C16.4146 1.48465 16.4277 1.64923 16.4269 1.81403C16.4269 7.37803 16.4269 12.9417 16.4269 18.505C16.4578 18.8986 16.3715 19.2924 16.1789 19.637C16.0653 19.8309 15.9017 19.9906 15.7052 20.0995C15.5087 20.2084 15.2865 20.2625 15.0619 20.256C12.6046 20.25 10.1473 20.25 7.68994 20.256C7.48415 20.278 7.27604 20.2538 7.08077 20.1852C6.88551 20.1167 6.70797 20.0055 6.56106 19.8597C6.41415 19.714 6.30155 19.5373 6.23147 19.3426C6.16139 19.1479 6.13558 18.94 6.15591 18.734C6.14691 18.134 6.15591 17.534 6.15591 16.926C6.15791 14.676 6.15893 12.427 6.15893 10.179ZM6.75894 1.79903V17.763H15.8249V1.79903H6.75894ZM10.5449 18.946C10.5368 19.0939 10.5727 19.2408 10.6482 19.3682C10.7236 19.4956 10.8352 19.5977 10.9687 19.6617C11.1023 19.7256 11.2518 19.7485 11.3983 19.7274C11.5449 19.7063 11.6819 19.6422 11.792 19.5432C11.9021 19.4442 11.9803 19.3147 12.0168 19.1712C12.0532 19.0277 12.0463 18.8766 11.9968 18.7371C11.9473 18.5975 11.8575 18.4758 11.7388 18.3873C11.6201 18.2988 11.4778 18.2476 11.3299 18.24C11.1327 18.2302 10.9396 18.299 10.793 18.4314C10.6464 18.5637 10.5583 18.7488 10.5479 18.946H10.5449ZM11.2879 0.77503C10.9319 0.77503 10.5759 0.763027 10.2219 0.781027C10.1219 0.787027 10.0219 0.881034 9.92193 0.935034C10.0159 0.986034 10.1089 1.08002 10.2059 1.08002C10.9246 1.09202 11.6449 1.09202 12.3669 1.08002C12.4609 1.08002 12.5539 0.980028 12.6479 0.932028C12.5479 0.878028 12.4479 0.784027 12.3479 0.781027C12.0029 0.763027 11.6469 0.77503 11.2879 0.77503Z" fill="#4A4B4D"/>
<path d="M21.3591 10.071C21.3721 8.53218 20.8174 7.04252 19.8011 5.88699C19.7185 5.80203 19.6448 5.7089 19.5811 5.60901C19.5233 5.53015 19.4958 5.43315 19.5035 5.33569C19.5112 5.23824 19.5536 5.1468 19.6231 5.078C19.6963 5.01305 19.7907 4.97717 19.8886 4.97717C19.9865 4.97717 20.0809 5.01305 20.1541 5.078C20.2434 5.14085 20.3244 5.21477 20.3951 5.298C21.5522 6.59653 22.191 8.27539 22.1899 10.0146C22.1888 11.7539 21.5478 13.432 20.3891 14.729C20.1081 15.037 19.8331 15.115 19.6341 14.943C19.4351 14.771 19.4861 14.478 19.7551 14.173C20.7765 13.0498 21.3476 11.5892 21.3591 10.071Z" fill="#4A4B4D"/>
<path d="M0.386989 9.99201C0.391522 8.27118 1.02494 6.61137 2.168 5.32501C2.21 5.27701 2.253 5.22502 2.298 5.18302C2.37303 5.08357 2.48305 5.01635 2.60579 4.995C2.72852 4.97364 2.85479 4.99976 2.959 5.06803C3.0007 5.11386 3.03282 5.16756 3.05348 5.22598C3.07413 5.28441 3.0829 5.34635 3.07927 5.40821C3.07563 5.47007 3.05966 5.53058 3.03231 5.58618C3.00496 5.64179 2.96678 5.69136 2.91999 5.732C2.38626 6.299 1.96604 6.96298 1.682 7.68802C1.24097 8.76463 1.11377 9.94412 1.31517 11.09C1.51656 12.2359 2.03829 13.3013 2.81999 14.163C2.93989 14.2969 3.02416 14.4589 3.065 14.634C3.07706 14.6933 3.07261 14.7547 3.05214 14.8116C3.03166 14.8685 2.99594 14.9187 2.94888 14.9566C2.90182 14.9946 2.84523 15.0189 2.78529 15.0269C2.72535 15.0349 2.66436 15.0263 2.60899 15.002C2.44954 14.9356 2.30779 14.8328 2.19499 14.702C1.02692 13.4119 0.382209 11.7324 0.386989 9.99201Z" fill="#4A4B4D"/>
<path d="M2.72107 9.992C2.71787 8.81278 3.12196 7.66865 3.86505 6.75302C3.93586 6.65753 4.0193 6.57209 4.11307 6.49902C4.18303 6.4312 4.27476 6.39035 4.37198 6.38376C4.46919 6.37717 4.56557 6.40525 4.64404 6.46301C4.72029 6.53051 4.76937 6.62348 4.78207 6.72452C4.79477 6.82555 4.77022 6.92776 4.71304 7.01202C4.6741 7.08426 4.62641 7.15142 4.57104 7.212C3.91734 7.98747 3.55685 8.96795 3.55246 9.98218C3.54807 10.9964 3.90009 11.9799 4.54706 12.761C4.64733 12.8658 4.71897 12.9946 4.75507 13.135C4.76514 13.2036 4.76035 13.2736 4.74103 13.3402C4.7217 13.4068 4.6883 13.4685 4.64307 13.521C4.58216 13.5534 4.51538 13.5733 4.44669 13.5794C4.37799 13.5856 4.30875 13.578 4.24304 13.557C4.12462 13.5099 4.02102 13.4318 3.94305 13.331C3.14656 12.4017 2.71261 11.2159 2.72107 9.992Z" fill="#4A4B4D"/>
<path d="M19.864 10.058C19.8615 11.2379 19.4438 12.3793 18.684 13.282C18.5889 13.4033 18.4684 13.5024 18.3309 13.572C18.2685 13.6083 18.1964 13.6245 18.1244 13.6185C18.0524 13.6125 17.984 13.5845 17.9284 13.5384C17.8728 13.4923 17.8327 13.4302 17.8135 13.3606C17.7943 13.291 17.7969 13.2171 17.821 13.149C17.8612 13.01 17.9311 12.8814 18.026 12.772C18.6762 11.9934 19.0319 11.0109 19.0308 9.99643C19.0297 8.98199 18.6719 8.00026 18.02 7.22302C17.775 6.92302 17.739 6.63102 17.926 6.46802C18.113 6.30502 18.4179 6.38702 18.6749 6.69702C19.4585 7.6402 19.8802 8.8319 19.864 10.058Z" fill="#4A4B4D"/>
</svg>
