<svg width="49" height="48" viewBox="0 0 49 48" fill="none" xmlns="http://www.w3.org/2000/svg">
<path d="M43.5454 28.3106C46.0384 17.7529 39.5007 7.17332 28.943 4.68032C18.3854 2.18733 7.80579 8.72501 5.31279 19.2826C2.8198 29.8403 9.35748 40.4199 19.9151 42.9129C30.4727 45.4059 41.0524 38.8682 43.5454 28.3106Z" fill="#5F259F"/>
<path d="M33.344 18.6701C33.3373 18.2937 33.1848 17.9346 32.9186 17.6684C32.6525 17.4023 32.2934 17.2498 31.917 17.2431H29.283L23.248 10.3301C22.9672 10.0126 22.6015 9.78191 22.194 9.66533C21.7865 9.54875 21.3542 9.5511 20.948 9.6721L18.863 10.3301C18.7887 10.3554 18.7217 10.3984 18.6676 10.4553C18.6135 10.5122 18.574 10.5813 18.5525 10.6568C18.531 10.7323 18.5281 10.8118 18.544 10.8887C18.5599 10.9655 18.5942 11.0374 18.644 11.0981L25.228 17.3531H15.238C15.1647 17.3486 15.0913 17.3597 15.0226 17.3856C14.954 17.4116 14.8916 17.4519 14.8397 17.5038C14.7878 17.5557 14.7475 17.6181 14.7215 17.6868C14.6955 17.7554 14.6844 17.8288 14.689 17.9021V19.0021C14.6972 19.3774 14.8503 19.735 15.1164 19.9999C15.3824 20.2648 15.7406 20.4165 16.116 20.4231H17.652V25.6931C17.652 29.6431 19.737 31.9481 23.252 31.9481C24.3029 31.9798 25.349 31.7928 26.324 31.3991V34.9101C26.3209 35.1416 26.3642 35.3713 26.4513 35.5857C26.5385 35.8002 26.6677 35.995 26.8314 36.1587C26.9951 36.3223 27.1899 36.4516 27.4043 36.5387C27.6188 36.6259 27.8485 36.6692 28.08 36.6661H29.616C29.7866 36.6544 29.9473 36.5813 30.0683 36.4604C30.1892 36.3394 30.2623 36.1788 30.274 36.0081V20.3161H32.798C32.8713 20.3206 32.9447 20.3095 33.0133 20.2836C33.082 20.2576 33.1443 20.2173 33.1962 20.1654C33.2482 20.1135 33.2884 20.0511 33.3144 19.9824C33.3404 19.9138 33.3515 19.8404 33.347 19.7671L33.344 18.6701ZM26.321 28.1071C25.6296 28.4101 24.8807 28.5599 24.126 28.5461C22.37 28.5461 21.492 27.6681 21.492 25.6931V20.4231H26.32L26.321 28.1071Z" fill="white"/>
</svg>
