<svg width="35" height="35" viewBox="0 0 35 35" fill="none" xmlns="http://www.w3.org/2000/svg">
<path d="M12.688 3.06702H3.02197V12.733H12.688V3.06702ZM11.346 11.386H4.36897V4.40901H11.346V11.386Z" fill="#4A4B4D"/>
<path d="M9.95179 5.79901H5.75879V9.99201H9.95179V5.79901Z" fill="#4A4B4D"/>
<path d="M22.4971 3.06702V12.733H32.1631V3.06702H22.4971ZM30.8211 11.386H23.8391V4.40901H30.8211V11.386Z" fill="#4A4B4D"/>
<path d="M29.4269 5.79901H25.2339V9.99201H29.4269V5.79901Z" fill="#4A4B4D"/>
<path d="M3.02197 32.081H12.688V22.414H3.02197V32.081ZM4.36897 23.757H11.346V30.739H4.36897V23.757Z" fill="#4A4B4D"/>
<path d="M9.95179 25.151H5.75879V29.344H9.95179V25.151Z" fill="#4A4B4D"/>
<path d="M5.75897 14.109H3.02197V15.499H5.75897V14.109Z" fill="#4A4B4D"/>
<path d="M11.3221 15.565H12.716V16.893H9.95605V21.053H14.125V19.663H11.325V18.283H14.125V19.663H15.491V16.893H14.091V14.171H12.72H11.326L11.3221 15.565Z" fill="#4A4B4D"/>
<path d="M19.562 18.2831V19.668H18.196V21.053H16.826V22.443H15.488V23.823H14.126V21.053H15.492V19.6631H16.863V18.2831H19.562Z" fill="#4A4B4D"/>
<path d="M22.3918 25.151V22.433H21.0208V23.761H16.8618V25.151H18.2088V26.621H16.8618V25.151H15.4918V26.593H14.0918V27.978H15.4918V29.344H14.0918V32.081H16.8618V29.344H18.2088V27.954H19.5798V25.154L22.3918 25.151Z" fill="#4A4B4D"/>
<path d="M20.9458 29.344V30.734H25.1147V32.119H29.3148V30.734H26.4688V27.954H25.1058V29.344H20.9458Z" fill="#4A4B4D"/>
<path d="M20.946 30.734H18.228V32.124H20.946V30.734Z" fill="#4A4B4D"/>
<path d="M22.412 16.893H19.561V18.283H22.412V16.893Z" fill="#4A4B4D"/>
<path d="M30.5858 18.283V19.652H31.9468V21.042H30.5808V19.652H29.2148V21.042H27.8438V19.652H26.4858V16.892H29.1938V15.542H27.7938V14.152H30.5638V15.542V16.894H31.9858V18.284L30.5858 18.283Z" fill="#4A4B4D"/>
<path d="M18.1948 21.053V22.443H19.5608V21.058H20.9318V19.668H19.5608V21.053H18.1948Z" fill="#4A4B4D"/>
<path d="M20.9461 27.954H19.5801V29.344H20.9461V27.954Z" fill="#4A4B4D"/>
<path d="M29.2088 27.954H27.8428V29.344H29.2088V27.954Z" fill="#4A4B4D"/>
<path d="M23.7542 19.668H22.3882V21.058H23.7542V19.668Z" fill="#4A4B4D"/>
<path d="M22.4121 16.893H23.7781V15.541H26.5381V14.156H22.4121V15.541V16.893Z" fill="#4A4B4D"/>
<path d="M4.38797 16.888H3.02197V21.057H4.38797V16.888Z" fill="#4A4B4D"/>
<path d="M15.4449 14.175H15.4919V16.893H16.8629V15.461H18.2289V14.176H20.2639H21.0279V8.60703H19.6619V10.049H18.2299V11.415H19.6619V12.805H18.2299V11.415H16.8639V12.805H15.4549V8.63101H16.8209V3.06702H15.4549V4.45702H14.0879V7.23602H15.4539V8.60703H14.0879V14.167H15.4449V14.175Z" fill="#4A4B4D"/>
<path d="M30.5792 23.804V25.255H29.2132V23.804H27.8422V21.039H26.4882V19.649H25.1222V21.049H23.7612V25.149H22.3882V26.539H23.6312V27.957H25.1112V26.539H26.4772V25.149H27.8432V26.539H29.2092V27.957H30.5752V30.722H31.9412V23.807L30.5792 23.804ZM26.4712 23.761H25.1242V22.428H26.4762L26.4712 23.761Z" fill="#4A4B4D"/>
<path d="M30.5789 21.043H29.2129V23.808H30.5789V21.043Z" fill="#4A4B4D"/>
<path d="M27.8481 26.536H26.4771V27.954H27.8481V26.536Z" fill="#4A4B4D"/>
<path d="M21.017 4.43301V3.06702H18.228V5.867H19.66V4.43001L21.017 4.43301Z" fill="#4A4B4D"/>
<path d="M19.66 7.23602H18.228V8.60202H19.66V7.23602Z" fill="#4A4B4D"/>
<path d="M21.0931 5.87003H19.6611V7.23603H21.0931V5.87003Z" fill="#4A4B4D"/>
<path d="M8.49588 19.663H7.12988V21.053H8.49588V19.663Z" fill="#4A4B4D"/>
<path d="M8.49579 18.339V14.175H7.12979V15.498H5.75879V19.662H7.12979V18.339H8.49579Z" fill="#4A4B4D"/>
<path d="M0.727036 7.06599C0.655954 7.06612 0.585549 7.05222 0.519853 7.02508C0.454156 6.99794 0.394456 6.9581 0.344193 6.90783C0.293931 6.85757 0.254086 6.79789 0.226945 6.73219C0.199804 6.66649 0.185904 6.59607 0.186036 6.52499V0.766995C0.185904 0.695912 0.199804 0.625507 0.226945 0.559811C0.254086 0.494114 0.293931 0.434414 0.344193 0.384152C0.394456 0.333889 0.454156 0.294044 0.519853 0.266903C0.585549 0.239762 0.655954 0.225862 0.727036 0.225994H6.48604C6.55897 0.222856 6.63179 0.234518 6.7001 0.260265C6.76842 0.286013 6.83081 0.325321 6.88353 0.37582C6.93625 0.42632 6.97819 0.486962 7.00685 0.554104C7.03551 0.621246 7.05029 0.693488 7.05029 0.766491C7.05029 0.839494 7.03551 0.911752 7.00685 0.978893C6.97819 1.04604 6.93625 1.10668 6.88353 1.15718C6.83081 1.20768 6.76842 1.24698 6.7001 1.27273C6.63179 1.29848 6.55897 1.31014 6.48604 1.307H1.26904V6.526C1.26904 6.59708 1.255 6.66746 1.22774 6.7331C1.20048 6.79875 1.16053 6.85838 1.11017 6.90855C1.05981 6.95872 1.00004 6.99844 0.934297 7.02546C0.86855 7.05248 0.798118 7.06625 0.727036 7.06599Z" fill="#4A4B4D"/>
<path d="M34.4608 7.06598C34.3898 7.06598 34.3194 7.052 34.2538 7.02481C34.1881 6.99762 34.1285 6.95777 34.0783 6.90753C34.0281 6.8573 33.9882 6.79765 33.961 6.73201C33.9338 6.66637 33.9198 6.59602 33.9198 6.52498V1.30798H28.7028C28.5635 1.30199 28.4319 1.24243 28.3354 1.14172C28.2389 1.04102 28.1851 0.906944 28.1851 0.767488C28.1851 0.628031 28.2389 0.493958 28.3354 0.39325C28.4319 0.292543 28.5635 0.232985 28.7028 0.226991H34.4608C34.5319 0.226859 34.6023 0.240758 34.668 0.267899C34.7337 0.295041 34.7934 0.334885 34.8437 0.385148C34.894 0.435411 34.9338 0.495095 34.9609 0.560792C34.9881 0.626489 35.002 0.696909 35.0018 0.767991V6.52599C35.0018 6.59698 34.9878 6.66728 34.9606 6.73287C34.9334 6.79845 34.8936 6.85802 34.8433 6.90817C34.7931 6.95833 34.7334 6.99808 34.6678 7.02516C34.6022 7.05224 34.5318 7.06611 34.4608 7.06598Z" fill="#4A4B4D"/>
<path d="M6.48601 34.96H0.728013C0.656931 34.9602 0.586511 34.9462 0.520814 34.9191C0.455117 34.8919 0.395433 34.8521 0.34517 34.8018C0.294907 34.7516 0.255063 34.6919 0.227921 34.6262C0.20078 34.5605 0.186881 34.4901 0.187013 34.419V28.661C0.193007 28.5217 0.252565 28.39 0.353272 28.2936C0.45398 28.1971 0.588053 28.1432 0.727509 28.1432C0.866966 28.1432 1.00104 28.1971 1.10175 28.2936C1.20245 28.39 1.26201 28.5217 1.26801 28.661V33.878H6.48601C6.62534 33.884 6.75697 33.9435 6.85344 34.0443C6.94991 34.145 7.00375 34.2791 7.00375 34.4185C7.00375 34.558 6.94991 34.692 6.85344 34.7927C6.75697 34.8934 6.62534 34.953 6.48601 34.959V34.96Z" fill="#4A4B4D"/>
<path d="M34.4608 34.96H28.7028C28.5635 34.954 28.4319 34.8945 28.3354 34.7938C28.2389 34.6931 28.1851 34.559 28.1851 34.4195C28.1851 34.28 28.2389 34.146 28.3354 34.0453C28.4319 33.9446 28.5635 33.885 28.7028 33.879H33.9198V28.662C33.9167 28.5891 33.9284 28.5162 33.9541 28.4479C33.9798 28.3796 34.0191 28.3172 34.0696 28.2645C34.1201 28.2118 34.1808 28.1698 34.2479 28.1412C34.3151 28.1125 34.3873 28.0978 34.4603 28.0978C34.5333 28.0978 34.6056 28.1125 34.6727 28.1412C34.7399 28.1698 34.8005 28.2118 34.851 28.2645C34.9015 28.3172 34.9408 28.3796 34.9666 28.4479C34.9923 28.5162 35.004 28.5891 35.0009 28.662V34.42C35.0009 34.5632 34.9439 34.7005 34.8427 34.8018C34.7414 34.9031 34.604 34.96 34.4608 34.96Z" fill="#4A4B4D"/>
</svg>
