<svg width="26" height="26" viewBox="0 0 26 26" fill="none" xmlns="http://www.w3.org/2000/svg">
<path d="M24.982 23.437L19.714 18.169C21.4127 16.0427 22.2327 13.3468 22.0057 10.6348C21.7788 7.9228 20.522 5.40065 18.4935 3.58633C16.4651 1.772 13.8189 0.803225 11.0985 0.87896C8.37809 0.954695 5.78993 2.06919 3.86556 3.99356C1.94119 5.91793 0.826689 8.5061 0.750954 11.2265C0.675219 13.9469 1.64399 16.5931 3.45832 18.6215C5.27265 20.65 7.7948 21.9068 10.5068 22.1337C13.2188 22.3607 15.9147 21.5407 18.041 19.842L23.309 25.11C23.4187 25.2206 23.5491 25.3085 23.6929 25.3685C23.8366 25.4286 23.9907 25.4597 24.1465 25.46C24.3023 25.4603 24.4566 25.4299 24.6006 25.3704C24.7445 25.311 24.8754 25.2237 24.9855 25.1135C25.0956 25.0034 25.183 24.8725 25.2424 24.7286C25.3019 24.5846 25.3323 24.4303 25.332 24.2745C25.3317 24.1188 25.3006 23.9646 25.2405 23.8209C25.1805 23.6771 25.0926 23.5467 24.982 23.437ZM11.396 19.805C9.75836 19.805 8.15751 19.3194 6.79587 18.4096C5.43423 17.4997 4.37296 16.2066 3.74627 14.6936C3.11958 13.1806 2.9556 11.5158 3.27509 9.90965C3.59457 8.30349 4.38317 6.82813 5.54115 5.67015C6.69913 4.51217 8.17448 3.72358 9.78064 3.4041C11.3868 3.08461 13.0516 3.24858 14.5646 3.87527C16.0776 4.50197 17.3707 5.56324 18.2806 6.92488C19.1904 8.28652 19.676 9.88737 19.676 11.525C19.676 13.721 18.8036 15.827 17.2508 17.3798C15.698 18.9326 13.592 19.805 11.396 19.805Z" fill="#030C54"/>
</svg>
