<svg width="16" height="21" viewBox="0 0 16 21" fill="none" xmlns="http://www.w3.org/2000/svg">
<path d="M4.17196 9.15097C3.43896 8.89297 3.28696 8.67197 3.28196 7.89597C3.24757 7.6959 3.25543 7.49085 3.30503 7.294C3.35463 7.09715 3.44487 6.91285 3.56995 6.75297C3.62195 6.69797 3.61796 6.57697 3.61996 6.48597C3.62696 6.22997 3.59696 5.96997 3.62696 5.71697C3.66002 5.5363 3.63281 5.34978 3.54952 5.18609C3.46623 5.02239 3.33145 4.8906 3.16595 4.81097C2.97423 4.7184 2.80701 4.58201 2.67776 4.41285C2.5485 4.24368 2.46087 4.04649 2.42193 3.83719C2.38299 3.62789 2.39382 3.41236 2.45359 3.20803C2.51335 3.0037 2.62036 2.8163 2.76595 2.66097C3.5637 1.57033 4.71997 0.795359 6.03196 0.471967C7.12736 0.129222 8.29212 0.0717671 9.41595 0.305036C10.5398 0.538305 11.5854 1.05458 12.454 1.80497C12.7561 2.05398 13.0199 2.34611 13.237 2.67197C13.3823 2.83181 13.4879 3.02367 13.5452 3.23198C13.6025 3.44029 13.6099 3.65916 13.5667 3.87086C13.5236 4.08255 13.4311 4.28108 13.2968 4.45033C13.1626 4.61958 12.9903 4.75479 12.794 4.84497C12.6449 4.91274 12.5226 5.02807 12.4463 5.17286C12.3699 5.31766 12.3438 5.48372 12.372 5.64497C12.402 5.89797 12.361 6.15797 12.383 6.41397C12.4036 6.58089 12.4547 6.74259 12.534 6.89097C12.6688 7.15549 12.7431 7.44674 12.7514 7.74356C12.7597 8.04037 12.7018 8.33531 12.5819 8.60697C12.4819 8.85097 12.148 8.99997 11.92 9.19097L11.8449 9.11797C11.8109 9.26197 11.777 9.40297 11.745 9.54697C11.5887 10.3812 11.112 11.121 10.417 11.608C10.2953 11.6888 10.2013 11.805 10.1477 11.9409C10.0941 12.0768 10.0833 12.2258 10.1169 12.368C10.1379 12.61 10.236 12.697 10.517 12.738C11.5753 12.8593 12.6234 13.0575 13.6529 13.331C14.346 13.5605 14.9472 14.0063 15.3682 14.6028C15.7892 15.1993 16.0078 15.9151 15.9919 16.645C16.0169 17.711 16.0059 18.779 15.9919 19.845C16.0058 19.9944 15.9859 20.145 15.9336 20.2856C15.8814 20.4263 15.7981 20.5534 15.6901 20.6575C15.5821 20.7616 15.452 20.84 15.3095 20.887C15.167 20.934 15.0157 20.9484 14.8669 20.929C10.2869 20.929 5.70762 20.929 1.12896 20.929C0.980022 20.9487 0.828542 20.9346 0.685797 20.8878C0.543052 20.8409 0.412698 20.7625 0.304419 20.6583C0.19614 20.5542 0.11272 20.427 0.0603546 20.2862C0.00798914 20.1454 -0.0119614 19.9946 0.0019592 19.845C-0.0090408 19.414 0.0019592 18.98 0.0019592 18.545C0.0019592 18.34 0.051947 18.145 0.301947 18.145C0.573947 18.138 0.623953 18.334 0.623953 18.56C0.623953 18.991 0.623953 19.425 0.623953 19.86C0.623953 20.16 0.771956 20.296 1.06396 20.321C2.21896 20.421 2.21895 20.421 2.21895 19.289C2.21895 18.844 2.21895 18.397 2.21895 17.952C2.21895 17.737 2.28695 17.557 2.52695 17.564C2.76695 17.571 2.82696 17.749 2.82096 17.964C2.82096 18.731 2.82096 19.498 2.82096 20.321H3.97996C4.76296 20.321 5.54795 20.314 6.33095 20.321C6.56795 20.321 6.66396 20.239 6.69596 20.006C6.85296 18.815 7.02695 17.626 7.18395 16.437C7.24995 15.944 7.01295 15.707 6.51295 15.743C6.37061 15.7517 6.22865 15.7207 6.10291 15.6534C5.97718 15.5862 5.87264 15.4852 5.80096 15.362C5.41796 14.821 5.04096 14.28 4.64396 13.751C4.60452 13.6952 4.55359 13.6484 4.4946 13.614C4.43562 13.5795 4.36992 13.558 4.30195 13.551C3.70195 13.635 3.11095 13.759 2.44895 13.882C2.98495 14.642 2.58595 15.171 2.11095 15.673C1.93127 15.8583 1.69073 15.9726 1.43354 15.9948C1.17634 16.0171 0.919778 15.9457 0.710959 15.794C0.680959 16.187 0.646957 16.529 0.630957 16.871C0.621957 17.09 0.594958 17.3 0.322958 17.302C0.0509583 17.304 0.0229548 17.09 0.00995481 16.873C-0.0431826 16.0082 0.222657 15.154 0.757117 14.4721C1.29158 13.7902 2.05754 13.328 2.90995 13.173C3.80995 13.004 4.71695 12.881 5.62095 12.723C5.66866 12.7113 5.71333 12.6895 5.75196 12.6592C5.79059 12.6288 5.82229 12.5906 5.84495 12.547C5.92156 12.392 5.93979 12.2146 5.89626 12.0473C5.85274 11.88 5.75037 11.734 5.60795 11.636C5.21284 11.3405 4.88184 10.968 4.635 10.5408C4.38816 10.1136 4.23063 9.64081 4.17196 9.15097ZM10.6809 6.42197C8.9253 6.89682 7.07553 6.90061 5.31795 6.43297C5.31795 6.71397 5.33595 6.93297 5.31795 7.14497C5.31766 7.22019 5.29682 7.2939 5.2577 7.35815C5.21857 7.4224 5.16265 7.47474 5.09595 7.50953C5.02926 7.54431 4.95434 7.56023 4.87926 7.55555C4.80419 7.55087 4.73182 7.52577 4.66996 7.48297C3.91496 7.06997 3.86995 7.09997 3.88695 7.96497C3.88695 8.00597 3.88695 8.04697 3.88695 8.08597C3.89395 8.34397 4.02196 8.51297 4.28196 8.49897C4.65896 8.47797 4.75195 8.65397 4.79095 8.99897C4.88769 9.79019 5.27281 10.5179 5.87258 11.043C6.47235 11.568 7.24466 11.8535 8.04172 11.8447C8.83879 11.8359 9.60463 11.5335 10.1927 10.9953C10.7807 10.4572 11.1497 9.72113 11.2289 8.92797C11.2539 8.70897 11.284 8.53797 11.553 8.50397C12.112 8.43097 12.13 8.41296 12.114 7.85097C12.0937 7.6434 12.0555 7.43797 11.9999 7.23697C11.7875 7.29446 11.5799 7.36835 11.379 7.45797C11.028 7.64697 10.719 7.50997 10.685 7.11097C10.664 6.89897 10.6809 6.68397 10.6809 6.42197ZM13.5539 13.889C12.9539 13.77 12.411 13.677 11.872 13.556C11.7637 13.5234 11.6474 13.5306 11.5439 13.5762C11.4405 13.6219 11.3568 13.703 11.308 13.805C10.954 14.332 10.573 14.839 10.208 15.357C10.1375 15.4807 10.0341 15.5824 9.90931 15.6509C9.7845 15.7194 9.64315 15.752 9.50095 15.745C8.98095 15.711 8.75196 15.95 8.82296 16.471C8.97996 17.649 9.15395 18.822 9.30695 19.999C9.34095 20.259 9.45995 20.328 9.70695 20.323C10.6239 20.312 11.544 20.323 12.462 20.323H13.1879V19.723C13.1879 19.13 13.172 18.534 13.202 17.941C13.2137 17.8629 13.2448 17.7891 13.2923 17.726C13.3397 17.663 13.4022 17.6128 13.474 17.58C13.705 17.532 13.7889 17.726 13.7909 17.941C13.7909 18.089 13.7909 18.241 13.7909 18.386V20.321C14.1909 20.321 14.542 20.321 14.891 20.321C15.24 20.321 15.391 20.15 15.391 19.794C15.38 18.715 15.3909 17.633 15.3819 16.553C15.3636 16.3062 15.3302 16.0607 15.282 15.818C15.0594 15.9667 14.79 16.0284 14.5249 15.9916C14.2598 15.9547 14.0175 15.8217 13.844 15.618C13.398 15.128 13.0569 14.622 13.5539 13.889ZM4.23795 4.62197H9.18094C9.3004 4.60321 9.4225 4.61038 9.53895 4.64297C9.595 4.66997 9.64425 4.70925 9.68303 4.75789C9.72182 4.80654 9.74912 4.86331 9.76295 4.92397C9.76295 5.02397 9.63695 5.14796 9.53495 5.19797C9.41865 5.23126 9.29655 5.23911 9.17695 5.22097C7.73028 5.22097 6.28428 5.22097 4.83895 5.22097C4.72495 5.22097 4.61095 5.23497 4.49695 5.24197L4.46296 5.34197C4.74935 5.49868 5.04412 5.63955 5.34595 5.76397C6.50212 6.16048 7.73553 6.27868 8.94596 6.10897C9.67407 5.98381 10.3925 5.80771 11.096 5.58197C11.2553 5.51042 11.4025 5.41424 11.532 5.29697C11.3637 5.25537 11.193 5.22397 11.021 5.20297C10.8862 5.12788 10.7657 5.02972 10.665 4.91297C10.784 4.81297 10.891 4.65697 11.023 4.62997C11.2692 4.60091 11.5178 4.59622 11.765 4.61597C11.765 4.39497 11.754 4.23297 11.765 4.07297C11.7828 4.00055 11.7838 3.92503 11.768 3.85215C11.7522 3.77927 11.72 3.71096 11.6738 3.65242C11.6276 3.59388 11.5686 3.54665 11.5014 3.51434C11.4342 3.48203 11.3605 3.46549 11.286 3.46597C10.846 3.39997 10.414 3.28097 9.97796 3.20097C8.20345 2.87811 6.37834 2.96948 4.64495 3.46797C4.58179 3.47545 4.52083 3.49573 4.46577 3.52757C4.41071 3.55941 4.36271 3.60213 4.32471 3.65314C4.28672 3.70414 4.25952 3.76235 4.24477 3.82422C4.23003 3.88608 4.22805 3.95031 4.23896 4.01297C4.24696 4.20597 4.23795 4.38997 4.23795 4.62197ZM12.376 4.36197C13.013 3.97897 13.118 3.61097 12.766 3.06197C12.6263 2.84702 12.4626 2.64873 12.2779 2.47097C11.1088 1.38637 9.57138 0.786347 7.97664 0.792287C6.38191 0.798228 4.84896 1.40969 3.68795 2.50297C3.46885 2.72214 3.28289 2.97211 3.13595 3.24497C3.0751 3.34176 3.03889 3.45197 3.03048 3.56598C3.02206 3.68 3.04169 3.79434 3.08767 3.89901C3.13364 4.00368 3.20456 4.0955 3.29421 4.16644C3.38386 4.23738 3.48951 4.28529 3.60195 4.30597C3.68595 3.13997 3.77796 3.05797 4.94796 2.76297C7.14088 2.25052 9.42823 2.30559 11.594 2.92297C11.8236 2.96072 12.031 3.0826 12.1757 3.26486C12.3205 3.44712 12.3922 3.67673 12.377 3.90897C12.38 4.04397 12.376 4.17897 12.376 4.36197ZM9.45894 12.251C8.9761 12.353 8.48648 12.4199 7.99395 12.451C7.50582 12.4191 7.0208 12.3506 6.54296 12.246C6.46296 12.529 6.37595 12.833 6.28495 13.154C6.84895 13.574 7.42095 14.0016 8.00095 14.437L9.71296 13.157C9.61396 12.809 9.53194 12.516 9.45894 12.251ZM8.69394 20.298C8.70592 20.2602 8.71429 20.2213 8.71895 20.182C8.55495 18.982 8.39495 17.782 8.21895 16.582C8.20495 16.488 8.06595 16.413 7.98595 16.329C7.91295 16.423 7.79395 16.507 7.77595 16.61C7.67595 17.194 7.60495 17.781 7.52495 18.367C7.43795 18.999 7.35596 19.634 7.26696 20.293C7.76796 20.297 8.21996 20.297 8.69796 20.297L8.69394 20.298ZM5.20495 13.344L5.17095 13.433C5.54495 13.956 5.91295 14.485 6.29795 14.996C6.33849 15.0313 6.38669 15.0568 6.43876 15.0703C6.49082 15.0839 6.54532 15.0851 6.59795 15.074C6.84895 14.992 7.08895 14.869 7.37395 14.743C6.75295 14.277 6.17395 13.835 5.58495 13.413C5.49295 13.343 5.33595 13.365 5.20495 13.344ZM8.61895 14.744C8.90395 14.87 9.14395 14.993 9.39495 15.075C9.44756 15.0865 9.50216 15.0855 9.5543 15.0719C9.60643 15.0584 9.65462 15.0327 9.69495 14.997C10.083 14.484 10.45 13.956 10.825 13.434L10.7909 13.345C10.6609 13.366 10.5029 13.345 10.4079 13.413C9.81795 13.834 9.23995 14.277 8.61895 14.74V14.744ZM1.83195 14.221C1.54695 14.534 1.26396 14.844 0.975958 15.157C1.25696 15.457 1.47594 15.451 1.70894 15.205C2.14994 14.731 2.18195 14.575 1.83195 14.221ZM14.156 14.221C13.821 14.602 13.871 14.814 14.325 15.246C14.56 15.467 14.77 15.435 15.025 15.155L14.156 14.221ZM7.45595 15.444C7.81895 15.887 8.28396 15.864 8.51696 15.407C8.37113 15.2715 8.17798 15.1987 7.97903 15.2041C7.78007 15.2095 7.59118 15.2928 7.45295 15.436L7.45595 15.444ZM4.28596 5.99097C4.18596 6.60897 4.19195 6.61597 4.65995 6.70097C4.73995 6.18897 4.73995 6.18897 4.28295 5.98297L4.28596 5.99097ZM11.7459 5.98397C11.2389 6.20097 11.226 6.22796 11.365 6.71197C11.8899 6.68897 11.7529 6.32197 11.7439 5.97697L11.7459 5.98397Z" fill="#4A4B4D"/>
<path d="M4.58882 19.392C4.38882 19.392 4.12983 19.392 3.87483 19.392C3.80688 19.399 3.73822 19.3909 3.67372 19.3684C3.60923 19.3459 3.55046 19.3095 3.50154 19.2619C3.45263 19.2142 3.41475 19.1563 3.39061 19.0924C3.36647 19.0285 3.35666 18.9602 3.36183 18.892C3.35083 17.669 3.21084 17.498 4.57384 17.541C4.84284 17.55 5.11285 17.541 5.38185 17.541C5.45642 17.5355 5.53131 17.5457 5.60164 17.5711C5.67197 17.5965 5.73613 17.6365 5.78994 17.6884C5.84374 17.7404 5.886 17.8031 5.9139 17.8725C5.9418 17.9418 5.95471 18.0163 5.95183 18.091V18.132C5.97683 19.438 5.95382 19.422 4.58882 19.392ZM5.30785 18.192H3.98384V18.769H5.30785V18.192Z" fill="#4A4B4D"/>
<path d="M11.3689 19.392H10.5999C10.5287 19.3983 10.457 19.3896 10.3894 19.3664C10.3219 19.3432 10.2599 19.3062 10.2076 19.2575C10.1552 19.2089 10.1137 19.1497 10.0857 19.084C10.0576 19.0183 10.0438 18.9474 10.0449 18.876C10.0438 18.8624 10.0438 18.8486 10.0449 18.835C10.0359 17.701 9.94491 17.486 11.2449 17.535C11.5279 17.546 11.8109 17.526 12.0939 17.542C12.1685 17.535 12.2438 17.5448 12.3141 17.5708C12.3844 17.5967 12.448 17.6382 12.5002 17.692C12.5523 17.7459 12.5917 17.8108 12.6153 17.8819C12.639 17.9531 12.6464 18.0286 12.6369 18.103C12.6459 18.345 12.6459 18.589 12.6369 18.831C12.6209 19.224 12.4569 19.374 12.0549 19.388H11.3679L11.3689 19.392ZM12.0259 18.185H10.6889V18.758H12.0259V18.185Z" fill="#4A4B4D"/>
</svg>
