<svg width="20" height="17" viewBox="0 0 20 17" fill="none" xmlns="http://www.w3.org/2000/svg">
<path d="M6.80111 11.5H16.7381C16.8579 11.5003 16.9745 11.4613 17.07 11.3891C17.1655 11.3169 17.2348 11.2153 17.2671 11.1L19.4671 3.4C19.4905 3.31819 19.4946 3.23206 19.479 3.14841C19.4634 3.06476 19.4286 2.98588 19.3773 2.918C19.326 2.85011 19.2596 2.79508 19.1834 2.75725C19.1072 2.71942 19.0232 2.69982 18.9381 2.7H5.53111L5.13811 0.931C5.11102 0.808767 5.04304 0.699434 4.9454 0.621068C4.84776 0.542702 4.72631 0.499994 4.60111 0.5L1.26411 0.5C1.11824 0.5 0.978348 0.557946 0.875203 0.661091C0.772058 0.764236 0.714111 0.904131 0.714111 1.05C0.714111 1.19587 0.772058 1.33576 0.875203 1.43891C0.978348 1.54205 1.11824 1.6 1.26411 1.6H4.16411L6.15011 10.537C5.80195 10.6873 5.51622 10.9529 5.34105 11.2893C5.16588 11.6256 5.11197 12.012 5.18842 12.3834C5.26486 12.7548 5.46698 13.0886 5.76073 13.3284C6.05448 13.5682 6.42191 13.6994 6.80111 13.7H16.7381C16.884 13.7 17.0239 13.6421 17.127 13.5389C17.2302 13.4358 17.2881 13.2959 17.2881 13.15C17.2881 13.0041 17.2302 12.8642 17.127 12.7611C17.0239 12.6579 16.884 12.6 16.7381 12.6H6.80111C6.65524 12.6 6.51535 12.5421 6.4122 12.4389C6.30906 12.3358 6.25111 12.1959 6.25111 12.05C6.25111 11.9041 6.30906 11.7642 6.4122 11.6611C6.51535 11.5579 6.65524 11.5 6.80111 11.5Z" fill="#B6B7B7"/>
<path d="M6.25122 15.3499C6.25122 15.6763 6.34799 15.9953 6.5293 16.2666C6.7106 16.538 6.96829 16.7495 7.26979 16.8744C7.57129 16.9992 7.90305 17.0319 8.22311 16.9683C8.54318 16.9046 8.83719 16.7474 9.06795 16.5167C9.2987 16.2859 9.45585 15.9919 9.51952 15.6718C9.58318 15.3518 9.55051 15.02 9.42563 14.7185C9.30074 14.417 9.08926 14.1593 8.81792 13.978C8.54658 13.7967 8.22755 13.7 7.90121 13.7C7.46377 13.7005 7.0444 13.8745 6.73508 14.1838C6.42576 14.4931 6.25175 14.9125 6.25122 15.3499Z" fill="#B6B7B7"/>
<path d="M13.9832 15.3499C13.9832 15.6763 14.0799 15.9953 14.2612 16.2666C14.4425 16.538 14.7002 16.7495 15.0017 16.8744C15.3032 16.9992 15.635 17.0319 15.955 16.9683C16.2751 16.9046 16.5691 16.7474 16.7999 16.5167C17.0306 16.2859 17.1878 15.9919 17.2515 15.6718C17.3151 15.3518 17.2824 15.02 17.1576 14.7185C17.0327 14.417 16.8212 14.1593 16.5498 13.978C16.2785 13.7967 15.9595 13.7 15.6331 13.7C15.1957 13.7005 14.7763 13.8745 14.467 14.1838C14.1577 14.4931 13.9837 14.9125 13.9832 15.3499Z" fill="#B6B7B7"/>
</svg>
