<svg width="9" height="10" viewBox="0 0 9 10" fill="none" xmlns="http://www.w3.org/2000/svg">
<path d="M4.38 0.406982C3.51372 0.406982 2.66689 0.663865 1.9466 1.14515C1.22632 1.62643 0.664922 2.31049 0.33341 3.11083C0.00189808 3.91117 -0.0848409 4.79184 0.0841623 5.64148C0.253166 6.49111 0.67032 7.27156 1.28287 7.88411C1.89543 8.49666 2.67587 8.91382 3.52551 9.08282C4.37514 9.25183 5.25582 9.16509 6.05616 8.83358C6.8565 8.50206 7.54056 7.94067 8.02184 7.22038C8.50312 6.50009 8.76 5.65326 8.76 4.78698C8.76 4.21179 8.64671 3.64224 8.42659 3.11083C8.20648 2.57942 7.88385 2.09658 7.47713 1.68985C7.07041 1.28313 6.58756 0.960506 6.05616 0.74039C5.52475 0.520275 4.95519 0.406982 4.38 0.406982ZM4.38 8.37098C3.67115 8.37098 2.97822 8.16078 2.38884 7.76697C1.79945 7.37315 1.34008 6.81341 1.06882 6.15852C0.797553 5.50363 0.726578 4.78301 0.864868 4.08778C1.00316 3.39255 1.3445 2.75394 1.84573 2.25271C2.34696 1.75148 2.98557 1.41014 3.6808 1.27185C4.37603 1.13356 5.09665 1.20453 5.75154 1.4758C6.40643 1.74706 6.96617 2.20643 7.35999 2.79582C7.7538 3.3852 7.964 4.07813 7.964 4.78698C7.964 5.73752 7.5864 6.64912 6.91427 7.32125C6.24214 7.99338 5.33054 8.37098 4.38 8.37098Z" fill="#04A11E"/>
<path d="M3.98212 4.38901H1.72412V5.18901H4.77812V1.93201H3.97812L3.98212 4.38901Z" fill="#04A11E"/>
</svg>
