<svg width="47" height="38" viewBox="0 0 47 38" fill="none" xmlns="http://www.w3.org/2000/svg">
<path d="M46.7442 19.37C46.7431 18.7906 46.5125 18.2351 46.1027 17.8254C45.693 17.4157 45.1376 17.185 44.5582 17.184H42.4822C42.3646 17.1825 42.2502 17.2217 42.1582 17.295L38.9432 19.778C38.3425 20.2394 37.6066 20.49 36.8492 20.491H28.6592C29.2521 18.0494 29.0378 15.4814 28.0482 13.172H34.2322C34.87 13.1742 35.4983 13.3267 36.0662 13.617C36.631 13.9113 37.1169 14.3369 37.4832 14.858L39.3272 17.471C39.3762 17.5405 39.4414 17.5971 39.5172 17.6358C39.593 17.6744 39.6771 17.6941 39.7622 17.693C39.8728 17.6968 39.9812 17.6614 40.0682 17.593C40.1835 17.5118 40.2619 17.3882 40.2862 17.2493C40.3106 17.1105 40.2789 16.9676 40.1982 16.852L38.3542 14.252C37.8874 13.5902 37.2683 13.0504 36.5492 12.6779C35.8301 12.3055 35.032 12.1114 34.2222 12.112H27.5222C26.673 10.5836 25.4889 9.2672 24.0585 8.26162C22.6281 7.25603 20.9887 6.58732 19.2631 6.30561C17.5374 6.02391 15.7704 6.13653 14.0945 6.63502C12.4186 7.13352 10.8773 8.00496 9.58618 9.18399L7.93218 7.53099L8.92318 6.53999C8.97375 6.49056 9.01381 6.43141 9.04096 6.36612C9.06811 6.30082 9.08179 6.23071 9.08118 6.15999C9.08063 6.01746 9.02385 5.8809 8.92318 5.77999L4.47618 1.33299C4.00746 0.891726 3.38531 0.650364 2.74164 0.660072C2.09797 0.66978 1.48338 0.929797 1.02818 1.38499C0.572986 1.84019 0.312969 2.45478 0.30326 3.09845C0.293552 3.74212 0.534915 4.36427 0.976177 4.83299L5.42318 9.27999C5.52425 9.38029 5.66078 9.4367 5.80318 9.43699C5.94523 9.43503 6.08117 9.37887 6.18318 9.27999L7.18318 8.27999L8.83218 9.92999C6.82091 12.1329 5.73697 15.0268 5.80608 18.0089C5.87519 20.9911 7.09203 23.8316 9.20318 25.939C9.33531 26.0758 9.4745 26.2057 9.62018 26.328V31.359C9.62067 31.671 9.68358 31.9797 9.80518 32.267C10.0428 32.8256 10.4876 33.2704 11.0462 33.508C11.1657 33.5577 11.29 33.5949 11.4172 33.619V35.419C11.4169 35.6478 11.4618 35.8745 11.5492 36.0859C11.6367 36.2974 11.765 36.4895 11.9268 36.6514C12.0886 36.8132 12.2808 36.9415 12.4922 37.0289C12.7037 37.1164 12.9303 37.1613 13.1592 37.161H16.9392C17.168 37.1613 17.3947 37.1164 17.6061 37.0289C17.8176 36.9415 18.0097 36.8132 18.1715 36.6514C18.3334 36.4895 18.4617 36.2974 18.5491 36.0859C18.6366 35.8745 18.6814 35.6478 18.6812 35.419V33.156C18.6812 33.0134 18.6245 32.8767 18.5237 32.7759C18.4229 32.6751 18.2862 32.6185 18.1437 32.6185C18.0011 32.6185 17.8644 32.6751 17.7636 32.7759C17.6628 32.8767 17.6062 33.0134 17.6062 33.156V35.417C17.6051 35.596 17.5336 35.7673 17.407 35.8938C17.2805 36.0204 17.1091 36.0919 16.9302 36.093H13.1502C12.9712 36.0919 12.7999 36.0204 12.6733 35.8938C12.5468 35.7673 12.4752 35.596 12.4742 35.417V33.684H14.1422C14.2847 33.684 14.4214 33.6274 14.5222 33.5266C14.623 33.4258 14.6797 33.289 14.6797 33.1465C14.6797 33.0039 14.623 32.8672 14.5222 32.7664C14.4214 32.6656 14.2847 32.609 14.1422 32.609H11.9422C11.7736 32.6078 11.6068 32.5739 11.4512 32.509C11.1508 32.3815 10.9117 32.1424 10.7842 31.842C10.7192 31.6864 10.6852 31.5196 10.6842 31.351V27.18C12.9155 28.7679 15.637 29.5145 18.3662 29.2873C21.0954 29.0601 23.6561 27.8739 25.5942 25.939C25.7982 25.735 25.9928 25.522 26.1782 25.3C26.2394 25.3274 26.3062 25.34 26.3732 25.337H36.2022C36.3197 25.3384 36.4342 25.2992 36.5262 25.226L38.3602 23.809C38.4667 23.72 38.5344 23.5931 38.549 23.4551C38.5637 23.3171 38.5242 23.1787 38.4388 23.0693C38.3534 22.9599 38.2288 22.888 38.0914 22.8687C37.9539 22.8494 37.8144 22.8843 37.7022 22.966L36.0162 24.272H26.9652C27.539 23.4315 27.9986 22.5185 28.3322 21.557H36.8322C37.8272 21.5544 38.7939 21.2256 39.5842 20.621L42.6602 18.249H44.5502C44.8475 18.249 45.1326 18.3671 45.3428 18.5773C45.5531 18.7876 45.6712 19.0727 45.6712 19.37C45.6712 19.6673 45.5531 19.9524 45.3428 20.1627C45.1326 20.3729 44.8475 20.491 44.5502 20.491H42.4822C42.4632 20.491 42.4452 20.5 42.4262 20.5C42.3885 20.5018 42.3513 20.5082 42.3152 20.519C42.2836 20.5297 42.2525 20.542 42.2222 20.556C42.2032 20.565 42.1852 20.565 42.1662 20.584C42.1472 20.603 42.1472 20.612 42.1382 20.621C42.1112 20.6433 42.0865 20.6681 42.0642 20.695C42.0424 20.7204 42.0236 20.7483 42.0082 20.778C41.9921 20.8038 41.9796 20.8317 41.9712 20.861C41.9604 20.8971 41.954 20.9344 41.9522 20.972C41.9522 20.991 41.9432 21 41.9432 21.018C41.9432 21.036 41.9522 21.055 41.9522 21.074C41.954 21.1116 41.9604 21.1489 41.9712 21.185C41.9808 21.2185 41.9964 21.25 42.0172 21.278C42.0262 21.297 42.0262 21.315 42.0362 21.324L43.2772 23.084C43.3963 23.2512 43.5017 23.4277 43.5922 23.612C43.6829 23.7945 43.7605 23.9833 43.8242 24.177C43.888 24.3701 43.9345 24.5686 43.9632 24.77C43.9923 24.9724 44.0077 25.1765 44.0092 25.381V26.344H41.4092C40.9469 26.3439 40.4891 26.4348 40.062 26.6117C39.6348 26.7885 39.2468 27.0478 38.9199 27.3747C38.593 27.7016 38.3337 28.0897 38.1569 28.5168C37.98 28.9439 37.889 29.4017 37.8892 29.864C37.8894 30.0063 37.9461 30.1428 38.0468 30.2434C38.1474 30.3441 38.2838 30.4007 38.4262 30.401H42.0392C42.1817 30.401 42.3185 30.3444 42.4193 30.2436C42.5201 30.1428 42.5767 30.006 42.5767 29.8635C42.5767 29.7209 42.5201 29.5842 42.4193 29.4834C42.3185 29.3826 42.1817 29.326 42.0392 29.326H39.0192C39.1415 28.781 39.446 28.2941 39.8823 27.9454C40.3186 27.5967 40.8607 27.4072 41.4192 27.408H44.0192V31.355C44.018 31.5236 43.984 31.6904 43.9192 31.846C43.855 31.9948 43.7638 32.1304 43.6502 32.246C43.5371 32.3626 43.4008 32.4542 43.2502 32.515C43.0949 32.5809 42.9279 32.6149 42.7592 32.615H40.5592C40.4166 32.615 40.2799 32.6716 40.1791 32.7724C40.0783 32.8732 40.0217 33.0099 40.0217 33.1525C40.0217 33.295 40.0783 33.4318 40.1791 33.5326C40.2799 33.6334 40.4166 33.69 40.5592 33.69H42.2272V35.422C42.2261 35.601 42.1546 35.7723 42.028 35.8988C41.9015 36.0254 41.7301 36.0969 41.5512 36.098H37.7712C37.5922 36.0969 37.4209 36.0254 37.2943 35.8988C37.1678 35.7723 37.0962 35.601 37.0952 35.422V33.165C37.0952 33.0224 37.0385 32.8857 36.9377 32.7849C36.8369 32.6841 36.7002 32.6275 36.5577 32.6275C36.4151 32.6275 36.2784 32.6841 36.1776 32.7849C36.0768 32.8857 36.0202 33.0224 36.0202 33.165V35.426C36.0199 35.6548 36.0648 35.8815 36.1522 36.0929C36.2397 36.3044 36.368 36.4965 36.5298 36.6584C36.6916 36.8202 36.8838 36.9485 37.0952 37.0359C37.3067 37.1234 37.5333 37.1683 37.7622 37.168H41.5422C41.771 37.1683 41.9977 37.1234 42.2091 37.0359C42.4206 36.9485 42.6127 36.8202 42.7745 36.6584C42.9364 36.4965 43.0647 36.3044 43.1521 36.0929C43.2396 35.8815 43.2844 35.6548 43.2842 35.426V33.626C43.4106 33.5988 43.5346 33.5617 43.6552 33.515C44.2138 33.2774 44.6586 32.8326 44.8962 32.274C45.0178 31.9867 45.0807 31.678 45.0812 31.366V26.893V25.399C45.0809 25.1387 45.0622 24.8787 45.0252 24.621C44.9462 24.1123 44.7901 23.6186 44.5622 23.157C44.4468 22.9244 44.3131 22.7013 44.1622 22.49L43.5142 21.573H44.5612C45.1408 21.5639 45.6937 21.3282 46.1017 20.9165C46.5097 20.5047 46.7403 19.9496 46.7442 19.37ZM5.80518 8.14199L1.73818 4.07499C1.53913 3.8781 1.40329 3.62635 1.34803 3.35189C1.29276 3.07743 1.32058 2.79272 1.42792 2.53414C1.53525 2.27556 1.71724 2.05486 1.95063 1.90022C2.18402 1.74558 2.45821 1.66403 2.73818 1.66599C3.11182 1.6671 3.4704 1.8134 3.73818 2.07399L7.80518 6.14099L5.80518 8.14199ZM24.8322 25.179C23.3606 26.6514 21.4854 27.6543 19.4438 28.0608C17.4022 28.4674 15.2859 28.2593 13.3625 27.463C11.4391 26.6666 9.79517 25.3177 8.63852 23.5869C7.48187 21.8561 6.86449 19.8212 6.86449 17.7395C6.86449 15.6578 7.48187 13.6228 8.63852 11.8921C9.79517 10.1613 11.4391 8.81238 13.3625 8.01602C15.2859 7.21965 17.4022 7.01159 19.4438 7.41814C21.4854 7.82469 23.3606 8.82759 24.8322 10.3C25.8178 11.2721 26.6005 12.4303 27.1346 13.7075C27.6688 14.9846 27.9439 16.3551 27.9439 17.7395C27.9439 19.1238 27.6688 20.4944 27.1346 21.7715C26.6005 23.0487 25.8178 24.2069 24.8322 25.179Z" fill="#4A4B4D"/>
</svg>
