`<svg width="40" height="40" viewBox="0 0 40 40" fill="none" xmlns="http://www.w3.org/2000/svg">
<path d="M19.64 39.8288C30.4869 39.8288 39.28 31.0357 39.28 20.1888C39.28 9.34196 30.4869 0.548828 19.64 0.548828C8.79313 0.548828 0 9.34196 0 20.1888C0 31.0357 8.79313 39.8288 19.64 39.8288Z" fill="#27D045"/>
<path d="M19.4489 11.4329C17.5449 11.4313 15.6989 12.0886 14.2244 13.2933C12.7499 14.4981 11.7378 16.176 11.3598 18.0421C10.9819 19.9083 11.2614 21.8478 12.151 23.5313C13.0405 25.2148 14.4853 26.5386 16.2399 27.2779C18.2556 28.1287 20.5266 28.144 22.5535 27.3203C23.5572 26.9125 24.4706 26.311 25.2418 25.5501C26.0129 24.7893 26.6266 23.884 27.0479 22.8859C27.4692 21.8879 27.6898 20.8166 27.6971 19.7333C27.7043 18.65 27.4982 17.5759 27.0903 16.5723C26.6825 15.5687 26.081 14.6552 25.3201 13.8841C24.5593 13.1129 23.654 12.4992 22.6559 12.0779C21.6412 11.6495 20.5504 11.4301 19.4489 11.4329ZM19.4489 9.87793C21.3872 9.87793 23.2819 10.4527 24.8935 11.5295C26.5051 12.6064 27.7612 14.1369 28.5029 15.9276C29.2447 17.7183 29.4388 19.6888 29.0606 21.5898C28.6825 23.4908 27.7491 25.237 26.3786 26.6076C25.008 27.9781 23.2618 28.9115 21.3608 29.2896C19.4598 29.6678 17.4893 29.4737 15.6986 28.7319C13.9079 27.9902 12.3774 26.7341 11.3005 25.1225C10.2237 23.5109 9.64893 21.6162 9.64893 19.6779C9.64893 17.0788 10.6814 14.5861 12.5193 12.7483C14.3571 10.9104 16.8498 9.87793 19.4489 9.87793Z" fill="white"/>
<path d="M11.204 24.8101L9.77295 29.8801L15.0299 28.4181L15.3099 26.8L11.8879 27.8891L12.788 24.623L11.204 24.8101Z" fill="white"/>
<path d="M11.8257 27.9208C11.8257 27.8898 12.9147 24.2808 12.9147 24.2808L15.5277 26.7378L11.8257 27.9208Z" fill="#27D045"/>
<path d="M15.5488 15.2079C15.2309 15.4285 14.9599 15.7101 14.7517 16.0362C14.5435 16.3624 14.4021 16.7267 14.3358 17.1079C14.2903 17.9669 14.4956 18.8205 14.9267 19.5649C15.6839 20.6918 16.583 21.7165 17.6018 22.6139C18.4929 23.3189 19.5046 23.8563 20.5877 24.1999C21.2196 24.4523 21.9109 24.5172 22.5787 24.3869C23.1711 24.2231 23.6948 23.8724 24.0717 23.3869C24.16 23.1668 24.2225 22.9373 24.2578 22.7029C24.2934 22.4971 24.2934 22.2867 24.2578 22.0809C23.5064 21.5396 22.6631 21.1392 21.7688 20.8989C21.5508 20.9609 21.3688 21.3659 21.1158 21.7079C20.8628 22.0499 20.7738 22.2079 20.5248 22.2079C19.6335 21.9591 18.8201 21.488 18.1607 20.8389C17.5743 20.3306 17.1159 19.6913 16.8227 18.9729C16.8227 18.9729 17.0098 18.7549 17.2588 18.4129C17.4509 18.2001 17.5882 17.9437 17.6588 17.6659C17.3997 16.8047 17.0338 15.9793 16.5698 15.2089C16.2312 15.1612 15.8875 15.1608 15.5488 15.2079Z" fill="white"/>
</svg>
