<svg width="37" height="38" viewBox="0 0 37 38" fill="none" xmlns="http://www.w3.org/2000/svg">
<path d="M12.913 21.762C12.9835 21.533 12.994 21.2897 12.9436 21.0554C12.8932 20.8211 12.7835 20.6037 12.625 20.424C11.665 19.2395 11.1314 17.7665 11.11 16.242C10.5929 16.1931 10.1016 15.9935 9.69681 15.6681C9.29207 15.3426 8.99171 14.9055 8.83297 14.411C8.66446 13.9304 8.62038 13.415 8.70484 12.9128C8.7893 12.4106 8.99954 11.938 9.31597 11.539C9.06352 11.3174 8.87292 11.0341 8.76282 10.7168C8.65272 10.3995 8.6269 10.059 8.68788 9.72869C8.74886 9.39839 8.89456 9.08958 9.1107 8.83248C9.32685 8.57538 9.60605 8.37881 9.92097 8.262C10.107 7.649 10.256 7.017 10.497 6.431C10.8899 5.41207 11.494 4.48782 12.2696 3.71897C13.0452 2.95013 13.9747 2.35408 14.997 1.97C15.1377 1.92633 15.2655 1.84878 15.3693 1.74417C15.473 1.63955 15.5495 1.51107 15.592 1.37C15.712 1.01119 15.9455 0.701159 16.2572 0.486681C16.5689 0.272204 16.9419 0.164914 17.32 0.180998C18.12 0.161998 18.928 0.161998 19.727 0.180998C20.1233 0.171331 20.5121 0.290067 20.8354 0.519488C21.1588 0.748908 21.3992 1.07672 21.521 1.454C21.582 1.62767 21.7043 1.7731 21.865 1.863C23.2077 2.34679 24.3966 3.18098 25.3083 4.27908C26.22 5.37717 26.8214 6.69918 27.05 8.108C27.059 8.145 27.078 8.173 27.087 8.208C28.592 9.165 28.76 10.029 27.747 11.508C28.0742 11.9022 28.2915 12.3757 28.3771 12.8808C28.4626 13.3859 28.4133 13.9046 28.2341 14.3846C28.0549 14.8645 27.7522 15.2886 27.3566 15.614C26.961 15.9395 26.4864 16.1547 25.981 16.238C25.9295 16.8012 25.8236 17.3581 25.665 17.901C25.3256 18.7746 24.9055 19.6145 24.41 20.41C24.2653 20.6011 24.1652 20.8222 24.1169 21.0569C24.0687 21.2917 24.0735 21.5343 24.131 21.767C24.731 21.767 25.358 21.748 25.971 21.767C28.0217 21.7473 30.0311 22.3435 31.7393 23.4784C33.4474 24.6134 34.7756 26.2348 35.552 28.133C36.1117 29.3918 36.3967 30.7554 36.388 32.133C36.397 32.951 36.397 33.778 36.388 34.596C36.4005 34.9231 36.348 35.2495 36.2334 35.5562C36.1188 35.8628 35.9444 36.1437 35.7204 36.3824C35.4963 36.6211 35.2271 36.8129 34.9284 36.9468C34.6296 37.0806 34.3072 37.1538 33.98 37.162C33.88 37.171 33.766 37.171 33.655 37.171H3.36897C3.0347 37.2048 2.69706 37.1702 2.37657 37.0694C2.05609 36.9685 1.75947 36.8036 1.50475 36.5845C1.25003 36.3654 1.04255 36.0968 0.89491 35.795C0.747274 35.4932 0.662575 35.1646 0.645967 34.829C0.587223 33.7609 0.593569 32.6903 0.664968 31.623C0.759025 29.6939 1.39361 27.83 2.49627 26.2443C3.59893 24.6585 5.12525 23.4148 6.90097 22.655C8.20236 22.0552 9.62221 21.7565 11.055 21.781C11.668 21.762 12.272 21.762 12.913 21.762ZM24.591 11.927H12.402C12.402 13.563 12.302 15.17 12.43 16.759C12.4949 17.7908 12.8641 18.7802 13.4909 19.6023C14.1178 20.4244 14.9742 21.0423 15.952 21.378C17.0356 21.7468 18.187 21.8738 19.325 21.75C20.5877 21.7334 21.8041 21.2725 22.7609 20.4483C23.7176 19.6241 24.3535 18.4893 24.557 17.243C24.6801 15.4735 24.6914 13.698 24.591 11.927ZM15.422 3.162C13.517 3.617 11.296 6.331 11.333 8.143H25.756C25.626 6.136 23.386 3.45 21.639 3.19C21.6232 3.33176 21.6168 3.4744 21.62 3.617C21.639 4.063 21.508 4.417 21.007 4.463C20.617 4.5 20.384 4.156 20.384 3.58V2.3C20.375 1.584 20.207 1.408 19.51 1.408H17.531C16.871 1.408 16.695 1.594 16.685 2.282C16.685 2.728 16.676 3.174 16.685 3.62C16.694 4.066 16.585 4.42 16.085 4.475C15.713 4.521 15.472 4.187 15.453 3.657C15.441 3.489 15.431 3.331 15.422 3.162ZM7.42197 35.892V35.251C7.42197 33.829 7.44997 32.398 7.41297 30.976C7.32465 30.5045 7.39645 30.0171 7.61696 29.5911C7.83746 29.1651 8.19402 28.8251 8.62997 28.625V23.348C8.49997 23.367 8.40697 23.376 8.32997 23.394C6.34258 24.0248 4.62447 25.3045 3.45097 27.028C1.75097 29.444 1.78797 32.186 1.92697 34.946C1.95371 35.1986 2.07107 35.4329 2.25733 35.6055C2.44359 35.7782 2.68611 35.8775 2.93997 35.885C4.40997 35.913 5.86897 35.894 7.42097 35.894L7.42197 35.892ZM29.632 35.901C31.091 35.901 32.476 35.91 33.86 35.901C34.0345 35.9196 34.2111 35.899 34.3767 35.8407C34.5423 35.7825 34.6928 35.688 34.8174 35.5643C34.9419 35.4405 35.0372 35.2906 35.0965 35.1253C35.1558 34.9601 35.1774 34.7837 35.16 34.609C35.1786 33.7543 35.1786 32.8993 35.16 32.044C35.1372 30.1769 34.5448 28.3613 33.462 26.8402C32.3792 25.319 30.8577 24.1648 29.101 23.532C28.887 23.458 28.664 23.402 28.401 23.332V28.638C28.8275 28.8269 29.1793 29.1519 29.4014 29.5621C29.6234 29.9723 29.7031 30.4446 29.628 30.905C29.603 32.53 29.631 34.175 29.631 35.903L29.632 35.901ZM10.516 35.873V33.673C10.4842 33.396 10.515 33.1155 10.6062 32.852C10.6974 32.5886 10.8466 32.349 11.0428 32.1509C11.239 31.9529 11.4773 31.8014 11.7398 31.7078C12.0024 31.6142 12.2827 31.5808 12.56 31.61H24.483C24.7599 31.5823 25.0395 31.6168 25.3014 31.7109C25.5633 31.8051 25.8009 31.9566 25.9967 32.1543C26.1926 32.352 26.3419 32.5909 26.4336 32.8537C26.5253 33.1164 26.5572 33.3963 26.527 33.673V35.862H28.376V30.653C28.376 29.937 28.209 29.761 27.502 29.761H9.52997C8.82397 29.761 8.66597 29.938 8.66597 30.661V35.361C8.66597 35.528 8.68497 35.705 8.69397 35.872L10.516 35.873ZM25.236 35.882C25.2616 35.8175 25.2804 35.7504 25.292 35.682C25.301 35.082 25.301 34.474 25.301 33.861C25.301 32.941 25.18 32.82 24.242 32.82H12.801C12.6237 32.7942 12.4429 32.8068 12.271 32.857C12.085 32.95 11.806 33.127 11.797 33.275C11.751 34.139 11.778 34.994 11.778 35.875C16.291 35.885 20.747 35.885 25.235 35.885L25.236 35.882ZM24.018 22.995C23.798 24.1924 23.1671 25.2755 22.2341 26.0575C21.301 26.8396 20.1244 27.2716 18.907 27.279C15.831 27.428 13.842 25.95 13.007 22.958C12.775 22.977 12.589 22.986 12.384 22.995V28.478H24.659V22.986C24.436 22.995 24.241 22.995 24.018 22.995ZM14.288 22.001C14.2366 22.6753 14.3726 23.3507 14.6809 23.9526C14.9892 24.5546 15.4578 25.0596 16.035 25.412C16.8116 25.8732 17.7016 26.1082 18.6047 26.0906C19.5078 26.0729 20.388 25.8032 21.146 25.312C21.6861 24.9414 22.1231 24.4394 22.4158 23.8534C22.7084 23.2673 22.8472 22.6165 22.819 21.962C21.5021 22.6432 20.0423 23.0019 18.5597 23.0087C17.0771 23.0155 15.614 22.6701 14.291 22.001H14.288ZM18.498 10.645H26.198C26.319 10.645 26.449 10.645 26.57 10.636C26.647 10.6351 26.723 10.6189 26.7937 10.5885C26.8644 10.558 26.9284 10.5139 26.982 10.4585C27.0355 10.4032 27.0776 10.3378 27.1057 10.2662C27.1339 10.1945 27.1476 10.118 27.146 10.041C27.152 9.9644 27.1424 9.88738 27.1178 9.81458C27.0932 9.74179 27.0541 9.67473 27.0029 9.61745C26.9517 9.56017 26.8894 9.51385 26.8198 9.48129C26.7502 9.44873 26.6748 9.4306 26.598 9.428C26.4746 9.41239 26.3503 9.40604 26.226 9.409C21.254 9.409 16.279 9.406 11.301 9.4C11.0001 9.36195 10.6948 9.38095 10.401 9.456C10.2825 9.51074 10.1781 9.59195 10.0959 9.69337C10.0138 9.79479 9.95595 9.91372 9.92697 10.041C9.90797 10.218 10.187 10.459 10.382 10.599C10.482 10.683 10.689 10.636 10.856 10.636C13.4046 10.6453 15.952 10.6483 18.498 10.645ZM9.92097 23.032V28.487H11.101V22.962C10.701 22.986 10.339 23.014 9.92097 23.032ZM27.121 28.487V23.032C26.703 23.013 26.321 22.995 25.941 22.976V28.487H27.121ZM11.101 11.946C10.9147 11.9672 10.7346 12.0261 10.5717 12.1191C10.4089 12.212 10.2666 12.3371 10.1537 12.4868C10.0407 12.6365 9.95929 12.8075 9.91447 12.9896C9.86966 13.1717 9.86234 13.361 9.89297 13.546C9.95797 14.346 10.469 14.903 11.101 14.866V11.946ZM25.942 14.883C26.1237 14.8629 26.2997 14.8069 26.4597 14.7182C26.6196 14.6295 26.7603 14.5099 26.8735 14.3663C26.9868 14.2227 27.0703 14.058 27.1193 13.8818C27.1684 13.7056 27.1818 13.5214 27.159 13.34C27.1713 13.1692 27.1494 12.9977 27.0947 12.8355C27.0399 12.6733 26.9533 12.5237 26.84 12.3953C26.7266 12.267 26.5888 12.1626 26.4346 12.0882C26.2804 12.0138 26.1129 11.9709 25.942 11.962V14.883Z" fill="#4A4B4D"/>
</svg>
